<?xml version="1.0" encoding="utf-8"?>
<!-- Generator: Adobe Illustrator 23.0.1, SVG Export Plug-In . SVG Version: 6.00 Build 0)  -->
<svg version="1.1" id="Capa_1" xmlns="http://www.w3.org/2000/svg" xmlns:xlink="http://www.w3.org/1999/xlink" x="0px" y="0px"
	 viewBox="0 0 453.54 425.2" style="enable-background:new 0 0 453.54 425.2;" xml:space="preserve">
<style type="text/css">
	.st0{display:none;fill:#FEE9DF;}
	.st1{opacity:0.2;fill:#7875B7;}
	.st2{fill:#7875B7;}
	.st3{fill:#58BBD1;}
	.st4{fill:#95D7E3;}
	.st5{fill:#63CAE1;}
	.st6{fill:#FFFFFF;}
	.st7{fill:#B1E0E5;}
	.st8{fill:#72C1D2;}
	.st9{fill:#D3E6F0;}
	.st10{fill:#00BAD0;}
	.st11{fill:#D1D3D4;}
	.st12{fill:#98BDCF;}
	.st13{opacity:0.5;}
	.st14{fill:#3B7788;}
	.st15{fill:#E6E7E8;}
	.st16{fill:#83B0C7;}
	.st17{fill:#BCDEEF;}
	.st18{fill:#0E1619;}
	.st19{opacity:0.5;fill:#FFFFFF;}
	.st20{opacity:0.2;fill:#72164A;}
	.st21{fill:#72164A;}
	.st22{fill:none;stroke:#5A3249;stroke-miterlimit:10;}
	.st23{opacity:0.5;fill:#C9DCE7;}
	.st24{fill:#432035;}
	.st25{fill:#27021A;}
	.st26{fill:#060004;}
	.st27{fill:#00B9C5;}
	.st28{fill:#A7A9AC;}
	.st29{fill:#1F2637;}
	.st30{fill:#EC524F;}
	.st31{fill:#D03F42;}
	.st32{opacity:0.1;fill:#FFFFFF;}
	.st33{fill:#F3CFD0;}
	.st34{fill:#EF3828;}
	.st35{fill:#C72E20;}
	.st36{opacity:0.3;fill:#FFFFFF;}
	.st37{fill:#5BA43B;}
	.st38{fill:#4E9133;}
	.st39{fill:#68292F;}
	.st40{fill:#802F34;}
	.st41{fill:#FCDEE0;}
	.st42{fill:#995339;}
	.st43{fill:#F5D7C9;}
	.st44{fill:#C1414A;}
	.st45{fill:#384281;}
</style>
<rect class="st0" width="453.54" height="425.2"/>
<g>
	<g>
		<g>
			<polygon class="st1" points="150.43,105.1 154.19,135.59 154.19,224.95 91.94,242.12 91.94,153.26 			"/>
			<polygon class="st1" points="91.94,242.12 130.01,230.75 201.86,225.09 168.08,244.02 			"/>
			<path class="st1" d="M150.43,105.1l-17.17-30.93c0,0,2.52-6.3,10.59-4.79c0,0,5.55,0.5,8.32-4.29c0,0,6.56-4.54,11.6,0l-8.23,40
				H150.43z"/>
			<path class="st1" d="M151.92,105.1l-10.34-42.02c0,0,3.08-6.08,10.34-3.03c0,0,4.3,1.56,7.57-0.86c0,0,5.45-5.14,11.04,0
				c0,0-0.37,4.89,5.89,5.65c0,0,7.17-0.5,6.84,8.07l-27.73,32.18H151.92z"/>
			<path class="st1" d="M150.43,105.1l-31.03-17.4c0,0-0.17-5.5,5.21-6.7c0,0,4.7-1.03,4.7-6.07c0,0,1.83-5.38,7.73-6.22
				c1.18-0.17,6.42,0.99,9.41-4.2c0,0,5.38-5.38,10.92-1.01l-1.85,41.6H150.43z"/>
			<path class="st1" d="M156.04,105.1l31.04-17.4c0,0,0.16-5.5-5.21-6.7c0,0-4.7-1.03-4.7-6.07c0,0-1.83-5.38-7.73-6.22
				c-1.18-0.17-6.43,0.99-9.41-4.2c0,0-5.38-5.38-10.93-1.01l1.85,41.6H156.04z"/>
			<g>
				<path class="st2" d="M185.81,223.23c-3.19,0-5.78-2.59-5.78-5.78c0-3.19,2.59-5.78,5.78-5.78c0.16,0,0.16,0,0.16,0
					c0.17,0.01,0.31-1.94,0.31-4.33v-17.97c0-2.4-1.96-4.36-4.36-4.36H109.4c-2.39,0-10.88,1.96-10.88,4.36v8.74
					c0,2.4,0.01,4.36,0.02,4.35c0,0,0,0,0.01,0c2.86,0,5.18,2.32,5.18,5.18c0,2.86-2.32,5.18-5.18,5.18c-0.01,0-0.01,0-0.01,0
					c-0.01,0-0.02,1.96-0.02,4.35v11.67c0,2.4,1.96,4.36,4.36,4.36h79.06c2.4,0,4.36-1.96,4.36-4.36v-1.3
					c0-2.39-0.14-4.35-0.31-4.33C185.97,223.23,185.97,223.23,185.81,223.23z"/>
				<path class="st2" d="M185.81,211.67c0.16,0,0.16,0,0.16,0c0.17,0.01,0.31-1.94,0.31-4.33v-0.32c-6.62-0.51-11.21,1-11.31,6.86
					c-0.08,5.44,2.73,6.57,3.27,9c1.45,6.57-10.48,5.09-14.25,5.24c-5.51,0.22-11.06-0.1-16.56,0.36
					c-3.38,0.28-17.41-0.51-20.8-0.35c-8.05,0.38-13.6-3.56-14.29-11.94c-0.33-3.95-0.41-8.59-0.08-12.51
					c0.17-2.03-0.2-4.41,0.36-6.38c1.24-4.33,4.74-5.41,8.81-5.63c4.53-0.25,9.04-0.68,13.58-0.83c1.14-0.04,7.36,0.25,7.44-1.56
					c0,0-33.06-4.24-33.06-4.24c-2.39,0-10.88,1.96-10.88,4.36v8.74c0,2.4,0.01,4.36,0.03,4.35c2.86,0,5.18,2.32,5.18,5.18
					c0,2.86-2.32,5.18-5.19,5.18c-0.01,0-0.02,1.96-0.02,4.35v11.67c0,2.4,1.96,4.36,4.36,4.36h79.06c2.4,0,4.36-1.96,4.36-4.36
					v-1.3c0-2.39-0.14-4.35-0.31-4.33c0,0,0,0-0.16,0c-3.19,0-5.78-2.59-5.78-5.78C180.04,214.26,182.62,211.67,185.81,211.67z"/>
				<path class="st2" d="M172.38,175.61c-1.9-1.64-4.53-1.97-5.84-0.75c0,0,0,0-1.71,0c-2.7,0-4.88-2.18-4.88-4.88
					c0-1.45,0-1.45,0-1.45c0.9-1.2,0.69-3-0.46-3.99c-1.15-0.99-3.98-0.98-6.28,0.02l-20.51,8.89c-2.3,1-4.06,2.36-3.9,3.03
					c0,0,0,0,0,0.65c0,3.35-2.71,6.06-6.06,6.06c-2.28,0-2.28,0-2.28,0c-1.66-1.71-4.9-2.3-7.21-1.3l-12.81,5.56
					c-2.3,1-2.13,1.82,0.38,1.82h82.88c2.51,0,3.01-1.34,1.1-2.97L172.38,175.61z"/>
				<g>
					<path class="st2" d="M148.89,174.02c-0.04-0.01-0.08-0.02-0.11-0.03c-0.16-0.04-0.32-0.07-0.48-0.1
						c-0.05-0.01-0.1-0.02-0.15-0.02c-0.2-0.03-0.41-0.04-0.62-0.04c-2.8,0-5.07,2.27-5.07,5.07c0,2.8,2.27,5.07,5.07,5.07
						c0.21,0,0.42-0.02,0.62-0.04c0.05-0.01,0.1-0.02,0.16-0.02c0.16-0.02,0.32-0.06,0.48-0.1c0.04-0.01,0.08-0.02,0.12-0.03
						c2.13-0.6,3.7-2.55,3.7-4.87C152.59,176.57,151.03,174.62,148.89,174.02z"/>
					<path class="st2" d="M166.38,182.49c0-1.09-0.61-2.03-1.49-2.54c0.01,0,0.01,0,0.02,0c-0.07-0.04-0.15-0.08-0.23-0.12
						c-0.04-0.02-0.08-0.04-0.12-0.06c-0.14-0.06-0.29-0.1-0.45-0.14c-0.05-0.01-0.09-0.02-0.14-0.03
						c-0.17-0.03-0.34-0.05-0.52-0.05c-1.62,0-2.92,1.31-2.92,2.92s1.31,2.92,2.92,2.92c0.18,0,0.35-0.02,0.52-0.05
						c0.05-0.01,0.1-0.02,0.15-0.03c0.15-0.03,0.29-0.08,0.42-0.13c0.05-0.02,0.1-0.04,0.15-0.07c0.07-0.03,0.15-0.07,0.22-0.11
						c-0.01,0-0.01,0-0.02,0C165.77,184.52,166.38,183.58,166.38,182.49z"/>
				</g>
				<g>
					<path class="st2" d="M155.35,193.06c-0.03-0.01-0.06-0.02-0.1-0.02c-0.15-0.04-0.31-0.07-0.47-0.1
						c-0.05-0.01-0.09-0.02-0.14-0.02c-0.19-0.02-0.39-0.04-0.59-0.04c-2.67,0-4.83,2.16-4.83,4.84c0,2.67,2.16,4.83,4.83,4.83
						c0.2,0,0.4-0.02,0.59-0.04c0.05-0.01,0.1-0.01,0.14-0.02c0.16-0.02,0.32-0.06,0.47-0.1c0.03-0.01,0.07-0.02,0.1-0.02
						c2.04-0.57,3.53-2.43,3.53-4.65C158.89,195.49,157.39,193.63,155.35,193.06z"/>
					<path class="st2" d="M165.09,220.86c0.03-0.01,0.07-0.02,0.1-0.03c2.04-0.57,3.53-2.43,3.53-4.65c0-2.22-1.49-4.08-3.53-4.65
						c-0.04-0.01-0.07-0.02-0.1-0.03c-0.15-0.04-0.31-0.07-0.46-0.09c-0.05-0.01-0.1-0.02-0.15-0.02c-0.19-0.02-0.39-0.04-0.59-0.04
						c-2.67,0-4.83,2.16-4.83,4.84c0,2.67,2.16,4.83,4.83,4.83c0.2,0,0.4-0.02,0.59-0.04c0.05-0.01,0.09-0.01,0.14-0.02
						C164.79,220.93,164.94,220.9,165.09,220.86z"/>
					<path class="st2" d="M145.6,209.56c0.01,0,0.02,0,0.03,0c-0.08-0.05-0.18-0.09-0.27-0.13c-0.05-0.02-0.09-0.05-0.14-0.07
						c-0.16-0.07-0.33-0.12-0.5-0.16c-0.05-0.01-0.11-0.02-0.16-0.03c-0.19-0.04-0.39-0.06-0.59-0.06c-1.85,0-3.35,1.5-3.35,3.35
						c0,1.85,1.5,3.35,3.35,3.35c0.2,0,0.4-0.02,0.59-0.06c0.05-0.01,0.11-0.02,0.16-0.03c0.17-0.04,0.34-0.09,0.5-0.16
						c0.05-0.02,0.09-0.04,0.14-0.07c0.09-0.04,0.18-0.08,0.27-0.13c-0.01,0-0.02,0-0.03,0c1.02-0.57,1.71-1.65,1.71-2.9
						C147.31,211.21,146.62,210.13,145.6,209.56z"/>
					<path class="st2" d="M124.92,198.16c0.01,0,0.02,0,0.03,0c-0.09-0.05-0.18-0.09-0.28-0.14c-0.04-0.02-0.07-0.04-0.11-0.05
						c-0.17-0.07-0.34-0.12-0.52-0.16c-0.05-0.01-0.11-0.02-0.16-0.03c-0.19-0.04-0.39-0.06-0.59-0.06c-1.85,0-3.35,1.5-3.35,3.35
						s1.5,3.35,3.35,3.35c0.2,0,0.4-0.02,0.6-0.06c0.05-0.01,0.1-0.02,0.15-0.03c0.18-0.04,0.36-0.09,0.53-0.17
						c0.03-0.01,0.06-0.03,0.09-0.05c0.1-0.04,0.19-0.09,0.29-0.14c-0.01,0-0.02,0-0.03,0c1.02-0.57,1.71-1.65,1.71-2.9
						C126.63,199.81,125.94,198.73,124.92,198.16z"/>
					<path class="st2" d="M118.55,216.63c0.01,0,0.02,0,0.03,0c-0.09-0.05-0.19-0.1-0.28-0.14c-0.04-0.02-0.07-0.04-0.11-0.05
						c-0.17-0.07-0.35-0.12-0.53-0.16c-0.05-0.01-0.1-0.02-0.16-0.03c-0.19-0.04-0.39-0.06-0.59-0.06c-1.85,0-3.35,1.5-3.35,3.35
						c0,1.85,1.5,3.35,3.35,3.35c0.2,0,0.4-0.03,0.59-0.06c0.05-0.01,0.1-0.02,0.15-0.03c0.18-0.04,0.36-0.09,0.53-0.17
						c0.03-0.01,0.06-0.03,0.09-0.04c0.1-0.04,0.2-0.09,0.29-0.14c-0.01,0-0.02,0-0.03,0c1.02-0.57,1.71-1.65,1.71-2.9
						C120.26,218.28,119.57,217.2,118.55,216.63z"/>
				</g>
			</g>
			<g>
				<polygon class="st1" points="91.94,242.12 91.94,153.26 150.43,105.1 155.53,105.1 168.08,153.42 168.08,244.02 				"/>
				<path class="st1" d="M162.82,240.95c-11.84,1.62-24.31-0.16-35.26-4.94c-10.3-4.5-20.48-12.31-23.56-23.63
					c-1.57-5.77-2.1-12.02-2.48-17.96c-0.46-7.08-0.45-14.23,0.51-21.27c1.67-12.27,6.52-7.71,19.55-11.43
					c7.84-2.24,16.36-2.41,24.45-1.96c7.37,0.41,15.02,1.26,22.04,3.72v-8.25c-4.09,0.85-8.23,1.47-12.39,1.83
					c-5.84,0.5-11.79,0.6-17.6-0.25c-4.53-0.67-9.38-1.86-13.05-4.75c-9.2-7.25-2.46-14,3.11-21.21
					c4.77-6.18,10.49-11.66,16.64-16.45c3.41-2.66,7.18-5.37,11.22-7.24l-0.48-2.06h-5.1l-58.49,48.16v88.86l76.14,1.89v-4.09
					C166.34,240.37,164.58,240.71,162.82,240.95z"/>
			</g>
			<g>
				<polygon class="st1" points="155.53,105.1 201.86,135.28 201.86,225.09 168.08,244.02 168.08,153.42 				"/>
				<path class="st1" d="M197.95,221.55c-4.89,0.79-10.44,0.92-14.96-1.44c-5.13-2.68-7.77-8.43-8.72-13.9
					c-1.44-8.32-0.13-16.64,0.44-24.96c0.76-11.21,0.02-5.04,2.07-16.12c1.38-7.49,4.89-4.53,10.86-9.4
					c4.21-3.43,9.09-5.75,14.22-7.4V136.8c-6.59,2.97-13.99,3.76-21.27,1.11c-10.81-3.94-17.89-8.72-21.94-19.54l9.43,35.05v90.6
					l33.78-18.93v-4.38C200.57,221.06,199.27,221.34,197.95,221.55z"/>
			</g>
			<rect x="148.52" y="104.56" class="st2" width="9.26" height="2.12"/>
		</g>
		<g>
			<polygon class="st3" points="227.21,115.6 227.21,239.38 250.93,239.38 250.93,115.6 236.47,98.34 			"/>
			<rect x="158.33" y="115.6" class="st4" width="68.88" height="123.78"/>
			<path class="st5" d="M227.21,202.29v-59.06c-1.5-0.42-2.99-0.75-4.46-0.75c-8.08,0.04-3.33,10.84-9.51,12.85
				c-10.64,3.46-5.76-18.02-5.65-22.62c0.13-5.24-0.19-13.35-7.3-13.22c-3.97,0.07-8.28,1.2-9.02,5.68
				c-0.51,3.14,0.09,6.37,0.58,9.47c0.6,3.75,2.32,11-2.34,13c-2.73,1.17-5.47-2.07-7.19-3.68c-1.86-1.74-3.46-3.23-6.16-3.04
				c-1.65,0.12-3.33,0.5-4.99,0.49c-7.77-0.05-6.38-10.77-3.96-15.56c2.26-4.45,5.8-7.7,9.88-10.24h-18.76v86.69H227.21z"/>
			<path class="st5" d="M218.64,232.66c-11.66,3.57-25.39,1.53-37.27,0.36c-4.13-0.41-8.9-1.57-10.99-5.63
				c-1.99-3.87-1.81-8.37,0.33-12.19c4.51-8.04,15.61-8.36,23.86-9.79h-36.23v33.97h68.88v-13.22
				C225.26,229.12,222.53,231.47,218.64,232.66z"/>
			<path class="st6" d="M226.95,165.04c-1.07-5.35,2.2-14.33-5.24-15.07c-3.99,2.73,0.08,12.22-4.51,15.72
				c-3.95,3.02-12.77,5.51-16.61,1.28c-2.35-2.58-2.02-6.32-0.95-8.97c2.16-5.35,2.66-10.53,3.09-16.23
				c0.64-8.62,0.64-15.16-2.26-17.19c-5.82-3.03-9.44,7.06-5.52,10.55c2.47,2.19,2.2,8.65,2.47,12.91
				c0.34,5.31-3.85,15.46-11.17,14.81c-3.44-0.31-6.25-3.05-6.03-6.59c0.08-1.26,0.39-2.6,0.29-3.86c-2.73-1.93-4.71-1.73-5.92,0.6
				l-0.59,0.97c-1.5,3.07-0.21,6.27-0.29,9.49c-0.08,3.87-3.89,7.04-7.56,7.32c-2.72,0.21-5.3-0.37-7.8-1.26v40.41h68.88v-43.95
				C227.11,165.68,227.02,165.37,226.95,165.04z"/>
			<polygon class="st7" points="158.33,115.6 170.24,98.34 236.47,98.34 227.21,115.6 			"/>
			<rect x="170.24" y="91.74" class="st8" width="66.24" height="6.6"/>
			<g>
				<path class="st4" d="M182.01,197.5l0.02,0.34l0.08,0.66l0.02,0.32l-0.02,0.17l-0.02,0.24l-0.11,0.17l-0.13,0.11l-0.23,0.04
					l-0.32,0.02h-0.34l-0.85-0.06l-0.36-0.02h-0.53l-0.38-0.02l-0.79-0.11l-0.15-0.04l-0.08-0.11l-0.02-0.21l-0.02-0.3l-0.02-0.32
					l0.04-0.72v-2l-0.06-1.34v-0.34l0.09-1.32v-1.66l-0.04-0.26l-0.13-0.08h-0.13l-0.15,0.19l-0.21,0.3l-0.9,1.02l-1.3,1.55
					l-0.85,1.07l-0.19,0.17l-0.15,0.06h-0.17l-0.23-0.04l-0.26-0.06l-0.23-0.17l-1.07-1.28l-0.79-1.04l-0.21-0.25l-1.11-1.24
					l-0.28-0.28l-0.13,0.04l-0.04,0.24l-0.06,1.34v0.34l0.09,1.34v0.34l0.04,1.34v0.34l-0.02,1.32v0.32l0.02,0.64l-0.02,0.34
					l-0.02,0.36l-0.04,0.28l-0.08,0.13l-0.15,0.04l-0.55,0.06l-0.34,0.02l-0.83-0.06l-0.34,0.02l-1.02,0.08h-0.49l-0.26-0.04
					l-0.13-0.13l-0.04-0.15l-0.04-0.21v-0.49l0.04-0.66v-3.28l-0.04-1.13v-0.34l0.02-1.13l-0.02-0.34l-0.06-1.15v-0.34l0.06-1.13
					l0.02-0.34l-0.09-1.13l0.02-0.34l0.08-1.13v-0.34l-0.08-0.79v-0.34l0.04-0.28l0.08-0.15l0.13-0.11l0.17-0.04l0.28-0.02
					l0.36,0.04l0.47,0.11h0.34l0.66-0.06l0.36-0.04l0.32-0.02l0.81,0.02h0.28l0.23,0.11l0.21,0.24l0.75,0.83l0.21,0.28l0.62,0.87
					l0.21,0.28l0.7,0.83l0.21,0.3l0.66,0.83l0.21,0.23l0.19,0.11h0.21l0.19-0.11l0.19-0.21l0.64-0.85l0.21-0.3l0.68-0.83l0.21-0.28
					l0.75-0.83l0.21-0.28l0.55-0.68l0.17-0.24l0.17-0.17l0.21-0.11l0.28,0.02l1.13,0.06l1,0.02h0.34l0.64-0.04l0.36,0.02l0.26,0.04
					l0.15,0.04l0.13,0.11l0.04,0.17l-0.02,0.26l-0.09,0.96l-0.02,0.34l0.04,1.13v0.34l-0.02,1.13V189l0.02,1.13v0.34l0.09,1.15v0.34
					l-0.09,1.13v0.34l0.06,1.13v0.34l-0.09,1.13v0.34L182.01,197.5z"/>
				<path class="st4" d="M189.55,196.05v0.34l-0.09,1.15v0.34l-0.02,1.17v0.24l-0.06,0.11l-0.17,0.06l-0.3,0.02l-1.09-0.02h-1.32
					l-1.07-0.08l-0.13-0.04l-0.06-0.06v-0.21l-0.04-0.53v-0.34l-0.02-0.32v-0.32l-0.06-1.15l0.02-0.34l0.06-1.15l0.02-0.34
					l-0.06-1.17v-0.34l-0.02-1.15v-1.83l-0.02-1.17v-0.34l0.02-1.15v-1.83l-0.04-1.17l0.06-0.23l0.13-0.09l0.21-0.02h0.17l0.32-0.02
					l0.51,0.02h0.34l0.98-0.04h1.32l0.24,0.04l0.04,0.13l0.02,0.23l0.04,0.55l0.02,0.34v2.09l0.02,1.15v0.34l-0.02,1.17v0.34
					l0.02,1.15v0.34l-0.04,1.15v1.86L189.55,196.05z"/>
				<path class="st4" d="M204.37,198.44l-0.02,0.34v0.19l-0.06,0.26l-0.13,0.15l-0.15,0.06l-0.21,0.04h-0.17l-0.3,0.02l-2.37-0.13
					h-1.6l-1.92,0.13l-1.24-0.08h-1.58l-0.98,0.06h-0.32l-0.3-0.02l-0.23-0.04l-0.15-0.09l-0.11-0.13l-0.04-0.26v-0.34l0.11-0.81
					l0.02-0.32l-0.08-1.13v-0.34l0.04-1.13v-0.34l0.04-2.6v-0.34l-0.08-2.6v-0.34l-0.02-1.13v-1.81l-0.04-0.64v-0.32l0.02-0.19
					l0.06-0.28l0.08-0.13l0.15-0.06l0.23-0.04h0.17l0.32-0.02l1.04,0.06h0.34l1.51-0.02h0.21l0.15,0.09l0.11,0.15v1.85l0.04,1.24
					v0.34l-0.06,1.24v0.34l0.04,1.24v0.34l0.06,1.24v0.34l-0.13,2.81l0.02,0.21l0.02,0.11l0.04,0.11l0.11,0.09l0.26,0.04l0.72,0.04
					l0.64-0.04H199l3.07-0.04l0.34-0.02l0.73-0.08l0.34-0.02h0.32l0.26,0.06l0.15,0.13l0.06,0.15l0.02,0.23l0.02,1.19l0.02,0.34
					L204.37,198.44z"/>
				<path class="st4" d="M220.65,199.02l0.11,0.19l-0.06,0.11l-0.06,0.13l-0.15,0.08h-0.28l-1.15-0.08h-0.34l-1.34-0.02h-0.34
					l-1.36,0.06l-0.25-0.02l-0.19-0.15l-0.75-0.83l-0.19-0.26l-0.66-0.94l-0.19-0.23l-0.83-0.83l-0.21-0.26l-0.7-0.83l-0.17-0.23
					l-0.11-0.19l-0.15-0.06l-0.13,0.08l-0.04,0.28v1.47l-0.04,1.15v0.34l0.02,0.51v0.32l-0.02,0.32l-0.02,0.21l-0.11,0.09
					l-0.26,0.04l-0.66,0.04h-0.66l-0.98-0.08l-0.34,0.02l-1.07,0.08l-0.17-0.06l-0.09-0.13l-0.02-0.19l-0.02-0.3v-0.34l0.02-0.53
					l0.02-0.36l-0.08-1.15v-1.49l0.02-0.34l0.06-1.17l0.02-0.34v-1.49l-0.04-1.15v-0.34l0.04-1.17v-0.34l-0.04-2.64v-0.34l0.06-1.15
					l0.02-0.26l0.06-0.11l0.21-0.04l0.32,0.02l0.66,0.06h0.34l0.98-0.09h0.34l0.98,0.06l0.23,0.02l0.11,0.06l0.06,0.17l0.02,0.21
					l-0.02,0.28l-0.06,0.7l-0.02,0.34l0.06,1.13v0.34l0.02,1.13l0.04,0.24l0.17,0.04l0.23-0.15l0.66-0.92l1.15-1.39l0.66-0.92
					l0.21-0.25l0.75-0.85l0.17-0.17l0.21-0.04l0.98-0.06h0.34l1.3,0.08l0.81,0.02h0.34l0.81-0.02l0.23,0.02l0.11,0.08l0.04,0.04
					l-0.02,0.06l-0.17,0.19l-0.81,0.89l-0.21,0.26l-0.75,0.98l-0.21,0.26l-0.83,0.92l-0.21,0.26l-0.79,0.94l-0.21,0.25l-0.77,0.94
					l-0.23,0.26l-0.53,0.49l-0.23,0.26l-0.11,0.13l-0.11,0.17l0.04,0.13l0.15,0.19l0.79,1.05l0.23,0.25l0.94,0.94l0.21,0.26
					l0.83,1.02l0.21,0.26l0.87,0.98l0.21,0.26l0.92,0.96l0.21,0.26L220.65,199.02z"/>
			</g>
		</g>
		<g>
			<g>
				<rect x="170.35" y="289.07" class="st9" width="75.12" height="49.18"/>
				<rect x="170.35" y="293.85" class="st10" width="75.12" height="40.02"/>
				<rect x="170.35" y="293.85" class="st11" width="20.58" height="40.02"/>
				<rect x="170.35" y="293.85" class="st11" width="12.87" height="40.02"/>
				<path class="st12" d="M249.63,286.4c0,1.42-1.15,2.58-2.58,2.58h-78.28c-1.42,0-2.58-1.15-2.58-2.58l0,0
					c0-1.42,1.15-2.58,2.58-2.58h78.28C248.48,283.83,249.63,284.98,249.63,286.4L249.63,286.4z"/>
				<path class="st12" d="M249.63,340.83c0,1.42-1.15,2.58-2.58,2.58h-78.28c-1.42,0-2.58-1.15-2.58-2.58l0,0
					c0-1.42,1.15-2.58,2.58-2.58h78.28C248.48,338.25,249.63,339.4,249.63,340.83L249.63,340.83z"/>
				<g class="st13">
					<path class="st6" d="M235.12,299.57c-1.3,0-2.36,1.06-2.36,2.36v17.58c0,1.3,1.06,2.36,2.36,2.36c1.3,0,2.36-1.05,2.36-2.36
						v-17.58C237.48,300.62,236.42,299.57,235.12,299.57z"/>
					<path class="st6" d="M235.12,323.45c-1.3,0-2.36,1.05-2.36,2.36c0,1.3,1.06,2.36,2.36,2.36c1.3,0,2.36-1.06,2.36-2.36
						C237.48,324.5,236.42,323.45,235.12,323.45z"/>
				</g>
			</g>
			<g>
				<path class="st6" d="M197.54,299.21l-0.01,0.16l0.01,0.33l-0.01,0.18l-0.01,0.09l-0.02,0.13l-0.03,0.08l-0.07,0.05l-0.13,0.02
					h-0.17l-0.33-0.03l-0.18-0.01l-0.51,0.03h-0.18l-0.27-0.02h-0.17l-0.08,0.01l-0.11,0.03l-0.04,0.07l-0.01,0.14l-0.04,0.65v0.17
					l0.04,0.66l-0.01,0.18l-0.04,0.66l-0.01,0.18l0.02,0.65v1.01l-0.02,0.65l0.01,0.17l0.06,0.49l0.01,0.18l-0.03,0.13l-0.06,0.05
					l-0.14,0.02l-0.21-0.01l-0.28-0.03l-0.19-0.01l-0.5,0.04h-0.18l-0.5-0.04l-0.13-0.01l-0.07-0.03l-0.02-0.12v-0.19l0.03-0.46
					l0.01-0.18v-0.82l0.01-0.66v-0.17l0.01-0.65v-0.18l-0.04-0.66l-0.01-0.18v-0.83l-0.02-0.65v-0.15l-0.03-0.09l-0.11-0.02h-0.16
					l-0.35,0.02h-0.2l-0.3-0.02l-0.19-0.01l-0.19,0.01l-0.25,0.01h-0.16l-0.09-0.01l-0.12-0.02l-0.07-0.04l-0.04-0.07l-0.02-0.11
					v-0.08l-0.01-0.18l0.02-0.33v-0.17l-0.03-0.42l0.01-0.18l0.03-0.14l0.04-0.08l0.07-0.03l0.11-0.02h0.25l0.41,0.03h0.18
					l0.64-0.04h0.18l0.65,0.05h0.17l0.82-0.05l0.64,0.01h0.18l0.83-0.01h0.81l0.36-0.02l0.19,0.01l0.09,0.01l0.13,0.02l0.08,0.04
					l0.05,0.08l0.02,0.13v0.08l0.01,0.17L197.54,299.21z"/>
				<path class="st6" d="M206.04,302.41l0.02,0.35l-0.01,0.16l-0.01,0.25l-0.02,0.16l-0.04,0.26l-0.03,0.18l-0.04,0.25l-0.04,0.17
					l-0.09,0.23l-0.06,0.15l-0.1,0.23l-0.08,0.15l-0.14,0.22l-0.11,0.14l-0.13,0.14l-0.14,0.12l-0.22,0.17l-0.14,0.1l-0.22,0.13
					l-0.14,0.08l-0.23,0.11l-0.17,0.06l-0.24,0.09l-0.17,0.04l-0.25,0.04l-0.17,0.03l-0.34,0.02h-0.51l-0.25-0.02l-0.16-0.01
					l-0.61-0.07l-0.18-0.03l-0.1-0.01l-0.18-0.05l-0.09-0.03l-0.18-0.08l-0.24-0.11l-0.16-0.1l-0.16-0.11l-0.29-0.24l-0.12-0.12
					l-0.14-0.19l-0.1-0.13l-0.18-0.29l-0.1-0.15l-0.09-0.17l-0.08-0.17l-0.07-0.17l-0.04-0.15l-0.04-0.16l-0.04-0.24l-0.03-0.19
					l-0.02-0.19l-0.02-0.37l-0.01-0.18l0.03-0.67v-0.18l-0.02-0.67v-0.17l0.03-0.67v-1.02l-0.02-0.35v-0.19l0.01-0.19l0.03-0.17
					l0.08-0.1l0.14-0.03l0.36-0.02l0.42,0.03h0.18l0.36-0.01l0.17,0.01l0.25,0.01l0.14,0.03l0.09,0.09l0.03,0.15l0.01,0.15v0.17
					l-0.02,0.43v0.18l0.03,0.67v0.18l-0.01,0.67v0.17l-0.03,0.67v0.18l-0.01,0.67l0.01,0.18l0.02,0.28l0.03,0.17l0.07,0.24
					l0.07,0.17l0.11,0.25l0.11,0.13l0.18,0.19l0.14,0.09l0.24,0.09l0.17,0.04l0.29,0.02h0.18l0.29-0.06l0.16-0.04l0.21-0.1
					l0.14-0.09l0.18-0.16l0.11-0.13l0.12-0.23l0.08-0.16l0.05-0.18l0.03-0.18l0.04-0.33l0.01-0.17l-0.04-0.67v-0.18l0.03-0.68v-0.18
					l0.02-0.67v-0.17l-0.02-0.68l-0.01-0.18l-0.03-0.46v-0.27l0.04-0.16l0.1-0.09l0.14-0.03h0.23l0.56,0.04h0.18l0.44-0.03h0.18
					l0.17,0.01l0.14,0.03l0.09,0.08l0.01,0.13l0.01,0.33v0.17l-0.01,0.25v0.18l0.03,0.68v0.17l-0.02,0.67v0.18l-0.04,0.68
					L206.04,302.41z"/>
				<path class="st6" d="M214.97,300.07l-0.01,0.18v1.63l0.03,0.64v0.18l0.02,1.45v0.19l-0.01,0.09l-0.01,0.19l-0.03,0.53l0.01,0.64
					l-0.01,0.15l-0.04,0.13l-0.09,0.12l-0.11,0.08l-0.1,0.03l-0.15,0.01l-0.56,0.02l-0.18,0.01l-0.28,0.01h-0.18l-0.14-0.03
					l-0.13-0.05l-0.13-0.1l-0.1-0.14l-0.16-0.32l-0.1-0.14l-0.43-0.54l-0.11-0.13l-0.43-0.53l-0.1-0.14l-0.39-0.57l-0.1-0.13
					l-0.43-0.53l-0.11-0.13l-0.41-0.54l-0.1-0.09l-0.08,0.03l-0.03,0.13l-0.02,0.55v0.18l0.01,0.55v0.17l0.01,0.62v0.18l-0.03,0.62
					l0.01,0.17l0.07,0.44l0.01,0.18l-0.03,0.14l-0.08,0.08l-0.08,0.02l-0.13,0.02l-0.09,0.01l-0.19,0.01l-0.51-0.01h-0.18
					l-0.45,0.02h-0.18l-0.16-0.01l-0.12-0.02l-0.09-0.06l-0.04-0.08l-0.02-0.11l-0.01-0.08v-0.17l0.02-0.36l0.01-0.18l-0.03-0.58
					v-0.17l0.02-1.34l0.01-0.18l0.03-0.58l0.01-0.18v-0.76l-0.04-0.58v-0.18l0.04-0.58l-0.01-0.18l-0.04-0.59l-0.01-0.17v-0.25
					l0.01-0.17l0.02-0.16l0.02-0.12l0.03-0.08l0.07-0.03l0.12-0.02l0.33-0.02l0.33,0.02h0.83l0.13,0.01l0.06,0.04l0.07,0.1
					l0.46,0.49l0.11,0.13l0.41,0.53l0.11,0.13l0.41,0.54l0.11,0.13l0.4,0.55l0.1,0.13l0.42,0.53l0.11,0.13l0.4,0.55l0.09,0.08
					l0.09,0.01l0.08-0.06v-0.12l-0.08-0.46l-0.01-0.18l0.03-0.47v-0.18l-0.04-0.67v-0.18l0.04-0.67l-0.01-0.18l-0.03-0.41v-0.27
					l0.03-0.15l0.04-0.09l0.08-0.04l0.13-0.02h0.1l0.19-0.01l0.5,0.03h0.18l0.37-0.02l0.16,0.01l0.25,0.01l0.12,0.02l0.08,0.03
					l0.06,0.08l0.02,0.16l0.01,0.1l0.01,0.19l-0.02,0.34l-0.02,0.18L214.97,300.07z"/>
				<path class="st6" d="M225.17,305.97l0.03,0.15l-0.08,0.12l-0.12,0.06l-0.14,0.02h-0.15l-0.25-0.02l-0.16-0.01h-0.5l-0.68,0.04
					l-0.14-0.06l-0.07-0.08l-0.05-0.12l-0.34-0.92l-0.08-0.11l-0.1-0.02l-0.13-0.01l-0.66-0.04h-0.18l-0.83-0.02l-0.66-0.01h-0.17
					l-0.17,0.01h-0.51l-0.14,0.02l-0.09,0.06l-0.07,0.13l-0.25,0.75l-0.07,0.18l-0.12,0.14l-0.16,0.05h-0.18l-0.64-0.03h-0.18
					l-0.68,0.04l-0.14,0.01l-0.13-0.07l-0.09-0.12l0.01-0.14l0.02-0.09l0.07-0.18l0.15-0.34l0.07-0.16l0.28-0.62l0.06-0.15
					l0.29-0.62l0.07-0.17l0.25-0.59l0.07-0.16l0.3-0.62l0.07-0.15l0.4-0.9l0.31-0.66l0.08-0.18l0.24-0.5l0.08-0.18l0.21-0.51
					l0.07-0.16l0.2-0.45l0.06-0.12l0.11-0.06l0.17-0.03l0.51-0.02h0.86l0.51,0.01l0.19,0.03l0.12,0.09l0.06,0.14l0.15,0.43
					l0.07,0.17l0.27,0.52l0.07,0.15l0.24,0.54l0.07,0.16l0.2,0.56l0.07,0.16l0.24,0.53l0.07,0.15l0.24,0.54l0.07,0.15l0.22,0.55
					l0.07,0.15l0.34,0.68l0.26,0.52l0.08,0.15l0.3,0.69L225.17,305.97z M221.5,302.86l-0.04-0.14l-0.24-0.75l-0.05-0.17l-0.22-0.65
					l-0.05-0.14l-0.11-0.08l-0.14-0.03l-0.12,0.03l-0.11,0.11l-0.3,0.75l-0.07,0.17l-0.29,0.74l-0.03,0.17l0.03,0.13l0.12,0.05
					l0.15,0.02h0.69l0.52,0.03l0.14-0.04l0.09-0.09L221.5,302.86z"/>
			</g>
			<g>
				<path class="st14" d="M224.85,316.79c0-4.41,3.21-6.53,3.21-6.53c-6.25,0.28-7.13,4.8-7.13,4.8v1.73v2.01
					c0,0,0.88,4.23,7.13,4.51C228.06,323.31,224.85,321.2,224.85,316.79z"/>
				<path class="st15" d="M223.29,319.74c-0.94-3.3-0.26-6.59,1.97-8.99c-3.73,1.23-4.34,4.31-4.34,4.31v3.74
					c0,0,0.64,3.06,4.68,4.15C224.54,322.16,223.69,321.14,223.29,319.74z"/>
				<path class="st14" d="M212.29,310.33c0,0,1.04-2.72,4.65-2.88c0,0-2.4,2.16,0,4.57L212.29,310.33z"/>
				<path class="st14" d="M211.85,323.2c0,0,0.92,2.39,4.09,2.53c0,0-2.11-1.9,0-4.01L211.85,323.2z"/>
				<path class="st14" d="M201.03,323.04c0,0-0.1,3.41,2.59,4.24c0,0,0.55,0.07,0.97-0.69l1.41-2.35l-2.38-1.93L201.03,323.04z"/>
				<path class="st14" d="M198.66,310.13l2.16-3.41c0,0,0.32-0.72,1.36-0.32c0,0,1.12,1.68,6.18,2.73L198.66,310.13z"/>
				<path class="st16" d="M220.94,318.8c-3.44,4.92-11.45,5.81-11.45,5.81s-13.63,1.89-21.65-6.25c-0.2-0.21,0.11-0.3,0.11-0.3
					c0.42-0.19,0.44-0.56,0.44-0.56c0-0.28-0.37-0.44-0.37-0.44c-0.4-0.12-0.18-0.47-0.18-0.47c0.15,0.04,0.96-0.92,1.06-1.02
					c1.79-1.75,3.45-3.17,5.71-4.31c3.8-1.93,7.33-2.74,11.21-2.74c0,0,9.35,0.78,15.12,6.42V318.8z"/>
				<path class="st17" d="M218.51,312.95c0.67,1.52,1.26,3.04,0.76,4.64c-0.9,2.87-3.22,4.23-6.01,4.91
					c-3.31,0.8-6.75,0.93-10.14,0.73c-2.29-0.13-6.05,0.02-7.83-1.7c-0.6-0.58,0.59-2.08,0.76-2.73c0.44-1.68,0.5-3.75-0.5-5.36
					c-0.35-0.57-2.18-2.7-2.51-0.38c-0.17,1.16,0.29,2.06,0.55,3.14c0.26,1.09,0.41,2.26-0.28,3.22c-0.96,1.34-2.57-0.76-2.9-1.57
					c-0.58-1.4-0.33-2.77,0.33-3.98c-0.62,0.53-1.22,1.09-1.84,1.69c-0.11,0.1-0.92,1.06-1.06,1.02c0,0-0.22,0.35,0.18,0.47
					c0,0,0.37,0.16,0.37,0.44c0,0-0.02,0.37-0.44,0.56c0,0-0.31,0.09-0.11,0.3c8.03,8.13,21.65,6.25,21.65,6.25s8-0.89,11.45-5.81
					v-3.87C220.18,314.19,219.36,313.53,218.51,312.95z"/>
				<g>
					<path class="st18" d="M191.37,315.72c0,0.24-0.2,0.43-0.44,0.43c-0.24,0-0.44-0.19-0.44-0.43c0-0.24,0.19-0.44,0.44-0.44
						C191.18,315.29,191.37,315.48,191.37,315.72z"/>
					<path class="st6" d="M191.4,315.5c0,0.12-0.1,0.22-0.22,0.22c-0.12,0-0.22-0.1-0.22-0.22c0-0.12,0.1-0.22,0.22-0.22
						C191.3,315.29,191.4,315.38,191.4,315.5z"/>
				</g>
				<g>
					<path class="st14" d="M193.61,312.61c0,0,0.51,0.3,1.02,1.03c0.26,0.35,0.5,0.82,0.69,1.34c0.18,0.53,0.28,1.13,0.28,1.73
						c0.01,0.3-0.06,0.6-0.08,0.89c-0.04,0.29-0.15,0.57-0.22,0.83c-0.09,0.26-0.22,0.5-0.33,0.73c-0.1,0.23-0.26,0.42-0.38,0.6
						c-0.23,0.37-0.51,0.61-0.69,0.79c-0.18,0.17-0.29,0.26-0.29,0.26s0.04-0.14,0.13-0.38c0.08-0.24,0.23-0.55,0.34-0.94
						c0.06-0.2,0.14-0.4,0.2-0.62c0.05-0.22,0.11-0.45,0.17-0.69c0.08-0.48,0.16-0.99,0.15-1.5c0.02-0.51-0.05-1.02-0.13-1.5
						c-0.1-0.48-0.21-0.92-0.34-1.31C193.87,313.13,193.61,312.61,193.61,312.61z"/>
				</g>
				<path class="st14" d="M200.11,315.29c0,0,1.44,0.81,1.92,3.14c0,0,3.85-0.93,4.89-2.27c0,0,0.4-1.1-1.52-1.58
					C205.4,314.58,202.11,313.75,200.11,315.29z"/>
				<path class="st19" d="M207.48,310.09c-0.14-0.2,4.37-0.6,10.02,3.21C217.5,313.3,211.25,315.74,207.48,310.09z"/>
			</g>
			<g>
				<path class="st6" d="M231.46,327.29c0,0.33-0.27,0.61-0.61,0.61h-45.87c-0.34,0-0.61-0.27-0.61-0.61l0,0
					c0-0.33,0.27-0.61,0.61-0.61h45.87C231.18,326.68,231.46,326.95,231.46,327.29L231.46,327.29z"/>
				<path class="st6" d="M225.01,329.8c0,0.34-0.27,0.61-0.61,0.61h-32.99c-0.33,0-0.61-0.27-0.61-0.61l0,0
					c0-0.33,0.27-0.61,0.61-0.61h32.99C224.74,329.2,225.01,329.47,225.01,329.8L225.01,329.8z"/>
			</g>
		</g>
		<g>
			<polygon class="st20" points="282.11,111.46 285.87,147.01 285.87,254.08 223.62,271.25 223.62,164.68 			"/>
			<polygon class="st20" points="223.62,271.25 261.69,259.88 333.54,254.22 299.76,273.15 			"/>
			<path class="st20" d="M282.11,111.46l-17.17-30.92c0,0,2.52-6.3,10.59-4.79c0,0,5.55,0.5,8.32-4.29c0,0,6.56-4.54,11.6,0
				l-8.23,40H282.11z"/>
			<path class="st20" d="M283.6,111.46l-10.34-42.02c0,0,3.08-6.08,10.34-3.03c0,0,4.3,1.56,7.57-0.86c0,0,5.45-5.15,11.04,0
				c0,0-0.37,4.89,5.89,5.65c0,0,7.17-0.5,6.84,8.07l-27.73,32.18H283.6z"/>
			<path class="st20" d="M282.11,111.46l-31.03-17.39c0,0-0.17-5.5,5.21-6.7c0,0,4.7-1.03,4.7-6.07c0,0,1.83-5.38,7.73-6.22
				c1.18-0.17,6.42,0.99,9.41-4.2c0,0,5.38-5.38,10.92-1.01l-1.85,41.59H282.11z"/>
			<path class="st20" d="M287.72,111.46l31.04-17.39c0,0,0.16-5.5-5.21-6.7c0,0-4.7-1.03-4.7-6.07c0,0-1.83-5.38-7.73-6.22
				c-1.18-0.17-6.43,0.99-9.41-4.2c0,0-5.38-5.38-10.93-1.01l1.85,41.59H287.72z"/>
			<g>
				<path class="st21" d="M334.25,179.43c-0.38-5.92-3.08-11.03-9.75-11.03c-0.18,0-20.44,0-21.92,0c0,0-0.04,0-0.1,0
					c-1.48,0-38.06,0-38.23,0c-6.67,0-13.62,4.44-14,10.36c-0.18,2.71,4.12,6.46,4.98,9.06c0.48,1.47,5.95,6.52,5.95,6.27v45.58
					c0,0-2.95,10.21,9.76,9.74h31.54h0.1l10.83,4.15c15.73,0.02,14.17-13.89,14.17-13.89v-45.58c0,0.25,5.46-4.81,5.95-6.27
					C334.37,185.23,334.42,182.14,334.25,179.43z"/>
				<path class="st21" d="M329.05,183.58c-0.38-5.92-3.09-11.03-9.75-11.03c-0.17,0-20.44,0-21.92,0c0,0-0.04,0-0.1,0
					c-1.48,0-38.06,0-38.23,0c-6.67,0-9.37,5.1-9.75,11.03c-0.17,2.71-0.13,5.8,0.73,8.4c0.48,1.47,5.94,6.52,5.94,6.27
					c0,0,0,45.58,0,45.58s-1.55,9.78,9.76,9.75h31.54h0.1h15.24c10.72,0.73,9.76-9.75,9.76-9.75s0-45.58,0-45.58
					c0,0.25,5.46-4.81,5.95-6.27C329.18,189.38,329.22,186.3,329.05,183.58z"/>
				<path class="st21" d="M326.66,185.35c-0.36-5.57-2.9-10.36-9.17-10.36c-0.16,0-19.21,0-20.61,0c0,0-0.04,0-0.09,0
					c-1.39,0-35.77,0-35.94,0c-6.27,0-8.81,4.8-9.17,10.36c-0.17,2.55-0.12,2.19,0.69,4.64c0.46,1.38,5.59,6.13,5.59,5.9
					c0,0,0,46.11,0,46.11s-1.46,9.19,9.18,9.16h29.65h0.09h14.32c10.07,0.68,9.17-9.16,9.17-9.16s0-46.11,0-46.11
					c0,0.23,5.13-4.52,5.59-5.9C326.78,187.54,326.82,187.9,326.66,185.35z"/>
				<path class="st21" d="M320.38,233.67c0,1.62-1.13,3.5-1.63,5.17c-0.52,1.76-0.76,3.22-2.49,4.17c-3.99,2.21-9.65,2.36-14,2.2
					c-6.56-0.24-13.67,1.04-20.04-1.06c-7.66-2.53-9.19-10.44-9.27-17.63c-0.08-7.42,1.18-14.87,1.52-22.29
					c0.2-4.29-0.78-6.58-3.62-9.68c-5.85-6.38-4.42-15.73,1.99-19.56h-11.99c-6.27,0-8.81,4.8-9.17,10.36
					c-0.17,2.55-0.12,2.19,0.69,4.64c0.46,1.38,5.59,6.13,5.59,5.9c0,0,0,46.11,0,46.11s-1.46,9.19,9.18,9.16h44.07
					c10.07,0.68,9.17-9.16,9.17-9.16S320.38,238.61,320.38,233.67z"/>
				<g>
					<path class="st21" d="M311.37,188.83c0,0.96-0.78,1.73-1.73,1.73c-0.96,0-1.73-0.78-1.73-1.73c0-0.96,0.78-1.73,1.73-1.73
						C310.59,187.1,311.37,187.88,311.37,188.83z"/>
					<path class="st21" d="M318.11,185.37c0,0.96-0.77,1.73-1.73,1.73c-0.96,0-1.73-0.78-1.73-1.73c0-0.96,0.78-1.73,1.73-1.73
						C317.34,183.64,318.11,184.41,318.11,185.37z"/>
					<path class="st21" d="M318.11,191.77c0,0.96-0.77,1.73-1.73,1.73c-0.96,0-1.73-0.78-1.73-1.73c0-0.96,0.78-1.73,1.73-1.73
						C317.34,190.04,318.11,190.82,318.11,191.77z"/>
				</g>
			</g>
			<g>
				<path class="st21" d="M324.04,184.19c-0.38-5.92-3.08-11.02-9.75-11.02c-0.18,0-20.44,0-21.92,0c0,0-0.04,0-0.1,0
					c-1.48,0-38.06,0-38.23,0c-6.67,0-13.62,4.44-14,10.36c-0.18,2.71,4.12,6.46,4.98,9.06c0.49,1.47,5.95,6.52,5.95,6.28v45.58
					c0,0-2.95,10.21,9.76,9.74h31.55h0.1l10.83,4.15c15.73,0.02,14.17-13.9,14.17-13.9v-45.58c0,0.25,5.46-4.81,5.95-6.28
					C324.17,189.99,324.21,186.9,324.04,184.19z"/>
				<path class="st21" d="M318.84,188.34c-0.38-5.92-3.09-11.02-9.75-11.02c-0.17,0-20.44,0-21.92,0c0,0-0.04,0-0.09,0
					c-1.48,0-38.06,0-38.23,0c-6.67,0-9.37,5.1-9.75,11.02c-0.17,2.71-0.13,5.8,0.73,8.4c0.48,1.47,5.94,6.52,5.94,6.27
					c0,0,0,45.58,0,45.58s-1.55,9.78,9.76,9.75h31.54h0.09h15.24c10.72,0.73,9.76-9.75,9.76-9.75s0-45.58,0-45.58
					c0,0.25,5.46-4.81,5.95-6.27C318.97,194.14,319.01,191.05,318.84,188.34z"/>
				<path class="st21" d="M316.45,190.11c-0.36-5.57-2.9-10.37-9.17-10.37c-0.16,0-19.21,0-20.61,0c0,0-0.04,0-0.09,0
					c-1.39,0-35.77,0-35.94,0c-6.27,0-8.81,4.8-9.17,10.37c-0.16,2.55-0.12,2.19,0.69,4.64c0.46,1.38,5.59,6.13,5.59,5.9v46.11
					c0,0-1.46,9.19,9.17,9.16h29.65h0.09H301c10.08,0.69,9.17-9.16,9.17-9.16v-46.11c0,0.23,5.14-4.52,5.59-5.9
					C316.57,192.3,316.61,192.66,316.45,190.11z"/>
				<path class="st21" d="M310.17,238.43c0,1.62-1.13,3.5-1.63,5.17c-0.52,1.76-0.76,3.22-2.48,4.18c-3.99,2.21-9.65,2.36-14,2.2
					c-6.56-0.24-13.67,1.04-20.03-1.06c-7.67-2.53-9.19-10.44-9.27-17.64c-0.08-7.42,1.18-14.87,1.52-22.29
					c0.2-4.29-0.78-6.58-3.62-9.68c-5.85-6.38-4.42-15.73,1.99-19.56h-11.99c-6.27,0-8.81,4.8-9.17,10.37
					c-0.16,2.55-0.12,2.19,0.69,4.64c0.46,1.38,5.59,6.13,5.59,5.9v46.11c0,0-1.46,9.19,9.17,9.16H301
					c10.08,0.69,9.17-9.16,9.17-9.16S310.17,243.36,310.17,238.43z"/>
				<g>
					<path class="st21" d="M301.16,193.59c0,0.96-0.78,1.73-1.73,1.73c-0.96,0-1.73-0.77-1.73-1.73c0-0.96,0.77-1.73,1.73-1.73
						C300.38,191.86,301.16,192.63,301.16,193.59z"/>
					<path class="st21" d="M307.9,190.13c0,0.96-0.78,1.73-1.73,1.73c-0.95,0-1.73-0.78-1.73-1.73c0-0.96,0.78-1.73,1.73-1.73
						C307.13,188.39,307.9,189.17,307.9,190.13z"/>
					<path class="st21" d="M307.9,196.53c0,0.96-0.78,1.73-1.73,1.73c-0.95,0-1.73-0.78-1.73-1.73c0-0.96,0.78-1.73,1.73-1.73
						C307.13,194.8,307.9,195.57,307.9,196.53z"/>
				</g>
			</g>
			<g>
				<path class="st21" d="M311.1,192.85c-0.38-5.92-3.08-11.03-9.75-11.03c-0.18,0-20.44,0-21.92,0c0,0-0.04,0-0.09,0
					c-1.48,0-38.06,0-38.23,0c-6.67,0-13.62,4.44-14,10.36c-0.18,2.71,4.12,6.46,4.98,9.06c0.48,1.47,5.95,6.52,5.95,6.28
					c0,0,0,45.58,0,45.58s-2.95,10.21,9.76,9.74h31.55h0.09l10.83,4.15c15.73,0.02,14.17-13.89,14.17-13.89s0-45.58,0-45.58
					c0,0.25,5.46-4.81,5.95-6.28C311.23,198.64,311.27,195.56,311.1,192.85z"/>
				<path class="st21" d="M305.9,197c-0.38-5.92-3.09-11.03-9.75-11.03c-0.17,0-20.44,0-21.92,0c0,0-0.04,0-0.1,0
					c-1.48,0-38.06,0-38.23,0c-6.67,0-9.37,5.1-9.75,11.03c-0.17,2.71-0.13,5.8,0.73,8.4c0.48,1.47,5.95,6.52,5.95,6.27
					c0,0,0,45.58,0,45.58s-1.55,9.78,9.76,9.75h31.54h0.1h15.24c10.72,0.73,9.76-9.75,9.76-9.75s0-45.58,0-45.58
					c0,0.25,5.46-4.81,5.95-6.27C306.03,202.8,306.07,199.71,305.9,197z"/>
				<path class="st21" d="M303.51,198.77c-0.36-5.57-2.9-10.37-9.17-10.37c-0.17,0-19.21,0-20.61,0c0,0-0.04,0-0.09,0
					c-1.39,0-35.78,0-35.94,0c-6.27,0-8.81,4.8-9.17,10.37c-0.17,2.55-0.12,2.19,0.69,4.64c0.45,1.38,5.59,6.13,5.59,5.9v46.11
					c0,0-1.46,9.19,9.18,9.16h29.65h0.09h14.32c10.07,0.68,9.17-9.16,9.17-9.16V209.3c0,0.23,5.14-4.52,5.59-5.9
					C303.63,200.96,303.67,201.32,303.51,198.77z"/>
				<path class="st21" d="M297.23,247.08c0,1.62-1.13,3.5-1.62,5.17c-0.52,1.76-0.77,3.22-2.49,4.18c-3.99,2.21-9.65,2.36-14,2.2
					c-6.56-0.24-13.67,1.04-20.04-1.05c-7.66-2.53-9.19-10.44-9.27-17.64c-0.08-7.42,1.18-14.88,1.52-22.29
					c0.2-4.29-0.78-6.58-3.62-9.68c-5.85-6.38-4.42-15.73,1.99-19.56h-11.99c-6.27,0-8.81,4.8-9.17,10.37
					c-0.17,2.55-0.12,2.19,0.69,4.64c0.45,1.38,5.59,6.13,5.59,5.9v46.11c0,0-1.46,9.19,9.18,9.16h44.07
					c10.07,0.68,9.17-9.16,9.17-9.16S297.23,252.02,297.23,247.08z"/>
				<g>
					<path class="st21" d="M288.22,202.25c0,0.96-0.77,1.73-1.73,1.73c-0.96,0-1.73-0.78-1.73-1.73c0-0.96,0.78-1.73,1.73-1.73
						C287.44,200.52,288.22,201.29,288.22,202.25z"/>
					<path class="st21" d="M294.96,198.78c0,0.96-0.77,1.73-1.73,1.73c-0.96,0-1.73-0.78-1.73-1.73c0-0.96,0.77-1.73,1.73-1.73
						C294.19,197.05,294.96,197.83,294.96,198.78z"/>
					<path class="st21" d="M294.96,205.19c0,0.96-0.77,1.73-1.73,1.73c-0.96,0-1.73-0.78-1.73-1.73c0-0.96,0.77-1.73,1.73-1.73
						C294.19,203.46,294.96,204.23,294.96,205.19z"/>
				</g>
			</g>
			<g>
				<polygon class="st20" points="223.62,271.25 223.62,164.68 282.11,111.46 287.21,111.46 299.76,164.83 299.76,273.15 				"/>
				<path class="st20" d="M294.5,270.08c-11.84,1.62-24.31-0.16-35.26-4.94c-10.3-4.5-20.48-12.31-23.56-23.63
					c-1.57-5.77-2.09-12.02-2.48-17.96c-0.46-7.08-0.45-14.23,0.51-21.27c1.67-12.27,6.52-25.42,19.56-29.14
					c7.84-2.24,16.36-2.41,24.45-1.95c7.37,0.41,15.02,1.26,22.04,3.72v-8.25c-4.09,0.85-8.23,1.47-12.39,1.83
					c-5.84,0.51-11.79,0.6-17.6-0.25c-4.53-0.67-9.38-1.86-13.05-4.75c-9.19-7.25-2.46-19.06,3.11-26.27
					c4.77-6.17,10.49-11.66,16.64-16.44c3.41-2.66,7.18-5.37,11.22-7.24l-0.48-2.06h-5.1l-58.49,53.22v106.57l76.14,1.89v-4.09
					C298.02,269.49,296.26,269.83,294.5,270.08z"/>
			</g>
			<g>
				<polygon class="st20" points="287.21,111.46 333.54,146.7 333.54,254.22 299.76,273.15 299.76,164.83 				"/>
				<path class="st20" d="M329.63,250.68c-4.89,0.79-10.44,0.92-14.96-1.44c-5.13-2.68-7.77-8.43-8.72-13.9
					c-1.44-8.32-0.13-16.64,0.44-24.96c0.76-11.21,0.02-22.75,2.07-33.83c1.38-7.49,4.89-4.53,10.86-9.4
					c4.21-3.43,9.09-5.75,14.22-7.4v-11.53c-6.59,2.97-13.99,3.76-21.27,1.11c-10.81-3.94-17.89-13.78-21.94-24.61l9.43,40.11
					v108.31l33.78-18.93v-4.38C332.25,250.19,330.95,250.47,329.63,250.68z"/>
			</g>
			<rect x="280.2" y="110.92" class="st21" width="9.26" height="2.12"/>
		</g>
		<g>
			<path class="st22" d="M140.39,188.59c0,0.94-0.76,1.71-1.7,1.71c-0.94,0-1.71-0.76-1.71-1.71c0-0.94,0.76-1.71,1.71-1.71
				C139.63,186.88,140.39,187.65,140.39,188.59z"/>
			<path class="st22" d="M136.92,287.84c0,0.94-0.76,1.71-1.71,1.71s-1.71-0.76-1.71-1.71c0-0.94,0.76-1.7,1.71-1.7
				S136.92,286.9,136.92,287.84z"/>
			<circle class="st22" cx="150.41" cy="282.72" r="1.71"/>
			<path class="st22" d="M127.85,197.77c0,0.47-0.38,0.85-0.85,0.85s-0.85-0.38-0.85-0.85s0.38-0.85,0.85-0.85
				S127.85,197.3,127.85,197.77z"/>
			<path class="st22" d="M151.03,200.82c0,0.47-0.38,0.85-0.85,0.85c-0.47,0-0.85-0.38-0.85-0.85s0.38-0.85,0.85-0.85
				C150.65,199.97,151.03,200.35,151.03,200.82z"/>
			<path class="st22" d="M128.71,208.52c0,0.47-0.38,0.85-0.85,0.85s-0.85-0.38-0.85-0.85s0.38-0.85,0.85-0.85
				S128.71,208.05,128.71,208.52z"/>
			<path class="st22" d="M127.85,285.28c0,0.47-0.38,0.85-0.85,0.85s-0.85-0.38-0.85-0.85c0-0.47,0.38-0.85,0.85-0.85
				S127.85,284.81,127.85,285.28z"/>
			<path class="st22" d="M127.85,271.23c0,0.47-0.38,0.85-0.85,0.85s-0.85-0.38-0.85-0.85c0-0.47,0.38-0.85,0.85-0.85
				S127.85,270.76,127.85,271.23z"/>
			<path class="st23" d="M161.29,205.4c0,0,1.18-13.15-6.1-18.61c-6.88-5.67-8.09-7.69-8.06-14.37v-29h-4.48h-7.91h-4.48v29
				c0.04,6.67-1.18,8.7-8.06,14.37c-7.28,5.46-6.1,18.61-6.1,18.61v81.57c0,0-1.06,10.32,9.21,10.93h9.44h7.91h9.44
				c10.27-0.61,9.21-10.93,9.21-10.93V205.4z"/>
			<path class="st24" d="M155.19,186.79c-6.88-5.67-8.09-7.69-8.06-14.37v-12.18h-16.88v12.18c0.04,6.67-1.18,8.7-8.06,14.37
				c-7.28,5.46-6.1,18.61-6.1,18.61v81.57c0,0-1.06,10.32,9.21,10.93h26.79c10.27-0.61,9.21-10.93,9.21-10.93V205.4
				C161.29,205.4,162.47,192.25,155.19,186.79z"/>
			<path class="st25" d="M116.79,292.06c0.99,2.7,3.28,5.53,8.51,5.84h26.79c5.23-0.31,7.52-3.14,8.51-5.84H116.79z"/>
			<path class="st19" d="M137.73,193.38c-1.29,0.15-2.49,0.64-3.44,1.58c-3.16,3.13-3.25,9.95-3.55,14.09
				c-0.51,7.1-0.2,14.22,0.13,21.32c0.28,6.01,0.09,12.02,0.02,18.04c-0.08,7.31,0.23,14.58-0.02,21.88
				c-0.18,5.16-0.25,12.17,6.04,13.63c3.04,0.71,7.35,1.04,9.62-1.62c1.78-2.08,2.27-4.92,2.45-7.57
				c0.82-11.94-0.48-23.93,0.7-35.86c1.35-13.62,1.26-34.65-4.51-42.63C143.67,194.15,140.43,193.08,137.73,193.38z"/>
			<g>
				<path class="st26" d="M161.29,284.12c-0.2,2.96-1.57,8.77-9.21,9.22h-9.44h-7.91h-9.44c-7.63-0.45-9-6.27-9.21-9.22v2.85
					c0,0-1.06,10.32,9.21,10.93h9.44h7.91h9.44c10.27-0.61,9.21-10.93,9.21-10.93V284.12z"/>
			</g>
			<rect x="116.02" y="215.04" class="st27" width="45.27" height="51.34"/>
			<path class="st28" d="M161.29,205.4c0,0,1.18-13.15-6.1-18.61c-3.18-2.62-5.15-4.47-6.35-6.35h0.01
				c-0.17-0.27-0.33-0.55-0.47-0.82c0,0,0-0.01,0-0.01c-0.28-0.55-0.5-1.11-0.68-1.71c0-0.01-0.01-0.03-0.01-0.04
				c-0.08-0.28-0.15-0.56-0.21-0.85c0-0.03-0.01-0.06-0.02-0.09c-0.25-1.27-0.33-2.72-0.32-4.5v-29H140v33.25h-0.02
				c-0.03,1.3-0.03,2.61,0.02,3.76v0.01l0,0c0.09,1.84,0.49,3.55,1.31,5.23c1.98,4.07,6.23,5.82,8.42,9.77
				c2.78,5,3.22,11.3,3.38,16.91l0.04,69.08c0,0-0.29,13.1-11.68,16.48h10.62c10.27-0.61,9.21-10.93,9.21-10.93V205.4z"/>
			<g>
				<path class="st29" d="M148.07,149.14v-11.38c0-0.58-0.47-1.05-1.05-1.05h-16.66c-0.58,0-1.05,0.47-1.05,1.05v11.38H148.07z"/>
				<path class="st28" d="M148.07,149.14v-11.38c0-0.58-0.47-1.05-1.05-1.05h-2.51v12.43H148.07z"/>
				<path class="st19" d="M137.34,149.14v-7.02c0-1.93-1.43-3.5-3.19-3.5c-1.77,0-3.19,1.57-3.19,3.5v7.02H137.34z"/>
			</g>
			<path class="st19" d="M135.21,180.36c-1.18,1.89-2.39,3.74-3.63,5.58c-1.22,1.85-2.5,3.65-3.76,5.47
				c-0.3,0.45-0.67,0.94-0.89,1.31c-0.26,0.43-0.52,0.88-0.76,1.32c-0.48,0.9-0.89,1.83-1.21,2.77c-0.33,0.94-0.54,1.89-0.65,2.81
				c-0.07,0.46-0.07,0.92-0.07,1.36l0.02,0.7l0.04,0.83c0.13,2.2,0.23,4.41,0.32,6.61c0.11,2.2,0.16,4.41,0.25,6.61
				c0.14,4.41,0.22,8.81,0.28,13.22l0.04,6.61l-0.02,6.61c0,2.2-0.06,4.41-0.08,6.61c-0.02,2.2-0.1,4.41-0.15,6.61
				c-0.12,4.41-0.3,8.81-0.52,13.22c-0.12,2.2-0.23,4.41-0.39,6.61l-0.46,6.61l-0.01,0.15c-0.05,0.24-0.09,0.56-0.13,0.84l-0.1,0.89
				c-0.06,0.59-0.1,1.19-0.12,1.8c-0.04,1.2,0.01,2.4,0.13,3.6c0.13,1.19,0.37,2.38,0.79,3.5c0.4,1.14,1.03,2.2,1.92,3.1
				c-0.27-0.16-0.55-0.32-0.8-0.52c-0.26-0.19-0.5-0.41-0.73-0.63c-0.23-0.23-0.45-0.47-0.66-0.72c-0.2-0.25-0.41-0.51-0.58-0.79
				c-0.73-1.1-1.25-2.32-1.66-3.56c-0.42-1.25-0.68-2.54-0.87-3.83c-0.09-0.65-0.17-1.3-0.22-1.95l-0.06-0.99
				c-0.01-0.34-0.02-0.65-0.02-1.03l-0.01,0.15l-0.46-6.61c-0.17-2.2-0.27-4.4-0.39-6.61c-0.22-4.41-0.4-8.81-0.52-13.22
				c-0.05-2.2-0.13-4.4-0.15-6.61c-0.03-2.2-0.08-4.41-0.08-6.61l-0.02-6.61l0.04-6.61c0.05-4.41,0.14-8.81,0.28-13.22
				c0.08-2.2,0.14-4.41,0.25-6.61c0.1-2.2,0.19-4.41,0.32-6.61l0.04-0.83l0.08-0.96c0.07-0.65,0.18-1.3,0.35-1.91
				c0.32-1.24,0.77-2.4,1.32-3.49c0.55-1.09,1.18-2.1,1.88-3.06c0.35-0.48,0.72-0.95,1.12-1.4c0.44-0.5,0.81-0.83,1.2-1.24
				c1.56-1.57,3.1-3.15,4.71-4.68C131.96,183.39,133.57,181.86,135.21,180.36z"/>
			<g class="st13">
				<rect x="132.6" y="149.14" class="st6" width="4" height="27.63"/>
			</g>
			<polygon class="st30" points="116.09,233.56 161.33,220.66 161.33,240.7 116.09,246.16 			"/>
			<g>
				<g>
					<path class="st6" d="M130.71,233.48c0,0.27,0.08,0.51,0.24,0.73c0.16,0.21,0.37,0.41,0.63,0.6c0.26,0.18,0.56,0.36,0.89,0.52
						c0.33,0.17,0.67,0.33,1.02,0.51c0.35,0.17,0.69,0.36,1.02,0.56c0.33,0.2,0.63,0.42,0.89,0.68c0.26,0.25,0.47,0.54,0.63,0.85
						c0.16,0.32,0.24,0.68,0.24,1.09c0,0.37-0.06,0.71-0.18,1.02c-0.12,0.31-0.28,0.59-0.49,0.84c-0.21,0.25-0.46,0.47-0.74,0.65
						c-0.28,0.19-0.59,0.35-0.92,0.47c-0.33,0.12-0.67,0.22-1.04,0.28c-0.36,0.06-0.73,0.1-1.09,0.1c-0.51,0-1.01-0.06-1.5-0.19
						c-0.48-0.13-0.92-0.32-1.3-0.57c-0.38-0.25-0.68-0.57-0.91-0.95c-0.23-0.38-0.34-0.83-0.34-1.34c0-0.26,0.04-0.49,0.13-0.69
						c0.08-0.2,0.19-0.37,0.31-0.5c0.13-0.13,0.26-0.24,0.41-0.3c0.15-0.07,0.29-0.1,0.41-0.1c0.13,0,0.24,0.04,0.33,0.11
						c0.09,0.07,0.13,0.18,0.13,0.34c0,0.07-0.01,0.14-0.02,0.22c-0.02,0.08-0.03,0.16-0.05,0.26c-0.02,0.09-0.04,0.2-0.05,0.31
						c-0.02,0.11-0.03,0.23-0.03,0.36c0,0.29,0.07,0.54,0.2,0.75c0.13,0.21,0.31,0.38,0.52,0.52c0.22,0.14,0.47,0.24,0.75,0.3
						c0.28,0.06,0.58,0.1,0.88,0.1c0.36,0,0.72-0.04,1.07-0.13c0.36-0.09,0.68-0.21,0.96-0.38c0.28-0.17,0.51-0.38,0.69-0.62
						c0.18-0.24,0.26-0.53,0.26-0.84c0-0.29-0.08-0.55-0.24-0.78c-0.16-0.23-0.37-0.45-0.63-0.64c-0.26-0.2-0.56-0.38-0.89-0.55
						c-0.33-0.17-0.67-0.35-1.02-0.53c-0.35-0.18-0.68-0.36-1.02-0.56c-0.33-0.2-0.63-0.41-0.89-0.64c-0.26-0.24-0.47-0.5-0.63-0.79
						c-0.16-0.29-0.24-0.62-0.24-0.99c0-0.35,0.08-0.69,0.25-1.02c0.17-0.34,0.42-0.64,0.75-0.9c0.34-0.27,0.75-0.48,1.26-0.65
						c0.5-0.16,1.09-0.25,1.77-0.25c0.43,0,0.85,0.06,1.26,0.19c0.41,0.13,0.77,0.31,1.09,0.54c0.32,0.24,0.58,0.52,0.78,0.84
						c0.2,0.33,0.29,0.69,0.29,1.08c0,0.24-0.04,0.48-0.12,0.72c-0.08,0.25-0.21,0.5-0.39,0.77c-0.17,0.26-0.36,0.45-0.57,0.58
						c-0.2,0.13-0.39,0.19-0.55,0.19c-0.12,0-0.22-0.04-0.3-0.11c-0.08-0.07-0.12-0.18-0.12-0.32c0-0.11,0.02-0.23,0.07-0.38
						c0.05-0.15,0.13-0.31,0.25-0.5c0.11-0.18,0.19-0.35,0.25-0.51c0.05-0.16,0.08-0.31,0.08-0.44c0-0.21-0.06-0.39-0.17-0.55
						c-0.11-0.16-0.27-0.29-0.47-0.4c-0.2-0.11-0.44-0.19-0.72-0.24c-0.28-0.05-0.59-0.08-0.92-0.08c-0.37,0-0.69,0.04-0.97,0.13
						c-0.27,0.08-0.5,0.19-0.68,0.33c-0.18,0.13-0.32,0.28-0.41,0.45C130.75,233.16,130.71,233.32,130.71,233.48z"/>
					<path class="st6" d="M141.23,236.96c0.12,0.24,0.21,0.49,0.27,0.76c0.06,0.27,0.09,0.52,0.09,0.76c0,0.24-0.03,0.49-0.08,0.74
						c-0.05,0.25-0.13,0.49-0.23,0.72c-0.1,0.23-0.22,0.45-0.37,0.65c-0.15,0.2-0.31,0.38-0.5,0.52c-0.19,0.15-0.39,0.27-0.61,0.35
						c-0.22,0.09-0.46,0.13-0.71,0.13c-0.36,0-0.67-0.08-0.93-0.24c-0.26-0.16-0.47-0.37-0.63-0.62c-0.17-0.26-0.29-0.54-0.36-0.87
						c-0.08-0.32-0.11-0.65-0.11-0.98c0-0.45,0.07-0.88,0.2-1.27c0.14-0.39,0.33-0.74,0.58-1.03c0.25-0.29,0.56-0.52,0.93-0.69
						c0.37-0.17,0.78-0.25,1.24-0.25c0.39,0,0.76,0.06,1.1,0.18c0.34,0.12,0.66,0.28,0.96,0.49c0.3,0.2,0.58,0.44,0.83,0.7
						c0.26,0.26,0.5,0.54,0.72,0.81l-0.12,0.87c-0.11-0.15-0.26-0.31-0.45-0.48c-0.19-0.17-0.39-0.34-0.6-0.51
						c-0.21-0.16-0.42-0.32-0.63-0.46c-0.21-0.15-0.38-0.27-0.53-0.37L141.23,236.96z M139.32,240.4c0.14,0,0.28-0.07,0.41-0.21
						c0.13-0.14,0.25-0.32,0.35-0.54c0.1-0.22,0.18-0.46,0.24-0.72c0.06-0.26,0.09-0.51,0.09-0.75c0-0.19-0.01-0.36-0.04-0.53
						c-0.03-0.16-0.07-0.3-0.13-0.42c-0.06-0.12-0.13-0.21-0.22-0.28c-0.09-0.07-0.2-0.11-0.33-0.11c-0.17,0-0.33,0.07-0.48,0.22
						c-0.15,0.15-0.29,0.33-0.4,0.55c-0.12,0.22-0.21,0.47-0.27,0.74c-0.06,0.27-0.1,0.53-0.1,0.78c0,0.17,0.02,0.34,0.05,0.49
						c0.03,0.15,0.08,0.29,0.16,0.4c0.07,0.11,0.16,0.2,0.28,0.27C139.02,240.37,139.16,240.4,139.32,240.4z"/>
					<path class="st6" d="M145.99,236.84c0.03-0.14,0.09-0.26,0.18-0.37c0.08-0.11,0.18-0.2,0.29-0.28
						c0.11-0.07,0.22-0.13,0.34-0.17c0.12-0.04,0.23-0.06,0.34-0.06c0.13,0,0.23,0.03,0.32,0.08c0.09,0.06,0.13,0.14,0.13,0.26
						c0,0.04-0.01,0.08-0.02,0.13c-0.02,0.11-0.06,0.25-0.09,0.44c-0.04,0.18-0.08,0.4-0.12,0.63c-0.04,0.23-0.09,0.48-0.13,0.74
						c-0.05,0.26-0.09,0.52-0.13,0.78c-0.1,0.61-0.21,1.26-0.32,1.96c0.12-0.07,0.26-0.15,0.4-0.26c0.14-0.1,0.3-0.24,0.48-0.41
						c0.18-0.17,0.38-0.39,0.59-0.65c0.22-0.26,0.46-0.59,0.74-0.98l0.3,1.37c-0.07,0.13-0.17,0.26-0.29,0.39
						c-0.12,0.13-0.25,0.27-0.39,0.4c-0.14,0.13-0.29,0.26-0.44,0.39c-0.16,0.12-0.31,0.24-0.46,0.36
						c-0.35,0.26-0.73,0.52-1.13,0.77c-0.08,0.44-0.17,0.87-0.28,1.29c-0.11,0.42-0.24,0.81-0.38,1.17c-0.15,0.37-0.31,0.7-0.5,1
						c-0.19,0.3-0.4,0.57-0.64,0.78c-0.24,0.22-0.5,0.39-0.79,0.51c-0.29,0.12-0.62,0.18-0.97,0.18c-0.14,0-0.29-0.01-0.45-0.04
						c-0.16-0.03-0.31-0.08-0.45-0.17c-0.14-0.09-0.25-0.21-0.34-0.37c-0.09-0.16-0.14-0.38-0.14-0.64c0-0.18,0.05-0.39,0.14-0.62
						c0.09-0.23,0.23-0.48,0.39-0.74c0.17-0.26,0.36-0.52,0.59-0.8c0.23-0.28,0.47-0.55,0.74-0.83c0.27-0.28,0.54-0.55,0.84-0.82
						c0.29-0.27,0.58-0.52,0.88-0.77l0.17-0.58c-0.22,0.2-0.45,0.36-0.69,0.48c-0.24,0.12-0.48,0.18-0.7,0.18
						c-0.2,0-0.39-0.04-0.58-0.12c-0.19-0.08-0.35-0.2-0.5-0.34c-0.14-0.15-0.26-0.33-0.35-0.55c-0.09-0.22-0.13-0.46-0.13-0.73
						c0-0.36,0.02-0.69,0.05-0.99c0.04-0.3,0.09-0.59,0.15-0.86c0.07-0.27,0.15-0.53,0.25-0.79c0.1-0.25,0.21-0.51,0.34-0.77
						c0.09-0.19,0.23-0.33,0.41-0.42c0.18-0.1,0.35-0.14,0.52-0.14c0.14,0,0.27,0.03,0.37,0.11c0.1,0.07,0.15,0.18,0.15,0.34
						c0,0.04-0.01,0.09-0.02,0.15c-0.01,0.05-0.03,0.11-0.05,0.17c-0.07,0.19-0.15,0.41-0.22,0.67c-0.07,0.26-0.13,0.52-0.19,0.79
						c-0.06,0.27-0.1,0.53-0.13,0.79c-0.03,0.26-0.05,0.49-0.05,0.68c0,0.1,0.01,0.2,0.02,0.3c0.01,0.1,0.04,0.18,0.08,0.26
						c0.04,0.08,0.08,0.14,0.15,0.19c0.06,0.05,0.14,0.07,0.23,0.07c0.15,0,0.29-0.07,0.41-0.2c0.12-0.13,0.23-0.29,0.32-0.48
						c0.09-0.19,0.16-0.38,0.22-0.58c0.06-0.2,0.09-0.36,0.11-0.49L145.99,236.84z M143.1,246.13c0.17,0,0.34-0.05,0.49-0.15
						c0.16-0.1,0.3-0.23,0.43-0.4c0.13-0.17,0.25-0.35,0.36-0.56c0.11-0.21,0.2-0.43,0.28-0.65c0.08-0.22,0.15-0.44,0.21-0.64
						c0.06-0.21,0.1-0.4,0.14-0.56c-0.16,0.11-0.32,0.24-0.49,0.38c-0.17,0.15-0.33,0.31-0.49,0.48c-0.16,0.17-0.31,0.35-0.45,0.53
						c-0.14,0.18-0.27,0.35-0.38,0.52c-0.11,0.17-0.19,0.32-0.25,0.46c-0.06,0.15-0.09,0.27-0.09,0.36
						C142.86,246.06,142.94,246.13,143.1,246.13z"/>
				</g>
				<g>
					<path class="st6" d="M123.87,254.94c-0.48,0.4-0.98,0.71-1.51,0.95c-0.5,0.23-1.02,0.41-1.56,0.53
						c-0.54,0.12-1.06,0.25-1.57,0.39c-0.32-0.78-0.68-1.54-1.09-2.28c-0.02-0.03,0.12-0.08,0.43-0.15
						c0.31-0.07,0.65-0.17,1.04-0.29c0.4-0.12,0.78-0.27,1.15-0.45c0.37-0.18,0.59-0.38,0.68-0.61c0.13-0.34,0.04-0.69-0.25-1.08
						c-0.28-0.33-0.51-0.58-0.67-0.76c-0.16-0.18-0.25-0.29-0.28-0.32c-0.35-0.49-0.43-1.03-0.23-1.62c0.3-0.89,1.29-1.7,2.98-2.45
						c0.72-0.32,1.49-0.6,2.29-0.84c0.88-0.26,1.75-0.46,2.63-0.62c0.2,0.73,0.37,1.48,0.51,2.24c-0.39,0.1-0.82,0.18-1.3,0.26
						c-0.48,0.08-0.9,0.19-1.25,0.33c-0.49,0.19-0.86,0.45-1.11,0.78c-0.25,0.33-0.22,0.76,0.09,1.27c0.28,0.57,0.49,1.08,0.61,1.52
						c0.13,0.45,0.02,0.98-0.32,1.6C124.77,254.01,124.35,254.54,123.87,254.94z"/>
					<path class="st6" d="M131.41,245.5l2.68-0.67L134,256.18l-0.16,0.03l-0.19,0.03l-0.17,0.03l-0.17,0.03l-0.19,0.04l-0.19,0.03
						l-0.18,0.03l-0.21,0.03l-0.19,0.03l-0.21,0.03l-0.19,0.03l-0.21,0.03l-0.21,0.04l-0.21,0.03l-0.14,0.01l-0.01-0.11l0.01-0.09
						l0.01-0.09l0.01-0.09l0.01-0.1l0.01-0.09l0.01-0.09l0.01-0.1l0.01-0.09l0.01-0.11l0.01-0.09l0.01-0.11l0.01-0.09l0.01-0.1
						l0.01-0.09l0.01-0.11l0.01-0.1l0.01-0.09l0.01-0.1l0.01-0.11l0.01-0.1l0.01-0.11l0.01-0.11l0.01-0.11l0.01-0.1l0.01-0.11
						l0.02-0.07l-2.22,0.13l-0.02,0.04l-0.01,0.02l-0.02,0.03l-0.02,0.04l-0.01,0.04l-0.02,0.04l-0.02,0.04l-0.02,0.02l-0.01,0.04
						l-0.02,0.03l-0.01,0.04l-0.02,0.02l-0.02,0.04l-0.02,0.04l-0.02,0.04l-0.02,0.02l-0.02,0.04l-0.02,0.04l-0.01,0.04l-0.02,0.04
						l-0.02,0.03l-0.01,0.02l-0.02,0.04l-0.02,0.04l-0.02,0.04l-0.02,0.04l-0.02,0.04l-0.01,0.04l-0.02,0.02l-0.02,0.04l-0.02,0.04
						l-0.02,0.02l-0.02,0.04l-0.02,0.04l-0.01,0.04l-0.02,0.04l-0.01,0.04l-0.02,0.04l-0.02,0.04l-0.02,0.02l-0.02,0.03l-0.02,0.04
						l-0.02,0.04l-0.02,0.04l-0.01,0.04l-0.02,0.04l-0.02,0.02l-0.01,0.04l-0.02,0.04l-0.02,0.04l-0.02,0.04l-0.02,0.04l-0.02,0.04
						l-0.01,0.03l-0.02,0.02l-0.02,0.03l-0.01,0.04l-0.02,0.04l-0.02,0.04l-0.02,0.04l-0.02,0.04l-0.02,0.04l-0.01,0.04l-0.01,0.03
						l-0.02,0.02l-0.02,0.04l-0.01,0.04l-0.02,0.04l-0.02,0.03l-0.02,0.04l-0.02,0.04l-0.02,0.04l-0.01,0.04l-0.01,0.04l-0.02,0.04
						l-0.02,0.04l-0.02,0.04l-0.02,0.02l-0.07,0l-0.05-0.01l-0.09-0.01l-0.06-0.01l-0.07-0.01l-0.07-0.01l-0.05-0.01l-0.09-0.01
						l-0.05-0.02l-0.07-0.01l-0.07-0.01l-0.07-0.02l-0.07-0.01l-0.06-0.01l-0.07-0.01l-0.07-0.01l-0.07-0.01l-0.07-0.01l-0.07-0.01
						l-0.07-0.01l-0.09-0.01l-0.07-0.01l-0.07-0.01l-0.07-0.01l-0.08-0.01l-0.07-0.01l-0.07-0.01l-0.07-0.01l-0.09-0.01l-0.07-0.01
						l-0.07-0.01l-0.09-0.01l-0.05-0.02L131.41,245.5z M131.41,245.5l-5.71,10.83L131.41,245.5z M131.66,249.93l-0.01-0.42
						l-0.02,0.04l-0.02,0.02l-0.02,0.04l-0.02,0.04l-0.02,0.02l-0.01,0.04l-0.02,0.02l-0.02,0.03l-0.02,0.04l-0.02,0.02l-0.01,0.04
						l-0.02,0.02l-0.02,0.04l-0.02,0.02l-0.02,0.04l-0.02,0.02l-0.02,0.04l-0.02,0.02l-0.01,0.04l-0.02,0.02l-0.02,0.04l-0.02,0.04
						l-0.02,0.02l-0.02,0.04l-0.02,0.02l-0.01,0.04l-0.02,0.02l-0.02,0.04l-0.02,0.02l-0.02,0.04l-0.02,0.04l-0.02,0.02l-0.01,0.04
						l-0.01,0.02l-0.02,0.04l-0.02,0.04l-0.02,0.02l-0.01,0.04l-0.02,0.02l-0.01,0.03l-0.02,0.02l-0.02,0.04l-0.02,0.02l-0.02,0.04
						l-0.02,0.04l-0.02,0.02l-0.01,0.03l-0.02,0.02l-0.02,0.03l-0.02,0.02l-0.02,0.03l-0.02,0.04l-0.02,0.02l-0.01,0.04l-0.02,0.04
						l-0.02,0.02l-0.02,0.03l-0.02,0.02l-0.02,0.04l-0.02,0.04l-0.02,0.02l-0.01,0.04l-0.02,0.02l-0.02,0.04l-0.02,0.02l-0.02,0.04
						l-0.02,0.04l-0.02,0.02l-0.02,0.04l-0.01,0.02l-0.02,0.03l-0.02,0.04l-0.02,0.02l-0.02,0.04l-0.02,0.02l-0.02,0.04l-0.01,0.04
						l-0.02,0.02l-0.01,0.04l-0.02,0.03l-0.02,0.04l-0.02,0.02l-0.02,0.04l-0.02,0.02l0.03,0l0.65-0.06l0.65-0.06l0.06,0l-0.01-0.05
						l-0.01-0.35l-0.01-0.39l-0.02-0.47L131.66,249.93z"/>
					<path class="st6" d="M137.35,248.63c0,0.46,0.01,0.92,0.01,1.38v1.4v1.41c0.01,0.12,0.03,0.23,0.05,0.33
						c0.02,0.08,0.04,0.14,0.05,0.18c0.02,0.04,0.04,0.08,0.06,0.12c0.02,0.04,0.04,0.08,0.06,0.12l0.09,0.12
						c0.01,0.01,0.02,0.02,0.03,0.03c0.01,0.01,0.02,0.02,0.03,0.03c0.02,0.02,0.05,0.04,0.08,0.06c0.03,0.02,0.05,0.04,0.08,0.05
						c0.07,0.03,0.11,0.05,0.13,0.06c0.03,0.01,0.06,0.02,0.08,0.03c0.02,0.01,0.06,0.02,0.11,0.03l0.02,0c0.01,0,0.02,0,0.03,0
						c0.01,0,0.04,0.01,0.06,0.01l0.04,0.01c0.01,0,0.02,0,0.04,0c0.03,0.01,0.05,0.01,0.06,0.01h0.19c0.06,0,0.1,0,0.14,0
						c0.02,0,0.05,0,0.08,0c0.03,0,0.05-0.01,0.08-0.01c0.03,0,0.07-0.01,0.1-0.01c0.03,0,0.07-0.01,0.1-0.01
						c0.1-0.02,0.17-0.04,0.22-0.05c0.05-0.01,0.09-0.02,0.13-0.04c0.03-0.01,0.06-0.02,0.1-0.04c0.03-0.01,0.07-0.03,0.1-0.04
						c0.06-0.04,0.09-0.05,0.09-0.05c0.02-0.01,0.03-0.02,0.05-0.03c0.02-0.02,0.05-0.04,0.08-0.06c0.03-0.02,0.06-0.04,0.08-0.06
						c0.02-0.02,0.04-0.04,0.06-0.05c0.01-0.02,0.03-0.03,0.04-0.05c0.01-0.02,0.03-0.03,0.05-0.05c0.01-0.02,0.03-0.04,0.04-0.06
						c0.02-0.02,0.03-0.04,0.05-0.06c0.01-0.02,0.02-0.04,0.03-0.06c0.01-0.02,0.02-0.04,0.03-0.06c0.01-0.01,0.01-0.03,0.02-0.05
						c0.01-0.02,0.02-0.03,0.02-0.05c0.01-0.02,0.03-0.06,0.05-0.12c0.01-0.03,0.02-0.07,0.04-0.13c0-0.01,0.01-0.04,0.02-0.08
						c0-0.02,0.01-0.04,0.01-0.07c0-0.02,0.01-0.04,0.02-0.07c0.01-0.06,0.02-0.12,0.03-0.18c0.01-0.06,0.02-0.12,0.03-0.19
						c0.06-0.47,0.12-0.94,0.18-1.42c0.06-0.47,0.12-0.95,0.18-1.42c0.06-0.47,0.12-0.95,0.18-1.42c0.06-0.47,0.12-0.95,0.18-1.42
						c0.36-0.16,0.71-0.32,1.07-0.48c0.36-0.16,0.72-0.33,1.08-0.49c-0.05,0.87-0.1,1.73-0.14,2.6c-0.05,0.87-0.1,1.74-0.15,2.61
						c-0.05,0.88-0.1,1.76-0.16,2.65c-0.05,0.88-0.11,1.77-0.16,2.66c-0.63,0.2-1.3,0.4-2.01,0.61c-0.01-0.17-0.02-0.34-0.03-0.51
						c-0.01-0.17-0.02-0.34-0.03-0.51c-1.9,0.89-3.28,1.13-4.11,0.73c-0.84-0.4-1.4-1.08-1.68-2.04c-0.26-0.92-0.36-1.99-0.29-3.19
						c0.08-1.21,0.1-2.23,0.08-3.08c0.22-0.08,0.43-0.15,0.65-0.23c0.22-0.08,0.44-0.15,0.65-0.24c0.4-0.14,0.84-0.3,1.31-0.47
						C137.35,247.71,137.35,248.17,137.35,248.63z"/>
					<path class="st6" d="M152.14,245.55h0.09v0.19l-0.02,0.25l-0.02,0.25l-0.02,0.23l-0.02,0.21l-0.02,0.23l-0.02,0.21l-0.02,0.19
						l-0.02,0.2l-0.02,0.19l-0.02,0.2l-0.02,0.09l-0.07,0.02l-0.07,0.02l-0.07,0.02l-0.05,0.02l-0.07,0.02l-0.07,0.02l-0.06,0.02
						l-0.07,0.02l-0.05,0.02l-0.06,0.01l-0.07,0.02l-0.05,0.02l-0.05,0.02l-0.05,0.02l-0.06,0.02l-0.05,0.02l-0.06,0.02l-0.05,0.02
						l-0.05,0.02l-0.04,0.02l-0.05,0.02l-0.05,0.02l-0.03,0.02l-0.06,0.02l-0.03,0.02l-0.05,0.02l-0.04,0.02l-0.06,0.02l-0.03,0.02
						l-0.04,0.02l-0.05,0.02l-0.03,0.02l-0.04,0.02l-0.05,0.02l-0.04,0.02l-0.03,0.02l-0.05,0.02l-0.03,0.02l-0.04,0.02l-0.04,0.02
						l-0.03,0.02l-0.04,0.02l-0.03,0.02l-0.04,0.02l-0.04,0.01l-0.04,0.02l-0.02,0.02l-0.03,0.02l-0.03,0.02l-0.04,0.02l-0.03,0.02
						l-0.04,0.02l-0.04,0.02l-0.03,0.02l-0.02,0.01l-0.04,0.02l-0.03,0.02l-0.02,0.02l-0.03,0.02l-0.02,0.02l-0.04,0.02l-0.03,0.02
						l-0.03,0.02l-0.02,0.02l-0.03,0.02l-0.02,0.02l-0.04,0.02l-0.02,0.02l-0.04,0.02l-0.04,0.02l-0.02,0.02l-0.02,0.02l-0.04,0.02
						l-0.01,0.02l-0.02,0.02l-0.04,0.02l-0.02,0.02l-0.03,0.02l-0.02,0.02l-0.02,0.02l-0.04,0.02l-0.02,0.02l-0.02,0.01l-0.02,0.02
						l-0.04,0.02l-0.02,0.02l-0.02,0.02l-0.02,0.02l-0.02,0.02l-0.04,0.01l-0.02,0.02l-0.02,0.02l-0.02,0.02l-0.02,0.02l-0.04,0.02
						l-0.01,0.02l-0.02,0.02l-0.02,0.02l-0.02,0.02l-0.02,0.01l-0.02,0.02l-0.02,0.02l-0.02,0.02l-0.02,0.02l-0.02,0.02l-0.02,0.02
						l-0.02,0.02l-0.04,0.02l-0.02,0.02l-0.02,0.04l-0.02,0.02l-0.02,0.02l-0.02,0.02l-0.02,0.02l-0.02,0.02l-0.02,0.02l-0.02,0.01
						l-0.02,0.04l-0.02,0.02l-0.02,0.02l-0.02,0.02l-0.02,0.02l-0.02,0.02l-0.02,0.04l-0.02,0.02l-0.02,0.02l-0.02,0.04l-0.02,0.02
						l-0.02,0.04l-0.02,0.01l-0.02,0.04l-0.02,0.02l-0.02,0.02l-0.02,0.03l-0.02,0.04l-0.02,0.02l-0.02,0.04l-0.02,0.02l-0.02,0.04
						l-0.01,0.04l-0.02,0.03l-0.02,0.02l-0.02,0.03l-0.02,0.04l-0.02,0.03l-0.02,0.04l-0.02,0.05l-0.02,0.04l-0.02,0.05l-0.02,0.05
						l-0.02,0.04l-0.02,0.05l-0.02,0.05l-0.02,0.07l-0.02,0.09l-0.02,0.09l-0.02,0.16v0.35l0.02,0.14l0.02,0.11l0.02,0.07l0.02,0.07
						l0.02,0.05l0.02,0.05l0.02,0.04l0.02,0.05l0.02,0.04l0.02,0.03l0.02,0.04l0.02,0.04l0.02,0.03l0.02,0.04l0.02,0.02l0.02,0.04
						l0.02,0.02l0.01,0.04l0.02,0.02l0.02,0.03l0.02,0.02l0.02,0.02l0.02,0.04l0.02,0.02l0.02,0.02l0.02,0.02l0.02,0.02l0.03,0.02
						l0.02,0.04l0.02,0.02l0.02,0.02l0.02,0.02l0.02,0.02l0.04,0.02l0.02,0.02l0.02,0.02l0.04,0.02l0.02,0.02l0.03,0.02l0.02,0.02
						l0.02,0.02l0.03,0.01l0.03,0.02l0.02,0.02l0.04,0.02l0.03,0.02l0.04,0.02l0.04,0.02l0.03,0.02l0.04,0.02l0.05,0.02l0.03,0.01
						l0.05,0.02l0.05,0.02l0.05,0.02l0.05,0.02l0.05,0.02l0.07,0.02l0.09,0.02l0.07,0.02l0.12,0.02l0.12,0.02l0.21,0.02h0.49
						l0.23-0.02l0.1-0.02l0.09-0.02l0.05-0.02l0.07-0.02l0.07-0.02l0.07-0.02l0.07-0.02l0.05-0.02l0.07-0.02l0.05-0.02l0.07-0.01
						l0.05-0.02l0.07-0.02h0.05v0.05l-0.02,0.04l-0.02,0.03l-0.02,0.04l-0.02,0.02l-0.02,0.04l-0.02,0.03l-0.02,0.04l-0.02,0.04
						l-0.02,0.03l-0.02,0.04l-0.02,0.04l-0.02,0.03L151,253.9l-0.02,0.04l-0.02,0.02l-0.02,0.04l-0.02,0.03l-0.02,0.04l-0.02,0.03
						l-0.02,0.04l-0.02,0.03l-0.02,0.03l-0.02,0.04l-0.02,0.03l-0.01,0.03l-0.02,0.04l-0.02,0.03l-0.02,0.04l-0.02,0.03l-0.02,0.02
						l-0.02,0.04l-0.01,0.04l-0.02,0.05l-0.02,0.02l-0.02,0.03l-0.02,0.04l-0.02,0.03l-0.02,0.05l-0.02,0.02l-0.02,0.03l-0.02,0.04
						l-0.02,0.03l-0.02,0.03l-0.02,0.04l-0.02,0.03l-0.02,0.04l-0.02,0.03l-0.02,0.04l-0.02,0.04l-0.02,0.03l-0.02,0.04l-0.02,0.04
						l-0.02,0.04l-0.02,0.04l-0.02,0.03l-0.02,0.04l-0.02,0.04l-0.02,0.03l-0.02,0.03l-0.01,0.04l-0.02,0.04l-0.02,0.04l-0.02,0.04
						l-0.02,0.02l-0.02,0.03l-0.02,0.04l-0.02,0.05l-0.02,0.02l-0.02,0.05l-0.02,0.02l-0.02,0.04l-0.02,0.04l-0.02,0.03l-0.02,0.03
						l-0.02,0.04l-0.02,0.03l-0.02,0.04l-0.02,0.03l-0.02,0.04l-0.02,0.05l-0.02,0.04l-0.02,0.03l-0.02,0.02l-0.02,0.06l-0.02,0.03
						l-0.02,0.03l-0.02,0.04l-0.02,0.03l-0.02,0.04l-0.02,0.03l-0.09,0.02l-0.09,0.02l-0.11,0.02l-0.1,0.02l-0.12,0.02l-0.16,0.02
						l-0.21,0.02h-0.74l-0.19-0.02l-0.16-0.02l-0.12-0.02l-0.1-0.02l-0.09-0.02l-0.09-0.02l-0.09-0.02l-0.07-0.02l-0.07-0.02
						l-0.05-0.02l-0.09-0.02l-0.06-0.02l-0.05-0.02l-0.06-0.02l-0.05-0.02l-0.05-0.02l-0.05-0.02l-0.03-0.02l-0.05-0.02l-0.05-0.02
						l-0.04-0.02l-0.05-0.02l-0.03-0.02l-0.04-0.02l-0.03-0.02l-0.05-0.02l-0.04-0.02l-0.04-0.02l-0.04-0.02l-0.03-0.02l-0.04-0.02
						l-0.03-0.02l-0.04-0.02l-0.03-0.02l-0.03-0.02l-0.02-0.02l-0.03-0.02l-0.04-0.02l-0.03-0.02l-0.02-0.02l-0.03-0.02l-0.04-0.02
						l-0.03-0.02l-0.02-0.02l-0.04-0.02l-0.02-0.02l-0.03-0.02l-0.02-0.02l-0.03-0.02l-0.02-0.02l-0.04-0.02l-0.04-0.02l-0.02-0.02
						l-0.02-0.02l-0.04-0.02l-0.02-0.02l-0.02-0.02l-0.03-0.02l-0.02-0.02l-0.02-0.01l-0.04-0.02l-0.01-0.02l-0.04-0.02l-0.02-0.02
						l-0.02-0.02l-0.02-0.02l-0.02-0.02l-0.04-0.02l-0.02-0.02l-0.02-0.02l-0.02-0.02l-0.02-0.02l-0.02-0.02l-0.02-0.02l-0.02-0.02
						l-0.02-0.02l-0.04-0.02l-0.02-0.02l-0.02-0.02l-0.02-0.02l-0.02-0.02l-0.02-0.02l-0.02-0.02l-0.03-0.02l-0.02-0.03l-0.02-0.02
						l-0.02-0.02l-0.02-0.02l-0.02-0.02l-0.02-0.02l-0.02-0.02l-0.02-0.02l-0.02-0.02l-0.02-0.01l-0.02-0.02l-0.02-0.04l-0.02-0.02
						l-0.02-0.02l-0.02-0.02l-0.02-0.02l-0.02-0.04l-0.02-0.01l-0.01-0.02l-0.02-0.02l-0.02-0.03l-0.02-0.02l-0.02-0.02l-0.02-0.01
						l-0.02-0.04l-0.02-0.02l-0.02-0.02l-0.02-0.04l-0.02-0.02l-0.02-0.04l-0.02-0.04l-0.02-0.02l-0.02-0.04l-0.02-0.02l-0.02-0.03
						l-0.02-0.02l-0.02-0.04l-0.02-0.03l-0.02-0.02l-0.01-0.04l-0.02-0.04l-0.02-0.03l-0.02-0.04l-0.02-0.03l-0.02-0.02l-0.02-0.04
						l-0.02-0.03l-0.02-0.04l-0.02-0.03l-0.02-0.05l-0.02-0.04l-0.02-0.05l-0.02-0.03l-0.02-0.04l-0.02-0.05l-0.02-0.04l-0.02-0.05
						l-0.02-0.05l-0.02-0.05l-0.02-0.05l-0.02-0.07l-0.02-0.05l-0.02-0.07l-0.01-0.05l-0.02-0.09l-0.02-0.07l-0.02-0.09l-0.02-0.11
						l-0.02-0.12l-0.02-0.18v-0.62l0.02-0.16l0.02-0.12l0.02-0.11l0.02-0.09l0.02-0.07l0.02-0.09l0.01-0.05l0.02-0.07l0.02-0.05
						l0.02-0.07l0.02-0.05l0.02-0.06l0.02-0.05l0.02-0.04l0.02-0.05l0.02-0.05l0.02-0.03l0.02-0.04l0.02-0.05l0.02-0.03l0.02-0.04
						l0.02-0.05l0.02-0.04l0.02-0.04l0.02-0.03l0.02-0.04l0.02-0.02l0.02-0.04l0.02-0.03l0.02-0.04l0.01-0.04l0.02-0.02l0.02-0.03
						l0.02-0.04l0.02-0.04l0.02-0.02l0.02-0.04l0.02-0.02l0.02-0.03l0.02-0.03l0.02-0.02l0.02-0.04l0.02-0.02l0.02-0.04l0.02-0.02
						l0.02-0.03l0.02-0.02l0.02-0.04l0.02-0.02l0.02-0.03l0.02-0.02l0.01-0.02l0.02-0.03l0.02-0.02l0.02-0.02l0.02-0.04l0.02-0.02
						l0.02-0.01l0.02-0.02l0.02-0.04l0.02-0.02l0.02-0.02l0.02-0.02l0.02-0.03l0.02-0.02l0.02-0.02l0.02-0.02l0.02-0.04l0.02-0.02
						l0.02-0.02l0.02-0.02l0.02-0.02l0.02-0.02l0.02-0.02l0.02-0.02l0.02-0.02l0.02-0.02l0.02-0.02l0.02-0.02l0.02-0.04l0.02-0.02
						h0.03v-0.03l0.02-0.02l0.02-0.02l0.02-0.02l0.02-0.03l0.04-0.01l0.02-0.02l0.02-0.02l0.02-0.02l0.02-0.02l0.02-0.02l0.02-0.02
						l0.02-0.02l0.01-0.02l0.02-0.02l0.02-0.01l0.03-0.02l0.02-0.02l0.02-0.02l0.02-0.02l0.02-0.02l0.02-0.02l0.02-0.02h0.03v-0.04
						l0.04-0.02l0.02-0.02l0.02-0.02l0.02-0.02l0.01-0.02l0.02-0.02l0.04-0.02l0.02-0.02l0.02-0.02l0.02-0.02l0.03-0.02l0.02-0.02
						l0.01-0.02l0.02-0.02l0.04-0.02l0.02-0.02l0.02-0.02l0.02-0.02l0.03-0.02l0.02-0.02l0.02-0.02l0.04-0.02l0.02-0.02l0.02-0.02
						l0.02-0.02l0.03-0.01l0.02-0.02l0.02-0.02l0.03-0.02l0.02-0.02l0.03-0.02l0.02-0.02l0.04-0.02l0.02-0.02l0.04-0.02l0.02-0.01
						l0.02-0.02l0.04-0.02l0.01-0.02l0.02-0.02l0.04-0.02l0.02-0.02l0.03-0.02l0.02-0.02l0.04-0.02l0.01-0.02l0.04-0.02l0.02-0.02
						l0.04-0.02l0.02-0.02l0.04-0.02l0.02-0.02l0.03-0.02l0.02-0.02l0.04-0.02l0.04-0.02l0.02-0.02l0.04-0.02l0.02-0.02l0.03-0.02
						l0.04-0.02l0.02-0.02l0.04-0.02l0.03-0.02l0.02-0.02l0.03-0.02l0.04-0.02l0.01-0.02l0.04-0.02l0.03-0.02l0.04-0.01l0.02-0.02
						l0.04-0.02l0.03-0.02l0.03-0.02l0.02-0.02l0.05-0.02l0.02-0.02l0.04-0.02l0.03-0.02l0.04-0.01l0.02-0.02l0.03-0.02l0.04-0.02
						l0.04-0.02l0.03-0.02l0.04-0.02l0.03-0.02l0.03-0.02l0.04-0.02l0.03-0.02l0.03-0.02l0.04-0.02l0.03-0.02l0.04-0.02l0.04-0.02
						l0.03-0.02l0.03-0.02l0.04-0.02l0.03-0.02l0.05-0.02l0.04-0.02l0.03-0.02l0.03-0.02l0.04-0.02l0.03-0.02l0.04-0.02l0.04-0.02
						l0.05-0.01l0.03-0.02l0.04-0.02l0.05-0.02l0.03-0.02l0.04-0.02l0.03-0.02l0.05-0.01l0.03-0.02l0.05-0.02l0.04-0.02l0.05-0.02
						l0.04-0.02l0.05-0.02l0.04-0.02l0.05-0.02l0.04-0.02l0.05-0.02l0.04-0.02l0.06-0.02l0.05-0.02l0.04-0.02l0.05-0.02l0.05-0.02
						l0.04-0.02l0.05-0.02l0.05-0.02l0.05-0.02l0.05-0.02l0.05-0.02l0.05-0.02l0.06-0.02l0.05-0.02l0.06-0.02l0.05-0.02l0.05-0.02
						l0.05-0.02l0.05-0.02l0.06-0.02l0.07-0.02l0.05-0.02l0.06-0.02l0.05-0.02l0.07-0.02l0.06-0.02l0.07-0.01l0.07-0.02l0.05-0.02
						l0.07-0.02l0.07-0.02l0.05-0.02l0.09-0.02l0.07-0.02l0.07-0.02l0.07-0.02l0.07-0.02l0.09-0.02l0.07-0.02l0.07-0.02l0.09-0.02
						l0.09-0.02l0.09-0.02l0.09-0.02l0.09-0.02L152.14,245.55z"/>
					<path class="st6" d="M159.29,245.46h0.05v0.05l-0.02,0.05l-0.02,0.07l-0.02,0.05l-0.02,0.05l-0.02,0.05l-0.02,0.07l-0.01,0.07
						l-0.02,0.05l-0.02,0.06l-0.02,0.07l-0.02,0.05l-0.02,0.06l-0.02,0.07l-0.02,0.05l-0.02,0.06l-0.02,0.07l-0.02,0.05l-0.02,0.07
						l-0.02,0.05l-0.02,0.05l-0.02,0.07l-0.02,0.05l-0.02,0.07l-0.02,0.05l-0.02,0.05l-0.02,0.07l-0.02,0.07l-0.02,0.06l-0.02,0.05
						l-0.02,0.07l-0.02,0.05l-0.02,0.07l-0.02,0.05l-0.02,0.05l-0.01,0.07l-0.02,0.05l-0.02,0.07l-0.02,0.01l-0.02,0.02l-0.07,0.02
						l-0.07,0.02l-0.05,0.02l-0.07,0.02l-0.07,0.02l-0.07,0.02l-0.05,0.02l-0.07,0.02l-0.05,0.01l-0.07,0.02l-0.06,0.02l-0.09,0.02
						l-0.05,0.02l-0.05,0.02l-0.07,0.02l-0.07,0.01l-0.07,0.02l-0.05,0.02l-0.07,0.02l-0.07,0.02l-0.05,0.02l-0.07,0.02l-0.05,0.02
						l-0.07,0.02l-0.07,0.02l-0.07,0.01l-0.06,0.02l-0.07,0.02l-0.07,0.02l-0.05,0.02l-0.07,0.02l-0.07,0.02l-0.07,0.02l-0.06,0.02
						l-0.07,0.02l-0.05,0.02l-0.07,0.02l-0.07,0.02l-0.07,0.02l-0.07,0.02l-0.05,0.02l-0.07,0.02l-0.07,0.02l-0.05,0.02l-0.07,0.02
						l-0.07,0.02l-0.07,0.02l-0.05,0.02l-0.07,0.02l-0.07,0.02l-0.05,0.02l-0.07,0.02l-0.07,0.02l-0.07,0.01l-0.05,0.02l-0.07,0.02
						l-0.07,0.02l-0.05,0.02l-0.07,0.02l-0.07,0.02l-0.07,0.01l-0.05,0.02l-0.07,0.02l-0.07,0.02l-0.07,0.02l-0.02,0.14l-0.01,0.13
						l-0.02,0.14l-0.02,0.12l-0.02,0.14l-0.02,0.14l-0.02,0.12l-0.02,0.14l-0.02,0.14l-0.02,0.12l-0.02,0.16l-0.01,0.12l-0.02,0.14
						l-0.02,0.03l0.22-0.02l0.3-0.02l0.28-0.02l0.32-0.02l0.3-0.02l0.3-0.02l0.3-0.01l0.32-0.02l0.32-0.02l0.32-0.02l0.31-0.02
						l0.33-0.02h0.09v0.09l-0.02,0.09l-0.02,0.07l-0.02,0.07l-0.02,0.07l-0.02,0.09l-0.02,0.07l-0.02,0.07l-0.02,0.09l-0.02,0.07
						l-0.02,0.07l-0.02,0.09l-0.02,0.07l-0.02,0.07l-0.02,0.08l-0.02,0.07l-0.02,0.07l-0.02,0.08l-0.02,0.07l-0.02,0.09l-0.09,0.02
						l-0.1,0.02l-0.09,0.02l-0.09,0.02l-0.09,0.02l-0.09,0.02l-0.1,0.02l-0.09,0.02l-0.09,0.02l-0.11,0.02l-0.09,0.02l-0.09,0.02
						l-0.09,0.02l-0.11,0.02l-0.09,0.02l-0.09,0.02l-0.1,0.02l-0.09,0.02l-0.09,0.02l-0.11,0.02l-0.09,0.02l-0.1,0.02l-0.09,0.02
						l-0.09,0.02l-0.11,0.02l-0.09,0.01l-0.09,0.02l-0.11,0.02l-0.09,0.02l-0.09,0.02l-0.1,0.02l-0.09,0.02l-0.1,0.02l-0.09,0.02
						h-0.03l0.02,0.1l0.02,0.62l0.02,0.76l0.02,0.37l0.12-0.02l0.12-0.02l0.12-0.02l0.1-0.02l0.12-0.02l0.12-0.02l0.12-0.02
						l0.12-0.02l0.12-0.02l0.1-0.02l0.12-0.02l0.12-0.02l0.12-0.02l0.1-0.01l0.12-0.02l0.12-0.02l0.11-0.02l0.12-0.02l0.1-0.02
						l0.12-0.02l0.12-0.02l0.1-0.02l0.12-0.02l0.1-0.01l0.12-0.02l0.1-0.02l0.11-0.02l0.12-0.02l0.1-0.02l0.12-0.02l0.11-0.02h0.05
						v0.09l-0.02,0.12l-0.02,0.12l-0.02,0.12l-0.02,0.12l-0.02,0.12l-0.02,0.12l-0.01,0.12l-0.02,0.12l-0.02,0.11l-0.02,0.14
						l-0.02,0.1l-0.02,0.12l-0.02,0.13l-0.02,0.1l-0.02,0.12l-0.02,0.12l-0.02,0.11l-0.02,0.12l-0.02,0.05l-0.07,0.02l-0.21,0.02
						l-0.21,0.02l-0.21,0.02l-0.21,0.02l-0.21,0.02l-0.23,0.02l-0.21,0.02l-0.21,0.02l-0.23,0.02l-0.23,0.02l-0.23,0.01l-0.21,0.02
						l-0.25,0.02l-0.23,0.02l-0.23,0.02l-0.24,0.02l-0.25,0.02l-0.25,0.02l-0.24,0.02l-0.25,0.02l-0.25,0.01l-0.26,0.02l-0.24,0.02
						l-0.26,0.02l-0.25,0.02l-0.26,0.02h-0.19v-4.33l0.02-3.97l0.02-0.88l0.06-0.02l0.07-0.02l0.07-0.02l0.07-0.02l0.07-0.02
						l0.07-0.02l0.05-0.01l0.07-0.02l0.07-0.02l0.07-0.02l0.07-0.02l0.07-0.02l0.07-0.02l0.07-0.02l0.07-0.02l0.05-0.02l0.07-0.01
						l0.07-0.02l0.07-0.02l0.07-0.02l0.05-0.02l0.09-0.02l0.07-0.02l0.07-0.01l0.05-0.02l0.07-0.02l0.07-0.02l0.07-0.02l0.07-0.02
						l0.07-0.02l0.05-0.02l0.07-0.02l0.07-0.02l0.07-0.01l0.07-0.02l0.07-0.02l0.05-0.02l0.07-0.02l0.07-0.02l0.07-0.02l0.07-0.02
						l0.07-0.02l0.05-0.02l0.07-0.02l0.07-0.02l0.07-0.02l0.07-0.02l0.05-0.02l0.07-0.02l0.07-0.02l0.07-0.02l0.07-0.02l0.06-0.02
						l0.07-0.02l0.07-0.02l0.07-0.02l0.05-0.02l0.09-0.02l0.05-0.02l0.07-0.02l0.07-0.02l0.07-0.01l0.05-0.02l0.07-0.02l0.07-0.02
						l0.07-0.02l0.05-0.02l0.07-0.02l0.07-0.01l0.07-0.02l0.07-0.02l0.05-0.02l0.07-0.02l0.07-0.02l0.07-0.02l0.05-0.02l0.07-0.02
						l0.07-0.02l0.07-0.01l0.06-0.02l0.07-0.02l0.07-0.02l0.05-0.02l0.07-0.02l0.07-0.02l0.07-0.02l0.05-0.02l0.07-0.02l0.07-0.02
						l0.07-0.02l0.07-0.02l0.05-0.02l0.07-0.02l0.07-0.02l0.05-0.02l0.07-0.02l0.07-0.02l0.07-0.02l0.05-0.02l0.07-0.02l0.07-0.02
						l0.07-0.02l0.05-0.02l0.07-0.02l0.07-0.02l0.05-0.02l0.07-0.02l0.07-0.02l0.07-0.02l0.05-0.02l0.07-0.02l0.05-0.02l0.07-0.02
						l0.07-0.01l0.07-0.02l0.07-0.02l0.05-0.02L159.29,245.46z"/>
				</g>
			</g>
		</g>
		<g>
			<path class="st31" d="M323.76,171.4v-49.48H306.7v49.48c-9.66,3.79-16.56,13.73-16.56,24.59v95.58c0,0,0,8.65,25.09,8.65
				c0,0,22.58,0.16,25.1-8.65v-95.58C340.32,185.13,333.42,175.19,323.76,171.4z"/>
			<path class="st32" d="M315.81,184.06c-3.33,4.02-7.17,14.74,0.24,16.86c5.17,1.48,14.56,1.71,18.38-2.94
				C343.5,186.96,324.64,173.42,315.81,184.06z"/>
			<path class="st31" d="M299.41,273.59c0.51,11.51,5.18,11.28,17.55,11.28c7.14,0,14.73,1.2,20.22-3.36
				c1.19-0.99,2.23-2.11,3.15-3.32v13.37c-2.51,8.81-25.1,8.65-25.1,8.65c-25.09,0-25.09-8.65-25.09-8.65v-95.58
				c0-10.86,6.9-20.8,16.56-24.59v-49.48h8.53v54.63c-0.08,0.05-0.14,0.16-0.24,0.17c-3.96,0.24-9.29,0.61-12.57,5.85
				c-2.57,4.1-2.72,9.01-2.75,13.71L299.41,273.59z"/>
			<rect x="290.13" y="214.1" class="st33" width="50.19" height="47.18"/>
			
				<ellipse transform="matrix(0.2298 -0.9732 0.9732 0.2298 5.9321 491.5989)" class="st6" cx="313.55" cy="242.05" rx="16.57" ry="16.57"/>
			<g>
				<path class="st34" d="M306.51,235.11c-1.73,0.32-3.42,2.93-3.83,4.46c-0.54,2.01-0.17,4.28,0.4,6.25
					c2.84,9.85,16.02,10.81,20.15,2.62c1.98-3.92,2.55-11.38-2.4-13.47c-2.64-1.11-5.38,0.36-8.07,0.25
					C310.64,235.11,308.62,234.71,306.51,235.11z"/>
				<path class="st35" d="M314.96,251.7c-1.99-0.36-4.46-1.38-5.14-3.5c-0.51-1.58-0.32-3.68,1.5-4.21
					c0.51-0.15,1.04-0.25,1.55-0.42c0.3-0.1,0.6-0.19,0.87-0.35c0.23-0.15,1.34-0.87,0.12-1.13c-1.25-0.27-2.48,0.25-3.73,0.26
					c-1.52,0.01-3.06-0.83-2.37-2.53c0.75-1.84,2.78-2.41,4.57-2.57c1.72-0.16,3.56-0.16,5.04-1.19c0.28-0.2,1.27-0.92,1-1.5
					c-1.86,0.06-3.75,0.74-5.61,0.66c-2.11-0.09-4.13-0.49-6.24-0.1c-1.73,0.32-3.42,2.93-3.83,4.46c-0.54,2.01-0.17,4.28,0.4,6.25
					c2.84,9.85,16.02,10.81,20.15,2.62c0.03-0.07,0.07-0.14,0.1-0.21C321.42,250.75,318.37,252.31,314.96,251.7z"/>
				<path class="st32" d="M321.84,239.22c0.67,1.6,0.36,3.25-0.7,3.7c-1.06,0.45-2.47-0.48-3.15-2.07c-0.67-1.6-0.36-3.25,0.7-3.7
					C319.76,236.7,321.17,237.63,321.84,239.22z"/>
				<path class="st32" d="M320.88,244.45c0.24,0.57,0,1.22-0.53,1.44c-0.53,0.23-1.16-0.06-1.4-0.62c-0.24-0.57-0.01-1.22,0.52-1.44
					C320.01,243.6,320.64,243.88,320.88,244.45z"/>
				<g>
					<path class="st36" d="M315.19,235.61c0.07,0.38-0.31,0.76-0.84,0.86c-0.53,0.09-1.02-0.14-1.08-0.52
						c-0.07-0.38,0.31-0.76,0.84-0.86C314.64,235,315.13,235.24,315.19,235.61z"/>
					<g>
						<path class="st37" d="M313.64,235.99c0,0-2.86,2.88-5.79,1.58c0,0,3.89,2.59,6.36-1.29L313.64,235.99z"/>
						<path class="st37" d="M313.78,235.59c0,0-3.99,0.76-5.67-1.98c0,0,1.75,4.34,5.98,2.54L313.78,235.59z"/>
						<path class="st37" d="M314.26,235.94c0,0,2.53,3.17,5.59,2.2c0,0-4.15,2.15-6.19-1.97L314.26,235.94z"/>
						<path class="st37" d="M314.34,235.57c0,0,4.03,0.44,5.5-2.41c0,0-1.4,4.46-5.76,3L314.34,235.57z"/>
						<path class="st37" d="M313.64,235.99c0,0-2.78-0.87-5.03-3.57c0,0,3.56,1.38,5.41,3.16L313.64,235.99z"/>
						<path class="st37" d="M314.02,235.58c0,0,1.99-2.66,4.57-4.57c0,0-1.42,3.41-4.3,4.76L314.02,235.58z"/>
					</g>
					<path class="st38" d="M314.3,236.18c-0.26-3.26,2.25-5.23,2.25-5.23c-1.04-0.18-1.41-0.75-1.41-0.75
						c-1.86,2.34-1.64,6.13-1.64,6.13s-0.02,0.34,0.42,0.31C313.92,236.63,314.34,236.65,314.3,236.18z"/>
					<path class="st11" d="M313.87,235.91c-0.39-0.46-0.11-1.39,0-1.9c0.29-1.33,1.05-2.5,2.32-3.05c0.12-0.05,0.24-0.05,0.34-0.01
						c0.01-0.01,0.01-0.01,0.01-0.01c-1.04-0.18-1.41-0.75-1.41-0.75c-1.86,2.34-1.64,6.13-1.64,6.13s-0.02,0.34,0.42,0.31
						c0,0,0.42,0.02,0.38-0.46c0-0.01,0-0.02,0-0.03C314.14,236.12,313.99,236.05,313.87,235.91z"/>
					<path class="st37" d="M316.55,230.94c-0.06,0.12-0.43,0.05-0.82-0.15c-0.39-0.2-0.66-0.46-0.6-0.58
						c0.06-0.12,0.43-0.05,0.82,0.15C316.34,230.57,316.61,230.83,316.55,230.94z"/>
				</g>
			</g>
			<g>
				<path class="st34" d="M295.48,218.91c0-0.38,0.08-0.71,0.23-1c0.16-0.28,0.38-0.52,0.66-0.73c0.28-0.2,0.63-0.36,1.02-0.49
					c0.4-0.13,0.83-0.23,1.31-0.3c0.48-0.07,0.99-0.12,1.53-0.15c0.54-0.03,1.11-0.04,1.69-0.04c0.79,0,1.62,0.03,2.48,0.1
					c0.86,0.06,1.77,0.18,2.71,0.35c0.22,0.04,0.37,0.13,0.46,0.25c0.09,0.12,0.13,0.25,0.13,0.4c0,0.09-0.02,0.18-0.06,0.26
					c-0.04,0.08-0.09,0.17-0.16,0.24c-0.07,0.07-0.15,0.13-0.24,0.17c-0.09,0.04-0.19,0.06-0.29,0.06c-0.35,0-0.71-0.02-1.09-0.05
					c-0.38-0.04-0.77-0.08-1.19-0.12c-0.41-0.04-0.84-0.09-1.27-0.14c-0.44-0.05-0.89-0.08-1.35-0.1c-0.08,0.51-0.19,1.06-0.31,1.64
					c-0.13,0.59-0.27,1.19-0.42,1.8c-0.15,0.61-0.31,1.22-0.48,1.83c-0.17,0.61-0.33,1.19-0.48,1.74c-0.15,0.55-0.3,1.06-0.43,1.53
					c-0.13,0.47-0.24,0.87-0.33,1.21c-0.04,0.15-0.09,0.3-0.17,0.43c-0.08,0.13-0.16,0.24-0.25,0.34c-0.09,0.1-0.19,0.17-0.29,0.22
					c-0.1,0.05-0.19,0.08-0.28,0.08c-0.26,0-0.47-0.06-0.64-0.18c-0.17-0.12-0.25-0.32-0.25-0.59c0-0.09,0.01-0.18,0.04-0.29
					c0.06-0.41,0.14-0.82,0.24-1.22c0.1-0.4,0.21-0.82,0.34-1.25c0.13-0.43,0.28-0.89,0.45-1.38c0.17-0.48,0.35-1.02,0.56-1.6
					c0.21-0.58,0.43-1.23,0.66-1.93c0.24-0.71,0.5-1.49,0.77-2.35c-0.24,0.02-0.48,0.04-0.73,0.06c-0.25,0.02-0.49,0.05-0.72,0.09
					c-0.23,0.04-0.45,0.09-0.65,0.15c-0.2,0.06-0.38,0.13-0.53,0.23c-0.15,0.09-0.27,0.2-0.36,0.33c-0.09,0.13-0.13,0.28-0.13,0.45
					c0,0.01-0.01,0.06-0.02,0.15c-0.01,0.09-0.05,0.19-0.12,0.3c-0.07,0.11-0.18,0.2-0.32,0.29s-0.36,0.13-0.63,0.13
					c-0.27,0-0.48-0.05-0.63-0.14c-0.15-0.09-0.26-0.19-0.33-0.3C295.54,219.22,295.49,219.08,295.48,218.91z"/>
				<path class="st34" d="M307.03,222.87c0.13,0.26,0.23,0.54,0.3,0.84c0.06,0.29,0.1,0.57,0.1,0.84c0,0.27-0.03,0.54-0.09,0.81
					c-0.06,0.27-0.14,0.54-0.25,0.79c-0.11,0.25-0.25,0.49-0.41,0.71c-0.16,0.22-0.34,0.42-0.55,0.58
					c-0.21,0.16-0.43,0.29-0.68,0.39c-0.25,0.1-0.51,0.14-0.78,0.14c-0.4,0-0.74-0.09-1.03-0.26c-0.28-0.17-0.52-0.4-0.7-0.68
					c-0.18-0.28-0.31-0.6-0.4-0.95c-0.08-0.36-0.13-0.71-0.13-1.08c0-0.5,0.08-0.97,0.23-1.4c0.15-0.43,0.36-0.81,0.64-1.13
					c0.28-0.32,0.62-0.57,1.03-0.76c0.4-0.18,0.86-0.28,1.36-0.28c0.43,0,0.83,0.07,1.21,0.2c0.38,0.13,0.73,0.31,1.06,0.54
					c0.33,0.22,0.64,0.48,0.92,0.77s0.55,0.59,0.79,0.9l-0.13,0.96c-0.12-0.16-0.29-0.34-0.5-0.53c-0.21-0.19-0.43-0.38-0.66-0.56
					c-0.23-0.18-0.47-0.35-0.69-0.51c-0.23-0.16-0.42-0.3-0.59-0.4L307.03,222.87z M304.93,226.67c0.15,0,0.3-0.08,0.45-0.24
					c0.14-0.16,0.27-0.35,0.38-0.59c0.11-0.24,0.2-0.5,0.26-0.79c0.07-0.29,0.1-0.56,0.1-0.83c0-0.21-0.02-0.4-0.05-0.58
					c-0.03-0.18-0.08-0.33-0.14-0.47c-0.06-0.13-0.15-0.24-0.25-0.31c-0.1-0.08-0.22-0.12-0.36-0.12c-0.19,0-0.36,0.08-0.53,0.24
					c-0.17,0.16-0.32,0.36-0.44,0.61c-0.13,0.25-0.23,0.52-0.3,0.82c-0.07,0.3-0.11,0.59-0.11,0.86c0,0.19,0.02,0.37,0.05,0.54
					c0.04,0.17,0.09,0.32,0.17,0.44c0.08,0.13,0.18,0.22,0.31,0.3C304.6,226.63,304.75,226.67,304.93,226.67z"/>
				<path class="st34" d="M311.63,226.7c0-0.06,0-0.14,0.01-0.25c0.01-0.11,0.02-0.24,0.04-0.38c0.02-0.14,0.04-0.29,0.06-0.45
					c0.02-0.16,0.05-0.31,0.07-0.47c0.05-0.37,0.11-0.76,0.18-1.17h-0.1c-0.06,0.07-0.12,0.17-0.19,0.3
					c-0.07,0.14-0.17,0.34-0.3,0.6c-0.13,0.26-0.29,0.61-0.49,1.03c-0.2,0.42-0.45,0.95-0.77,1.58c-0.09,0.19-0.2,0.31-0.32,0.38
					c-0.12,0.06-0.25,0.1-0.4,0.1c-0.19,0-0.34-0.04-0.45-0.12c-0.11-0.08-0.2-0.19-0.26-0.32c-0.06-0.13-0.1-0.29-0.12-0.46
					c-0.02-0.17-0.03-0.34-0.03-0.53c0-0.18,0.01-0.41,0.03-0.66c0.02-0.25,0.05-0.52,0.09-0.8c0.04-0.28,0.08-0.57,0.13-0.86
					c0.05-0.29,0.1-0.57,0.15-0.84c0.05-0.27,0.11-0.51,0.16-0.74c0.05-0.22,0.1-0.4,0.15-0.55c0.05-0.14,0.09-0.26,0.13-0.35
					c0.04-0.09,0.09-0.15,0.14-0.2c0.05-0.05,0.12-0.08,0.19-0.09c0.07-0.02,0.17-0.02,0.28-0.02c0.17,0,0.31,0,0.41,0.02
					c0.1,0.01,0.17,0.04,0.22,0.08c0.05,0.04,0.08,0.11,0.09,0.19c0.01,0.08,0.01,0.19,0.01,0.33c0,0.08,0,0.17-0.01,0.27
					c-0.01,0.1-0.02,0.21-0.03,0.32c-0.01,0.11-0.03,0.23-0.04,0.35c-0.02,0.12-0.03,0.24-0.05,0.35c-0.04,0.27-0.08,0.54-0.13,0.83
					l0.08,0.08c0.01-0.01,0.06-0.1,0.15-0.26c0.09-0.16,0.2-0.35,0.33-0.57c0.13-0.22,0.27-0.46,0.42-0.7
					c0.15-0.24,0.29-0.46,0.43-0.65c0.13-0.18,0.27-0.34,0.42-0.46c0.15-0.12,0.32-0.18,0.53-0.18c0.19,0,0.35,0.06,0.49,0.17
					c0.13,0.11,0.2,0.27,0.2,0.47c0,0.18-0.01,0.34-0.04,0.5c-0.02,0.16-0.05,0.31-0.09,0.46c-0.03,0.15-0.07,0.3-0.11,0.44
					c-0.04,0.14-0.07,0.29-0.1,0.44c-0.02,0.11-0.04,0.17-0.04,0.2c0,0.03-0.01,0.04-0.01,0.05l0.08,0.08
					c0.01-0.01,0.06-0.1,0.16-0.26c0.09-0.16,0.21-0.35,0.35-0.57c0.14-0.22,0.29-0.46,0.44-0.7c0.16-0.24,0.3-0.46,0.44-0.65
					c0.13-0.18,0.26-0.34,0.4-0.46c0.13-0.12,0.29-0.19,0.48-0.19c0.21,0,0.39,0.06,0.54,0.17c0.15,0.11,0.22,0.27,0.22,0.47
					c0,0.31-0.02,0.61-0.05,0.89c-0.03,0.28-0.07,0.56-0.11,0.83c-0.04,0.27-0.08,0.55-0.11,0.83c-0.03,0.28-0.05,0.58-0.05,0.89
					c0,0.25,0.03,0.45,0.1,0.6c0.06,0.16,0.14,0.23,0.23,0.23c0.1,0,0.19-0.02,0.3-0.06c0.1-0.04,0.21-0.09,0.32-0.16
					c0.11-0.06,0.21-0.14,0.32-0.22c0.1-0.08,0.21-0.17,0.3-0.26c0.22-0.21,0.44-0.44,0.66-0.71l0.11,1.61
					c-0.2,0.16-0.4,0.32-0.6,0.5c-0.2,0.17-0.41,0.32-0.63,0.46c-0.22,0.14-0.46,0.25-0.73,0.34c-0.26,0.09-0.56,0.13-0.89,0.13
					c-0.16,0-0.3-0.05-0.41-0.16c-0.11-0.11-0.2-0.25-0.27-0.44c-0.07-0.19-0.12-0.42-0.15-0.68c-0.03-0.26-0.04-0.54-0.04-0.84
					c0-0.29,0.01-0.59,0.03-0.91c0.02-0.32,0.05-0.65,0.09-0.97h-0.1l-1.38,3.52c-0.12,0.19-0.25,0.32-0.4,0.39
					c-0.14,0.06-0.31,0.1-0.5,0.1c-0.14,0-0.26-0.04-0.35-0.12c-0.09-0.08-0.15-0.18-0.2-0.31c-0.05-0.13-0.08-0.26-0.09-0.41
					C311.64,226.99,311.63,226.84,311.63,226.7z"/>
				<path class="st34" d="M324.87,226.31c-0.1,0.15-0.25,0.32-0.42,0.51c-0.17,0.2-0.37,0.38-0.59,0.56
					c-0.22,0.18-0.45,0.33-0.7,0.45c-0.25,0.12-0.5,0.18-0.75,0.18c-0.3,0-0.55-0.1-0.75-0.29c-0.2-0.19-0.37-0.47-0.52-0.84
					c-0.11,0.13-0.24,0.26-0.4,0.39c-0.16,0.13-0.33,0.25-0.52,0.36c-0.19,0.11-0.39,0.19-0.59,0.26c-0.2,0.07-0.41,0.1-0.61,0.1
					c-0.22,0-0.43-0.04-0.64-0.13c-0.21-0.09-0.39-0.22-0.55-0.38c-0.16-0.17-0.29-0.37-0.38-0.61c-0.1-0.24-0.14-0.51-0.14-0.81
					c0-0.34,0.05-0.69,0.14-1.05c0.1-0.36,0.23-0.71,0.4-1.05c0.17-0.34,0.37-0.67,0.6-0.97c0.23-0.3,0.48-0.57,0.75-0.8
					c0.27-0.23,0.56-0.41,0.86-0.54c0.3-0.13,0.61-0.2,0.92-0.2c0.1,0,0.19,0.02,0.24,0.06c0.06,0.04,0.11,0.09,0.15,0.14
					c0.04,0.05,0.08,0.1,0.11,0.15c0.04,0.05,0.08,0.09,0.14,0.11c0.05,0.02,0.11,0.04,0.16,0.04c0.06,0.01,0.12,0.01,0.17,0.01
					c0.05,0,0.1,0,0.15,0c0.05,0,0.1,0,0.15,0c0.07,0,0.13,0.01,0.19,0.02c0.06,0.01,0.11,0.04,0.16,0.09
					c0.05,0.04,0.08,0.11,0.11,0.19c0.02,0.08,0.04,0.19,0.04,0.33c0,0.22-0.02,0.46-0.07,0.72c-0.05,0.27-0.1,0.54-0.15,0.82
					c-0.06,0.28-0.1,0.56-0.15,0.84c-0.04,0.28-0.07,0.54-0.07,0.79c0,0.21,0.02,0.38,0.06,0.5c0.04,0.12,0.12,0.18,0.25,0.18
					c0.09,0,0.19-0.02,0.3-0.07c0.1-0.05,0.21-0.11,0.32-0.19c0.11-0.08,0.21-0.16,0.32-0.26c0.11-0.1,0.21-0.2,0.3-0.3
					c0.22-0.25,0.45-0.52,0.67-0.83L324.87,226.31z M319.05,225.77c0,0.11,0.01,0.22,0.02,0.33c0.02,0.11,0.05,0.2,0.09,0.29
					c0.04,0.08,0.1,0.15,0.16,0.2c0.07,0.05,0.15,0.08,0.26,0.08c0.17,0,0.32-0.07,0.46-0.22c0.14-0.15,0.25-0.32,0.35-0.52
					c0.1-0.21,0.18-0.41,0.24-0.63c0.06-0.22,0.1-0.4,0.12-0.54l0.41-2c-0.18,0-0.37,0.05-0.54,0.14c-0.18,0.09-0.34,0.22-0.5,0.38
					c-0.16,0.16-0.3,0.34-0.43,0.54c-0.13,0.21-0.25,0.42-0.34,0.64c-0.1,0.23-0.17,0.45-0.22,0.68
					C319.08,225.36,319.05,225.57,319.05,225.77z"/>
				<path class="st34" d="M329.73,226.45c-0.44,0.25-0.82,0.48-1.16,0.67c-0.34,0.19-0.64,0.35-0.91,0.48
					c-0.26,0.13-0.5,0.22-0.71,0.29c-0.21,0.06-0.39,0.09-0.56,0.09c-0.35,0-0.65-0.1-0.91-0.31c-0.26-0.21-0.48-0.51-0.66-0.9
					c-0.18-0.39-0.31-0.87-0.4-1.43c-0.09-0.56-0.13-1.19-0.13-1.89c0-0.27,0.01-0.56,0.03-0.87c0.02-0.31,0.05-0.62,0.1-0.92
					c-0.14-0.02-0.24-0.04-0.32-0.05c-0.08-0.02-0.16-0.03-0.24-0.05c-0.08-0.02-0.19-0.03-0.32-0.05
					c-0.13-0.02-0.32-0.04-0.56-0.07c-0.11-0.01-0.19-0.04-0.25-0.08c-0.06-0.04-0.1-0.08-0.13-0.14c-0.03-0.05-0.04-0.11-0.05-0.16
					c-0.01-0.06-0.01-0.1-0.01-0.15c0-0.09,0.05-0.16,0.13-0.21c0.09-0.05,0.2-0.08,0.34-0.11c0.14-0.02,0.29-0.04,0.46-0.04
					c0.17,0,0.33,0,0.48,0c0.15,0,0.29,0.01,0.41,0.01c0.12,0,0.2,0,0.25-0.01c0.12-0.61,0.28-1.21,0.47-1.78
					c0.19-0.57,0.4-1.08,0.63-1.53c0.23-0.45,0.49-0.8,0.77-1.08c0.28-0.27,0.57-0.41,0.87-0.41c0.2,0,0.38,0.05,0.54,0.16
					c0.16,0.11,0.3,0.25,0.41,0.44c0.11,0.18,0.2,0.39,0.26,0.64c0.06,0.24,0.09,0.5,0.09,0.76c0,0.22-0.03,0.46-0.1,0.71
					c-0.06,0.25-0.15,0.5-0.26,0.76c-0.11,0.26-0.24,0.52-0.38,0.78c-0.15,0.26-0.3,0.52-0.47,0.78c0.04,0,0.11,0.01,0.2,0.01
					c0.1,0,0.21,0,0.33,0.01c0.13,0,0.26,0.01,0.41,0.02c0.14,0.01,0.29,0.01,0.42,0.02c0.14,0,0.26,0.01,0.38,0.01
					c0.12,0,0.21,0.01,0.29,0.01c0.09,0,0.16,0.05,0.2,0.14c0.04,0.09,0.06,0.2,0.06,0.33c0,0.16-0.04,0.29-0.14,0.39
					c-0.09,0.1-0.19,0.15-0.3,0.15h-2.62c-0.13,0.18-0.27,0.36-0.4,0.54c-0.13,0.17-0.26,0.33-0.37,0.47
					c-0.02,0.28-0.03,0.56-0.05,0.83c0,0.12-0.01,0.24-0.01,0.37c0,0.12-0.01,0.25-0.01,0.37c-0.01,0.12-0.01,0.24-0.01,0.35
					c0,0.11,0,0.22,0,0.31c0,0.24,0.02,0.45,0.07,0.62c0.04,0.17,0.11,0.3,0.2,0.41c0.09,0.11,0.19,0.18,0.32,0.23
					c0.13,0.05,0.27,0.07,0.42,0.07c0.09,0,0.21-0.02,0.36-0.07c0.14-0.04,0.3-0.11,0.47-0.19c0.17-0.08,0.35-0.17,0.54-0.28
					c0.19-0.11,0.37-0.23,0.56-0.36c0.18-0.13,0.36-0.27,0.53-0.41c0.17-0.14,0.32-0.29,0.45-0.44V226.45z M327.55,217.82
					c0-0.05,0-0.11-0.01-0.17c-0.01-0.06-0.02-0.12-0.04-0.17c-0.02-0.05-0.06-0.1-0.1-0.14c-0.05-0.04-0.12-0.06-0.2-0.06
					c-0.12,0-0.24,0.11-0.36,0.31c-0.12,0.21-0.24,0.48-0.35,0.8c-0.11,0.32-0.22,0.68-0.31,1.07c-0.1,0.39-0.19,0.77-0.27,1.14
					c0.07,0.01,0.14,0.02,0.2,0.02c0.07,0.01,0.14,0.01,0.21,0.02c0.13-0.23,0.28-0.48,0.42-0.75c0.15-0.27,0.28-0.54,0.4-0.8
					c0.12-0.26,0.22-0.5,0.29-0.73C327.52,218.16,327.55,217.97,327.55,217.82z"/>
				<path class="st34" d="M333.71,222.87c0.13,0.26,0.23,0.54,0.3,0.84c0.07,0.29,0.1,0.57,0.1,0.84c0,0.27-0.03,0.54-0.09,0.81
					c-0.06,0.27-0.14,0.54-0.25,0.79c-0.11,0.25-0.25,0.49-0.41,0.71c-0.16,0.22-0.34,0.42-0.55,0.58
					c-0.21,0.16-0.43,0.29-0.68,0.39c-0.24,0.1-0.51,0.14-0.78,0.14c-0.4,0-0.74-0.09-1.02-0.26c-0.28-0.17-0.52-0.4-0.7-0.68
					c-0.18-0.28-0.32-0.6-0.4-0.95c-0.08-0.36-0.13-0.71-0.13-1.08c0-0.5,0.08-0.97,0.23-1.4c0.15-0.43,0.36-0.81,0.64-1.13
					c0.28-0.32,0.62-0.57,1.03-0.76c0.4-0.18,0.86-0.28,1.36-0.28c0.43,0,0.83,0.07,1.21,0.2c0.38,0.13,0.73,0.31,1.06,0.54
					c0.33,0.22,0.64,0.48,0.92,0.77c0.28,0.29,0.55,0.59,0.79,0.9l-0.13,0.96c-0.12-0.16-0.29-0.34-0.5-0.53
					c-0.21-0.19-0.43-0.38-0.67-0.56c-0.23-0.18-0.46-0.35-0.69-0.51c-0.23-0.16-0.42-0.3-0.58-0.4L333.71,222.87z M331.6,226.67
					c0.15,0,0.3-0.08,0.45-0.24c0.15-0.16,0.27-0.35,0.38-0.59c0.11-0.24,0.2-0.5,0.26-0.79c0.07-0.29,0.1-0.56,0.1-0.83
					c0-0.21-0.02-0.4-0.05-0.58c-0.03-0.18-0.08-0.33-0.14-0.47c-0.06-0.13-0.15-0.24-0.25-0.31c-0.1-0.08-0.22-0.12-0.36-0.12
					c-0.19,0-0.37,0.08-0.53,0.24c-0.17,0.16-0.32,0.36-0.44,0.61c-0.13,0.25-0.23,0.52-0.3,0.82c-0.07,0.3-0.11,0.59-0.11,0.86
					c0,0.19,0.02,0.37,0.05,0.54c0.04,0.17,0.09,0.32,0.17,0.44c0.08,0.13,0.18,0.22,0.31,0.3
					C331.27,226.63,331.42,226.67,331.6,226.67z"/>
			</g>
			<rect x="290.13" y="264.04" class="st33" width="50.19" height="3.51"/>
			<rect x="290.13" y="207.58" class="st33" width="50.19" height="3.51"/>
			<path class="st6" d="M330.52,187.82c0,1.59-1.29,2.87-2.87,2.87c-1.59,0-2.87-1.29-2.87-2.87c0-1.59,1.29-2.87,2.87-2.87
				C329.23,184.95,330.52,186.23,330.52,187.82z"/>
			<path class="st6" d="M333.4,192.36c0,0.79-0.64,1.44-1.44,1.44c-0.79,0-1.44-0.64-1.44-1.44c0-0.79,0.64-1.44,1.44-1.44
				C332.76,190.92,333.4,191.56,333.4,192.36z"/>
			<g>
				<path class="st39" d="M325.6,126.85c0,1-0.81,1.82-1.82,1.82h-17.15c-1,0-1.82-0.81-1.82-1.82v-7.48c0-1,0.81-1.81,1.82-1.81
					h17.15c1,0,1.82,0.81,1.82,1.81V126.85z"/>
				<g>
					<path class="st40" d="M307.85,126.71c0,0.37-0.3,0.67-0.67,0.67l0,0c-0.37,0-0.67-0.3-0.67-0.67v-7.19
						c0-0.37,0.3-0.67,0.67-0.67l0,0c0.37,0,0.67,0.3,0.67,0.67V126.71z"/>
					<path class="st40" d="M310.53,126.71c0,0.37-0.3,0.67-0.67,0.67l0,0c-0.37,0-0.67-0.3-0.67-0.67v-7.19
						c0-0.37,0.3-0.67,0.67-0.67l0,0c0.37,0,0.67,0.3,0.67,0.67V126.71z"/>
					<path class="st40" d="M313.2,126.71c0,0.37-0.3,0.67-0.67,0.67l0,0c-0.37,0-0.67-0.3-0.67-0.67v-7.19
						c0-0.37,0.3-0.67,0.67-0.67l0,0c0.37,0,0.67,0.3,0.67,0.67V126.71z"/>
					<path class="st40" d="M315.88,126.71c0,0.37-0.3,0.67-0.67,0.67l0,0c-0.37,0-0.67-0.3-0.67-0.67v-7.19
						c0-0.37,0.3-0.67,0.67-0.67l0,0c0.37,0,0.67,0.3,0.67,0.67V126.71z"/>
					<path class="st40" d="M318.56,126.71c0,0.37-0.3,0.67-0.67,0.67l0,0c-0.37,0-0.67-0.3-0.67-0.67v-7.19
						c0-0.37,0.3-0.67,0.67-0.67l0,0c0.37,0,0.67,0.3,0.67,0.67V126.71z"/>
					<path class="st40" d="M321.23,126.71c0,0.37-0.3,0.67-0.67,0.67l0,0c-0.37,0-0.67-0.3-0.67-0.67v-7.19
						c0-0.37,0.3-0.67,0.67-0.67l0,0c0.37,0,0.67,0.3,0.67,0.67V126.71z"/>
					<path class="st40" d="M323.91,126.71c0,0.37-0.3,0.67-0.67,0.67l0,0c-0.37,0-0.67-0.3-0.67-0.67v-7.19
						c0-0.37,0.3-0.67,0.67-0.67l0,0c0.37,0,0.67,0.3,0.67,0.67V126.71z"/>
				</g>
			</g>
			<g class="st13">
				<path class="st6" d="M335.87,273.92c0,0.98-0.8,1.78-1.78,1.78l0,0c-0.98,0-1.78-0.79-1.78-1.78v-37.37
					c0-0.98,0.8-1.78,1.78-1.78l0,0c0.98,0,1.78,0.79,1.78,1.78V273.92z"/>
				<path class="st6" d="M335.87,278.67c0,0.98-0.8,1.78-1.78,1.78c-0.98,0-1.78-0.79-1.78-1.78c0-0.98,0.8-1.78,1.78-1.78
					C335.07,276.89,335.87,277.68,335.87,278.67z"/>
			</g>
		</g>
		<g>
			<g>
				<path class="st41" d="M226.65,180.53l-5.73-0.95l6.77-40.98c0.06-1.57,0.71-9.11,7.31-12.55c8.05-4.2,16.86-8.87,16.95-8.92
					l2.72,5.13c-0.09,0.05-8.92,4.74-16.99,8.94c-4.07,2.12-4.2,7.62-4.2,7.68l-0.04,0.47L226.65,180.53z"/>
			</g>
			<polygon class="st42" points="233.38,286.89 246.12,189.46 176.51,189.46 189.25,286.89 			"/>
			<path class="st11" d="M222.77,277.45c-5.78,0.24-13.73-0.13-17.96-4.79c-8.49-9.34-7.18-28.57-8.84-40
				c-1.14-7.85-0.4-12.22-0.22-20.18c0.12-5.28,0.49-12.08,4.52-16.05c3.28-3.23,7.54-5.43,12.15-6.96h-35.92l12.74,97.43h44.13
				l1.48-11.31C230.89,276.58,226.83,277.28,222.77,277.45z"/>
			<path class="st43" d="M251.19,187.62c0,1.17-0.95,2.12-2.13,2.12h-75.49c-1.18,0-2.13-0.95-2.13-2.12v-9.61
				c0-1.17,0.95-2.12,2.13-2.12h75.49c1.17,0,2.13,0.95,2.13,2.12V187.62z"/>
			<path class="st43" d="M239.35,174.7c0,0.66-0.53,1.19-1.18,1.19h-53.7c-0.65,0-1.18-0.53-1.18-1.19v-5.35
				c0-0.65,0.53-1.19,1.18-1.19h53.7c0.65,0,1.18,0.53,1.18,1.19V174.7z"/>
			<path class="st43" d="M180.7,184.13v-8.25h-7.13c-1.18,0-2.13,0.95-2.13,2.12v9.61c0,1.17,0.95,2.12,2.13,2.12h75.49
				c1.17,0,2.13-0.95,2.13-2.12v-3.49H180.7z"/>
			<path class="st43" d="M189.67,173.14c-0.65,0-1.19-0.53-1.19-1.19v-3.8h-4.02c-0.65,0-1.18,0.53-1.18,1.19v5.35
				c0,0.66,0.53,1.19,1.18,1.19h53.7c0.65,0,1.18-0.53,1.18-1.19v-1.55H189.67z"/>
			<polygon class="st43" points="211.31,216.64 176.51,216.64 183.28,264.61 211.31,264.61 239.35,264.61 246.12,216.64 			"/>
			<polygon class="st43" points="211.93,260.37 188.86,260.37 195.42,220.89 211.93,220.89 245.52,220.89 246.12,216.64 
				211.31,216.64 176.51,216.64 183.28,264.61 211.31,264.61 239.35,264.61 239.95,260.37 			"/>
		</g>
		<g>
			<path class="st44" d="M375.21,219.29c0,6.49-5.26,11.74-11.74,11.74H77.04c-6.49,0-11.74-5.26-11.74-11.74l0,0
				c0-6.48,5.26-11.74,11.74-11.74h286.42C369.95,207.55,375.21,212.81,375.21,219.29L375.21,219.29z"/>
			<path class="st30" d="M83.02,231.03l35.47,133.25H322l35.47-133.25H83.02z M141.25,341.85c-3.14,0-6.37-2.55-7.21-5.7
				c-6.83-25.66-13.66-51.31-20.49-76.97c-0.84-3.15,1.74-5.7,5.76-5.7c4.02,0,7.86,2.55,8.59,5.7
				c5.92,25.66,11.82,51.31,17.74,76.97C146.36,339.29,144.4,341.85,141.25,341.85z M167.58,341.85c-3.14,0-6.16-2.55-6.74-5.7
				c-4.71-25.66-9.41-51.31-14.12-76.97c-0.58-3.15,2.21-5.7,6.23-5.7c4.02,0,7.65,2.55,8.12,5.7c3.79,25.66,7.58,51.31,11.36,76.97
				C172.9,339.29,170.73,341.85,167.58,341.85z M193.92,341.85c-3.14,0-5.95-2.55-6.27-5.7c-2.58-25.66-5.16-51.31-7.75-76.97
				c-0.32-3.15,2.68-5.7,6.7-5.7c4.02,0,7.44,2.55,7.65,5.7c1.66,25.66,3.33,51.31,4.99,76.97
				C199.44,339.29,197.06,341.85,193.92,341.85z M226.05,336.14c-0.06,3.15-2.65,5.7-5.79,5.7c-3.14,0-5.74-2.55-5.8-5.7
				c-0.46-25.66-0.92-51.31-1.38-76.97c-0.06-3.15,3.16-5.7,7.17-5.7c4.02,0,7.23,2.55,7.17,5.7
				C226.96,284.83,226.5,310.49,226.05,336.14z M252.85,336.14c-0.32,3.15-3.12,5.7-6.27,5.7c-3.14,0-5.53-2.55-5.33-5.7
				c1.67-25.66,3.33-51.31,4.99-76.97c0.21-3.15,3.63-5.7,7.65-5.7c4.02,0,7.02,2.55,6.7,5.7
				C258.02,284.83,255.43,310.49,252.85,336.14z M293.78,259.18c-4.71,25.66-9.41,51.31-14.12,76.97c-0.58,3.15-3.59,5.7-6.74,5.7
				c-3.14,0-5.32-2.55-4.85-5.7c3.79-25.66,7.58-51.31,11.37-76.97c0.47-3.15,4.1-5.7,8.12-5.7
				C291.56,253.47,294.35,256.03,293.78,259.18z M306.46,336.14c-0.84,3.15-4.07,5.7-7.21,5.7c-3.14,0-5.11-2.55-4.38-5.7
				c5.92-25.66,11.82-51.31,17.74-76.97c0.72-3.15,4.57-5.7,8.59-5.7c4.02,0,6.59,2.55,5.75,5.7
				C320.12,284.83,313.29,310.49,306.46,336.14z"/>
			<polygon class="st15" points="354.93,240.61 357.48,231.03 83.02,231.03 85.57,240.61 			"/>
			<g>
				<path class="st44" d="M151.9,207.55c0,7.83-6.34,14.17-14.17,14.17c-7.83,0-14.17-6.34-14.17-14.17
					c0-7.82,6.34-14.17,14.17-14.17C145.56,193.38,151.9,199.73,151.9,207.55z"/>
				<path class="st44" d="M316.94,207.55c0,7.83-6.34,14.17-14.17,14.17c-7.82,0-14.17-6.34-14.17-14.17
					c0-7.82,6.34-14.17,14.17-14.17C310.59,193.38,316.94,199.73,316.94,207.55z"/>
			</g>
			<path class="st45" d="M143.49,208.02c-0.89,2.96-4,4.64-6.96,3.76l0,0c-2.96-0.89-4.64-4-3.75-6.96l29.2-81.71
				c0.88-2.96,4-4.64,6.96-3.75l0,0c2.96,0.89,4.64,4,3.75,6.96L143.49,208.02z"/>
			<path class="st45" d="M297.84,208.02c0.88,2.96,4,4.64,6.96,3.76l0,0c2.96-0.89,4.64-4,3.75-6.96l-29.2-81.71
				c-0.89-2.96-4-4.64-6.96-3.75l0,0c-2.96,0.89-4.64,4-3.76,6.96L297.84,208.02z"/>
		</g>
	</g>
</g>
</svg>
