<?xml version="1.0" encoding="utf-8"?>
<!-- Generator: Adobe Illustrator 23.0.1, SVG Export Plug-In . SVG Version: 6.00 Build 0)  -->
<svg version="1.1" xmlns="http://www.w3.org/2000/svg" xmlns:xlink="http://www.w3.org/1999/xlink" x="0px" y="0px"
	 viewBox="0 0 500 500" style="enable-background:new 0 0 500 500;" xml:space="preserve">
<style type="text/css">
	.st0{display:none;}
	.st1{display:inline;}
	.st2{fill:#FFF7DE;}
	.st3{fill:#FFF1CA;}
	.st4{fill:#D39822;}
	.st5{fill:#B9D366;}
	.st6{fill:#AABF52;}
	.st7{fill:#C17540;}
	.st8{fill:#D2E877;}
	.st9{fill:#A09D47;}
	.st10{fill:#8E8A39;}
	.st11{fill:#D33C3C;}
	.st12{fill:#BF3636;}
	.st13{fill:#EFC754;}
	.st14{fill:#80CE80;}
	.st15{fill:#62B562;}
	.st16{fill:#59AA59;}
	.st17{fill:#4E9350;}
	.st18{fill:#417F41;}
	.st19{fill:#B5AE59;}
	.st20{fill:#A56032;}
	.st21{fill:#8E532B;}
	.st22{fill:#FFA73E;}
	.st23{fill:#FFB666;}
	.st24{fill:#E88B25;}
	.st25{fill:#CE741B;}
	.st26{fill:#F88432;}
	.st27{fill:#F89759;}
	.st28{fill:#E1681B;}
	.st29{fill:#C75412;}
	.st30{fill:#8B59B2;}
	.st31{fill:#72489B;}
	.st32{fill:#8C8A3E;}
	.st33{fill:#383836;}
	.st34{fill:#5E8E4A;}
	.st35{fill:#4E773C;}
	.st36{fill:#F95A88;}
	.st37{fill:#DD4578;}
	.st38{fill:#E04572;}
	.st39{fill:#C43364;}
	.st40{fill:#FFCC54;}
	.st41{fill:#FBC243;}
	.st42{fill:#F7B931;}
</style>
<g id="BACKGROUND" class="st0">
	<g class="st1">
		<rect class="st2" width="500" height="500"/>
		<path class="st3" d="M468.57,463.71c-15.98,0.82-32.27-1-48.2-2.2c-17.11-1.29-34.19-3.09-51.15-5.71
			c-55.74-8.62-110.54-29.56-159.62-57.08c-22.67-12.71-45.13-27.01-63.95-45.08c-17.13-16.45-31.51-35.97-43.07-56.67
			c-23.81-42.63-36.87-90.48-46.28-138.1C46.04,106.91,40.06,52.13,52.13,0H0v500h500v-42.85
			C489.96,460.99,479.72,463.14,468.57,463.71z"/>
	</g>
</g>
<g id="OBJECTS">
	<g>
		<ellipse class="st4" cx="250.01" cy="306.06" rx="148.35" ry="38.94"/>
		<g>
			<g>
				<path class="st5" d="M259.34,182.59c-3.19-10.44-14.64-18.65-20.76-26.61c-3.16-5.8-4.2-12.79-10.11-16.71
					c-12.71-9.84-32.19,1.23-31.1,17.05c0.56,17.2-16.99,23.79-9.29,49.09C199.55,243.07,272.28,224.86,259.34,182.59z"/>
				<path class="st6" d="M257.06,196.5c-9.87,17.84-37.87,22.14-50.54,5.05c-7.74-10.44-3.92-21.7,0.59-32.52
					c1.97-4.71,3.25-8.64,2.03-13.77c-1.26-5.31-2.84-10.39-3.36-15.84c-5.29,3.73-8.91,9.84-8.43,16.91
					c0.56,17.2-16.99,23.79-9.29,49.09c10.98,36.06,78.12,20.89,72.44-17.57C259.71,190.94,258.5,193.9,257.06,196.5z"/>
				<path class="st7" d="M214.96,136.8c0.79-2.72,0.03-6.27-0.1-8.86c-0.16-3.19-0.27-5.96-3.59-7.25
					c-1.69-0.66-3.87,1.05-3.72,2.83c0.47,5.26,1.34,10.37,2.62,15.49c0.81,3.24,5.45,1.82,4.91-1.35
					C215.04,137.37,215,137.08,214.96,136.8z"/>
				<path class="st8" d="M230.88,155.28c0.8-5.07-2.82-11.66-8.53-9.79c-7.95-0.52-1.37,17.02,2.25,19.07
					C230.54,166.93,231.49,159.45,230.88,155.28z"/>
			</g>
			<g>
				<path class="st9" d="M286.33,148.43c0.11-0.71-0.52-1.29-1.21-0.95c-1.2,0.59-2.64,0.69-3.95,0.86
					c-0.96,0.13-1.91,0.26-2.84,0.5c1.38-2.11,2.29-4.51,2.88-7c0.01-0.05,0.01-0.09,0.01-0.14c0.24-0.47-0.43-1.05-0.92-0.64
					c-1.42,1.19-3.27,1.84-4.9,2.71c-1.5,0.8-3,1.58-4.41,2.53c0.5-2.65,0.43-5.47,0.41-8.09c0-0.69-0.99-1.24-1.49-0.63
					c-1.08,1.32-2.15,2.64-3.23,3.97c-1.02,1.26-2.04,2.5-2.73,3.97c-0.61,1.29-1.05,2.71-1.28,4.16c-0.15-0.18-0.31-0.36-0.48-0.52
					c-1.04-1.03-2.28-1.71-3.56-2.39c-1.07-0.57-2.39-1.15-3.02-2.25c-0.38-0.67-1.47-0.38-1.51,0.3c-0.17,0.1-0.31,0.27-0.36,0.5
					c-0.55,2.62,0.57,5.13,2.15,7.16c0.79,1.01,1.73,1.87,2.78,2.6c0.51,0.35,1.04,0.67,1.6,0.94c0.49,0.24,1.04,0.52,1.59,0.68
					c-0.02,0.19-0.04,0.38-0.06,0.56c-0.11,0.83,1.1,1.26,1.63,0.69c0.68-0.73,1.04-1.57,1.17-2.46c0.01,0,0.02,0.01,0.03,0.01
					c0.06,0.03,0.13,0.04,0.2,0.06c0.41,0.62,1.31,0.89,1.79,0.15c0.29-0.02,0.57-0.04,0.82-0.07c0.06-0.01,0.12-0.02,0.18-0.03
					c1.07,0.74,2.83,0.9,3.92,0.95c2.04,0.08,4.06-0.4,6-1c3.29-1.02,6.83-2.49,8.28-5.73
					C286.08,149.38,286.26,148.92,286.33,148.43z"/>
				<path class="st10" d="M279.88,152.23c-2.39-1.58-4.44-2.34-7.29-3.01c-1.71-0.4-1.32-0.37-2.75-0.4
					c-1.92-0.04-3.73,0.11-5.6,0.57c-1.24,0.3-2.43,0.66-3.56,1.25c-0.61,0.31-1.14,0.77-1.75,1.08c-0.61,0.72-1.4,1.26-2.29,1.61
					c0.61,0.65,1.29,1.23,2.03,1.74c0.51,0.35,1.04,0.67,1.6,0.94c0.49,0.24,1.04,0.52,1.59,0.68c-0.02,0.19-0.04,0.38-0.06,0.56
					c-0.11,0.83,1.1,1.26,1.63,0.69c0.68-0.73,1.04-1.57,1.17-2.46c0.01,0,0.02,0.01,0.03,0.01c0.06,0.03,0.13,0.04,0.2,0.06
					c0.41,0.62,1.31,0.89,1.79,0.15c0.29-0.02,0.57-0.04,0.82-0.07c0.06-0.01,0.12-0.02,0.18-0.03c1.07,0.74,2.83,0.9,3.92,0.95
					c2.04,0.08,4.06-0.4,6-1c1.45-0.45,2.95-0.99,4.3-1.72C281.23,153.14,280.63,152.72,279.88,152.23z"/>
				<path class="st11" d="M281.03,155.71c-12.11-6.48-28.32-4.63-36.6,7.03c-8.8,14.3,1.26,34.1,15.34,40.03
					C282.04,212.15,305.68,167.08,281.03,155.71z"/>
				<path class="st12" d="M256.99,176.17c-2.9-5.77-5.16-14.85-2.94-21.48c-3.73,1.77-7.05,4.44-9.61,8.05
					c-8.8,14.3,1.26,34.1,15.34,40.03c9.48,3.99,19.21-1.89,25.35-10.83C273.86,194.18,262.02,186.17,256.99,176.17z"/>
				<path class="st13" d="M254.7,162.34c0.41-1.97-2.34-2.74-3.01-0.84c-0.6,1.71-1.48,3.52-1.67,5.31
					c-0.19,1.75,2.63,2.53,3.37,0.94C254.15,166.12,254.33,164.11,254.7,162.34z"/>
				<path class="st13" d="M265.57,166.44c0.16-1.47-0.04-2.99-0.27-4.44c-0.3-1.89-3.26-1.42-3.27,0.42
					c-0.01,1.36-0.2,2.67-0.35,4.01c-0.12,1.05,0.97,1.95,1.94,1.95C264.76,168.38,265.45,167.48,265.57,166.44z"/>
				<path class="st13" d="M278.67,163.51c-0.16-2.06-3.21-2.14-3.26-0.01l-0.05,2.08c-0.02,0.74-0.12,1.53,0.1,2.25
					c0.49,1.58,2.92,1.77,3.36,0.02C279.15,166.52,278.77,164.86,278.67,163.51z"/>
				<path class="st13" d="M260.17,179.96c-0.12-1.54-0.6-2.83-0.11-4.37c0.49-1.56-2.03-2.72-2.71-1.16
					c-0.84,1.93-1.45,4.41-0.31,6.35C257.83,182.13,260.31,181.7,260.17,179.96z"/>
				<path class="st13" d="M272.76,178.41c0.51-2.22-2.7-3.12-3.41-0.95c-0.44,1.35-1.32,3.05-0.95,4.48
					c0.33,1.25,1.93,1.69,2.86,0.8C272.32,181.7,272.44,179.8,272.76,178.41z"/>
				<path class="st13" d="M266.03,189.7c0.03-0.29,0.03-0.59,0.05-0.89c0.03-0.64,0.07-1.27,0.1-1.91c0.05-0.91-0.81-1.7-1.69-1.7
					c-0.97,0-1.63,0.78-1.7,1.69c-0.09,1.19-0.38,2.55,0,3.7c0.2,0.59,0.64,1.04,1.28,1.12c0.56,0.07,1.27-0.17,1.53-0.72
					C265.8,190.57,265.98,190.18,266.03,189.7z"/>
				<path class="st13" d="M287.95,169.42c0.05-0.94-0.83-1.75-1.75-1.75c-1.03,0-1.64,0.8-1.75,1.75c-0.12,1-0.47,1.96-0.77,2.91
					c-0.27,0.85,0.23,1.8,1.03,2.13c0.75,0.31,1.87,0.11,2.25-0.71C287.61,172.36,287.88,170.94,287.95,169.42z"/>
				<path class="st13" d="M280.23,183.13c0.13-0.9-0.21-1.81-1.17-2.07c-0.82-0.23-1.91,0.27-2.07,1.17
					c-0.18,1.01-0.57,1.72-1.1,2.59c-0.97,1.59,1.26,3.42,2.58,2.05C279.45,185.85,280.03,184.53,280.23,183.13z"/>
				<path class="st13" d="M251.91,183.56c-0.29-1.21-0.65-2.39-1.02-3.58c-0.55-1.8-3.3-1.09-2.83,0.75c0.3,1.21,0.6,2.41,0.98,3.6
					C249.61,186.13,252.36,185.43,251.91,183.56z"/>
				<path class="st13" d="M258.82,192.51c-0.08-0.22-0.14-0.45-0.22-0.67c-0.06-0.18-0.14-0.35-0.22-0.53
					c-0.01-0.03-0.06-0.16-0.08-0.23c-0.08-0.23-0.14-0.46-0.19-0.7c0-0.02-0.02-0.13-0.03-0.2c0-0.09-0.02-0.31-0.02-0.31
					c-0.05-0.96-0.81-1.9-1.84-1.85c-1.02,0.04-1.83,0.81-1.85,1.84c-0.02,0.73,0.06,1.48,0.24,2.18c0.21,0.86,0.6,1.51,1.15,2.19
					c0.49,0.6,1.57,0.72,2.21,0.32C258.59,194.16,259.11,193.28,258.82,192.51z"/>
				<path class="st13" d="M272.32,192.49c-0.94-0.51-1.97-0.22-2.57,0.64c-0.15,0.21-0.3,0.43-0.45,0.64
					c-0.23,0.33-0.32,0.69-0.42,1.07c-0.18,0.7,0.11,1.57,0.77,1.93c0.27,0.15,0.57,0.23,0.88,0.24c0.47,0.02,0.84-0.22,1.2-0.49
					c0.32-0.24,0.56-0.48,0.8-0.83c0.14-0.22,0.29-0.44,0.43-0.65C273.5,194.24,273.18,192.96,272.32,192.49z"/>
			</g>
			<g>
				<path class="st14" d="M372.14,213.56c-5.58,1.23-11.2,2.8-16.27,5.54c-4.97,2.68-8.86,6.69-12.14,11.23
					c0.52-1.11,1.04-2.22,1.55-3.34c4.73-10.32,5.51-20.44,2.64-31.38c-1.2-4.58-8.23-2.64-7.09,1.95
					c2.34,9.45-0.1,18.34-3.99,26.81c1.08-10.78-2.16-21.26-6.18-31.14c-1.72-4.22-8.51-2.65-7.04,1.94
					c3.24,10.11,6.12,20.55,4.37,31.23c-0.12,0.75-0.25,1.5-0.38,2.25c-0.14-0.3-0.26-0.61-0.41-0.91
					c-4.22-8.7-11.79-13.57-19.95-18.05c-3.85-2.11-7.23,3.66-3.44,5.89c6.38,3.75,12.74,9.79,15.83,16.58
					c1.68,3.69,2.38,7.85,2.63,11.87c0.27,4.38-0.53,9.07,0.4,13.36c0.29,1.32,1.1,2.16,2.1,2.58c0.38,0.57,0.9,0.99,1.49,1.28
					c0.36,0.25,0.75,0.49,1.17,0.71c2.68,1.4,6.01,1.34,8.48-0.46c3.13-2.28,3.9-6.75,5.49-10.09c3.26-6.84,7.23-14.19,12.29-19.87
					c5.44-6.1,12.91-8.41,20.38-11.01C378.43,219,376.71,212.55,372.14,213.56z"/>
				<path class="st15" d="M328.48,221.28c1.03-0.11,2.1-0.03,3.18,0.3c0.07,0.01,0.14,0.02,0.21,0.03c0.13-0.08,0.33-0.19,0.64-0.34
					c0.8-0.75,1.97-1.26,2.95-1.7c0.51-0.23,1.04-0.4,1.57-0.54c-0.21-8.9-3.01-17.57-6.37-25.81c-1.72-4.22-8.51-2.65-7.04,1.94
					C326.34,203.65,328.8,212.37,328.48,221.28z"/>
				<path class="st15" d="M339.16,218.72c1.54-0.04,3.07,0.32,4.49,1.18c1.44,0.87,2.42,2.07,3.14,3.45
					c3.36-9.08,3.67-18.1,1.14-27.75c-1.2-4.58-8.23-2.64-7.09,1.95C342.66,204.93,341.57,211.96,339.16,218.72z"/>
				<path class="st15" d="M316.04,226.27c0.54-0.01,1.11,0.04,1.7,0.17c1.44,0.32,3.86-1.8,4.9-2.6c0.49-0.38,1-0.73,1.53-1.04
					c-4.35-5.76-10.45-9.56-16.92-13.12c-3.85-2.11-7.23,3.66-3.44,5.89C308.26,218.2,312.71,221.94,316.04,226.27z"/>
				<path class="st15" d="M372.14,213.56c-5.58,1.23-11.2,2.8-16.27,5.54c-3.12,1.68-5.81,3.89-8.2,6.42
					c0.12,0.38,0.23,0.76,0.33,1.15c0.21,0.84,0.35,1.71,0.54,2.56c0.09,0.43,0.19,0.86,0.3,1.28c1.12,0.71,2.01,1.5,3.52,1.92
					c0.16,0.04,0.32,0.08,0.47,0.12c0.28-0.34,0.56-0.69,0.85-1.01c5.44-6.1,12.91-8.41,20.38-11.01
					C378.43,219,376.71,212.55,372.14,213.56z"/>
				<path class="st16" d="M328.04,192.78c-2.11-4.21-6.41-7.1-10.99-7.6c-1.91-3.56-5.18-6.19-9.67-6.44
					c-2.06-0.11-4.01,0.37-5.7,1.27c-4.58-2.69-10.02-3.34-14.85-0.05c-3.37,2.29-5.29,6.12-5.48,10.03
					c-6.14,2.64-10.69,9.32-10.02,16.05c0.68,6.8,6.23,11.21,12.07,11c4.75,8.19,16.28,10.94,24.11,5.42
					c3.72,1.72,8.14,1.68,12.17-0.24c5.01-2.39,7.87-7.84,6.8-13.01C329.59,204.31,330.79,198.26,328.04,192.78z"/>
				<path class="st16" d="M388.51,196.8c-3.03-4.11-8.26-5.77-12.9-4.82c-1.9-4.31-5.3-7.56-10.93-7.08
					c-5.05,0.43-8.21,3.67-9.67,7.78c-4.75,0.07-9.19,2.77-11.2,7.68c-1.97,4.81-0.46,10.15,3.07,12.97
					c-0.3,3.89,1.39,7.87,4.95,10.29c4.57,3.11,10.3,2.67,14.68-0.16c7.97,4.14,20.08-0.33,20.66-9.15
					C391.97,210.28,392.67,202.44,388.51,196.8z"/>
				<path class="st17" d="M327.85,206.7c-4.57,2.43-10.2,3.03-15.37,1.69c-3.6,5.89-10.66,8.11-16.76,4.25
					c-3.23-2.04-5.7-4.98-7.3-8.35c-4.85-1.66-8.81-5.75-9.65-11.49c-0.07-0.44-0.1-0.89-0.11-1.33c-4.72,3.2-7.9,8.86-7.33,14.56
					c0.68,6.8,6.23,11.21,12.07,11c4.75,8.19,16.28,10.94,24.11,5.42c3.72,1.72,8.14,1.68,12.17-0.24c5.01-2.39,7.87-7.84,6.8-13.01
					C326.99,208.41,327.45,207.57,327.85,206.7z"/>
				<path class="st17" d="M384.02,210.66c-0.92,1.96-2.31,3.66-4.27,4.96c-2.91,1.91-6.52,2.24-9.87,1.57
					c-2.86-0.57-5.54-2.22-7.37-4.5c-4.47,0.26-8.92-0.79-12.46-3.79c-3.64-3.09-4.31-6.96-4.76-11.21
					c-0.58,0.8-1.08,1.69-1.48,2.67c-1.97,4.81-0.46,10.15,3.07,12.97c-0.3,3.89,1.39,7.87,4.95,10.29
					c4.57,3.11,10.3,2.67,14.68-0.16c7.97,4.14,20.08-0.33,20.66-9.15c1.33-1.11,2.33-2.52,3.01-4.08
					C388.2,210.72,386.1,210.87,384.02,210.66z"/>
				<path class="st17" d="M363.55,192.9c-0.61-1.01-1.39-1.92-2.29-2.71c0.14-0.15,0.29-0.28,0.43-0.43
					c3.24-3.55,3.75-7.69,2.73-12.27c-0.93-4.17-3.28-9.04-7.66-10.44c-1.83-0.58-3.71-0.61-5.52-0.24
					c-2.17-3.45-5.72-6.13-9.48-6.47c-5.84-0.52-9.93,2.48-12.76,6.69c-2.32-3.13-5.9-4.98-9.92-4.62
					c-6.47,0.57-11.96,6.2-11.94,12.07c-4.48,0.23-8.77,2.26-11.36,6.34c-4.01,6.33-1.4,16.44,5.94,17.31
					c-0.04,3.62,1.04,7.2,3.39,9.77c3.42,3.75,10.46,5.32,15.76,3.78c0.2,0.24,0.41,0.48,0.64,0.72c3.19,3.3,7.77,4.75,12.23,5.18
					c5.58,0.54,10.71-2.23,13.6-6.51c1.38,0.49,2.9,0.74,4.57,0.71c4.47-0.08,8.91-2.32,11.3-6.15
					C365.61,201.81,365.91,196.82,363.55,192.9z"/>
				<path class="st18" d="M363.34,200.56c-3.53,3.64-7.95,4.74-12.14,3.76c-3.46,2.48-7.43,4.35-11.8,4.12
					c-2.59-0.14-5.12-0.96-7.22-2.46c-0.31-0.22-0.7-0.56-1.11-0.93c-0.08,0.04-0.16,0.07-0.23,0.11c-1.82,0.86-3.61,1.2-5.62,1.36
					c-3.16,0.25-6.32-0.33-8.95-2.16c-3.52-2.44-5.25-6.64-4.9-10.85c0.05-0.64,0.18-1.25,0.34-1.85c-2.03-0.56-3.96-1.41-5.68-2.56
					c-4.56-3.05-6.49-7.87-5.58-12.7c-1.82,1.04-3.43,2.5-4.65,4.43c-4.01,6.33-1.4,16.44,5.94,17.31c-0.04,3.62,1.04,7.2,3.39,9.77
					c3.42,3.75,10.46,5.32,15.76,3.78c0.2,0.24,0.41,0.48,0.64,0.72c3.19,3.3,7.77,4.75,12.23,5.18c5.58,0.54,10.71-2.23,13.6-6.51
					c1.38,0.49,2.9,0.74,4.57,0.71c4.47-0.08,8.91-2.32,11.3-6.15c1.36-2.18,2.04-4.73,1.94-7.25
					C364.6,199.15,363.99,199.88,363.34,200.56z"/>
				<path class="st15" d="M328.75,231.91c-0.24-1.43-2.47-1.05-2.48,0.34c-0.06,7.84-2.26,15.81-1.69,23.62
					c0.1,1.42,2.16,2.28,2.91,0.79C331.25,249.16,330.06,239.88,328.75,231.91z"/>
				<path class="st15" d="M342.1,231.75c-0.89,1.49-1.77,2.97-2.63,4.46c-0.1-2.9-0.47-5.81-0.77-8.63c-0.17-1.57-2.32-1.59-2.46,0
					c-0.49,5.48-0.23,11.33-1.86,16.63c-1.29,4.2-4.18,8.07-4.07,12.63c0.03,1.21,1.95,1.98,2.5,0.68
					c1.72-4.06,4.32-7.86,5.64-12.09c2.43-3.87,4.23-8.04,6.1-12.24C345.28,231.55,343.06,230.14,342.1,231.75z"/>
			</g>
			<g>
				<path class="st9" d="M200.47,135.33c-8.31,6.01-15.79,13.28-22.25,21.23c-2.02,2.49-4.07,5.11-5.87,7.89
					c0.2-16.16-3.96-32.49-8.14-47.89c-0.46-1.68-3.34-1.63-3.81,0.02c-4.03,14.05-8.14,28.96-7.85,43.68
					c-6.01-13.05-13.5-25.4-21.26-37.52c-3.23-5.04-6.53-10.02-9.66-15.11c-0.79-1.29-3.13-0.61-3.19,0.87
					c-0.12,2.92-0.6,5.73-0.5,8.68c0.09,2.9,0.29,5.8,0.62,8.69c0.67,5.79,1.87,11.51,3.43,17.12c3.1,11.21,7.95,21.9,14.28,31.66
					c2.58,3.97,5.41,7.78,7.93,11.79c-5.95-2.79-12.15-4.97-18.78-5.67c-8.85-0.93-17.7,0.75-25.4,5.25
					c-1.83,1.07-1.25,3.66,0.97,3.6c17.72-0.49,35.95,5.97,48.21,18.97c0.12,0.18,0.27,0.34,0.43,0.48
					c0.58,0.63,1.17,1.27,1.73,1.93c1.33,1.6,3.69-0.29,2.53-1.99c-0.08-0.12-0.17-0.23-0.25-0.35
					c10.23-4.79,20.59-9.87,28.92-17.62c4.37-4.06,7.94-8.77,10.59-14.12c2.73-5.51,4.43-11.47,5.84-17.44
					c1.74-7.42,3.13-14.9,4.63-22.37C203.96,135.36,201.76,134.4,200.47,135.33z"/>
				<path class="st19" d="M114.74,182.8c2.79-1.07,5.64-1.79,8.52-2.2c-8.12-0.47-16.17,1.28-23.25,5.42
					c-1.83,1.07-1.25,3.66,0.97,3.6c2.4-0.07,4.81,0.01,7.21,0.19C109.28,186.7,111.55,184.02,114.74,182.8z"/>
				<path class="st19" d="M135.64,129.64c-1.44-2.31-2.89-4.61-4.35-6.9c-3.23-5.04-6.53-10.02-9.66-15.11
					c-0.79-1.29-3.13-0.61-3.19,0.87c-0.12,2.92-0.6,5.73-0.5,8.68c0.09,2.9,0.29,5.8,0.62,8.69c0.45,3.91,1.17,7.79,2.05,11.63
					C123.59,131.75,129.57,128.94,135.64,129.64z"/>
				<path class="st19" d="M200.47,135.33c-6.66,4.82-12.78,10.46-18.28,16.6c6.13-1.12,12.4-0.46,18.06,1.83
					c1.18-5.53,2.24-11.09,3.35-16.65C203.96,135.36,201.76,134.4,200.47,135.33z"/>
				<path class="st19" d="M156.78,131.39c5.15,0.6,9.26,4.1,12.54,7.86c0.19,0.22,0.35,0.44,0.53,0.66
					c-1.53-7.92-3.58-15.75-5.64-23.35c-0.46-1.68-3.34-1.63-3.81,0.02c-1.39,4.84-2.78,9.79-4,14.79
					C156.52,131.37,156.64,131.37,156.78,131.39z"/>
				<path class="st10" d="M198.31,154.77c-7.98,3.32-20.21,8.23-23.98,16.75c-0.46,1.03-1,1.93-1.61,2.73
					c-0.72-4.08-1.91-8.1-3.02-11.54c-1.82-5.66-4.39-10.96-7.24-16.12c-3.2,6.27-5.34,13.32-5.89,19.2
					c-0.35,3.66-0.23,7.31,0.27,10.91c-1.05-0.63-2.05-1.39-2.96-2.31c-5.01-5.04-9.81-10.08-15.32-14.59
					c-2.67-2.18-5.42-3.56-8.29-4.66c4.32,8.47,8.96,16.77,15.53,23.76c3.11,3.31,6.45,6.34,9.7,9.45
					c-12.21-0.66-24.58-0.16-36.17,3.27c11.3,2.8,21.87,8.48,29.87,16.97c0.12,0.18,0.27,0.34,0.43,0.48
					c0.58,0.63,1.17,1.27,1.73,1.93c1.33,1.6,3.69-0.29,2.53-1.99c-0.08-0.12-0.17-0.23-0.25-0.35c4.12-1.93,8.26-3.92,12.28-6.1
					c0,0,0,0.01,0,0.01c0.19-0.11,0.38-0.22,0.58-0.33c0.22-0.12,0.45-0.24,0.68-0.37c0,0,0,0,0,0.01c1.17-0.65,2.33-1.33,3.47-2.02
					c0.03-0.02,0.07-0.04,0.1-0.06c1.07-0.65,2.12-1.32,3.16-2.01c0.04-0.02,0.07-0.05,0.11-0.07c2.09-1.4,4.12-2.89,6.05-4.5
					c0.01-0.01,0.03-0.02,0.05-0.04c0,0,0,0,0,0c0.83-0.69,1.65-1.4,2.44-2.14c4.37-4.06,7.94-8.77,10.59-14.12
					c2.73-5.51,4.43-11.47,5.84-17.44c0.43-1.82,0.83-3.65,1.23-5.48C199.56,154.25,198.93,154.51,198.31,154.77z"/>
				<path class="st7" d="M239.54,233.05c-13.06-25.99-42.1-59.76-74.21-45.3c-13.79,5.88-27.23,17.37-30.92,32.39
					c-5.43,24.18-1.81,48.68,8.18,71.13C177.05,359.99,278.39,307.58,239.54,233.05z"/>
				<path class="st20" d="M238.7,283.83c-13.86,7.47-31.47,7.64-46.47,3.88c-17.72-4.44-31.36-14.9-41.61-29.95
					c-6.58-9.66-13.53-20.64-17.26-32.25c-3.8,22.42-0.03,44.96,9.22,65.75c26.71,53.26,93.58,33.75,104.23-12.42
					C244.12,280.73,241.36,282.4,238.7,283.83z"/>
				<path class="st20" d="M147.56,223.55c-0.84,0.42-1.7,0.78-2.59,1.06c-0.05,0.02-0.47,0.14-0.5,0.15
					c-0.15,0.04-0.3,0.08-0.45,0.11c-0.43,0.1-0.87,0.18-1.3,0.24c-0.01-1.61-0.01-3.23-0.02-4.84c0-0.99-1.2-1.79-2.11-1.63
					c-1.11,0.19-1.63,1.05-1.63,2.11c0,1.5,0.01,3,0.01,4.5c-0.51-0.05-1.01-0.11-1.51-0.19c-0.97-0.17-2.03,0.63-2.12,1.62
					c-0.09,1.05,0.58,1.94,1.62,2.12c0.67,0.11,1.34,0.18,2.02,0.22c0,1.21,0.01,2.43,0.01,3.64c0,0.99,1.2,1.79,2.11,1.63
					c1.11-0.19,1.63-1.05,1.63-2.11c0-1.09-0.01-2.18-0.01-3.27c2.19-0.27,4.33-0.9,6.3-1.88c0.88-0.44,1.47-1.51,1.01-2.47
					C149.61,223.68,148.5,223.07,147.56,223.55z"/>
				<path class="st21" d="M146.27,252.95c-0.85,0.1-1.71,0.17-2.57,0.18c-0.11,0-0.21,0-0.32,0c-0.21-0.01-0.43-0.01-0.64-0.02
					c-0.43-0.02-0.86-0.04-1.29-0.08c-0.03-2.18,0.12-4.36,0.44-6.52c0.36-2.41-3.39-2.9-3.74-0.5c-0.31,2.12-0.46,4.25-0.47,6.39
					c-0.04-0.01-0.07-0.01-0.11-0.02c-0.01,0-0.08-0.02-0.14-0.03c-0.06-0.02-0.16-0.04-0.17-0.05c-0.23-0.07-0.46-0.13-0.69-0.21
					c-0.94-0.29-2.1,0.02-2.46,1.03c-0.32,0.89,0.03,2.15,1.03,2.46c0.89,0.28,1.79,0.51,2.7,0.69c0.06,0.64,0.13,1.28,0.21,1.91
					c0.16,1.2,0.37,2.38,0.2,3.59c-0.35,2.41,3.39,2.9,3.74,0.5c0.26-1.8-0.01-3.64-0.25-5.47c1.67,0.11,3.34,0.08,5.02-0.12
					c0.98-0.12,1.81-1.12,1.63-2.11C148.21,253.57,147.32,252.83,146.27,252.95z"/>
				<path class="st21" d="M151.73,281.79c-0.5-0.18-0.94-0.14-1.44,0.01c-0.04,0.01-0.08,0.02-0.12,0.03
					c-0.01,0-0.02,0.01-0.04,0.01c-0.17,0.04-0.35,0.08-0.52,0.12c-0.31,0.07-0.61,0.12-0.92,0.17c-0.16,0.02-0.32,0.02-0.48,0.04
					c-0.96-2.57-1.77-5.2-2.4-7.88c-0.23-0.99-1.03-1.77-2.11-1.63c-0.93,0.12-1.87,1.12-1.63,2.11c0.58,2.49,1.31,4.94,2.15,7.35
					c-0.44-0.06-0.87-0.12-1.3-0.21c-0.97-0.22-2.03,0.67-2.12,1.62c-0.1,1.1,0.59,1.89,1.62,2.12c1.09,0.25,2.2,0.38,3.3,0.41
					c0.67,1.61,1.38,3.2,2.17,4.75c0.46,0.91,1.48,1.43,2.47,1.01c0.89-0.37,1.48-1.56,1.01-2.47c-0.6-1.18-1.17-2.38-1.7-3.59
					c0.7-0.13,1.4-0.29,2.09-0.49c0.43-0.13,0.85-0.63,1.02-1.03c0.18-0.43,0.19-1.02-0.01-1.44
					C152.55,282.37,152.21,281.96,151.73,281.79z"/>
				<path class="st21" d="M167.57,302.41c0.1-0.98-0.59-2.03-1.62-2.12c-0.86-0.08-1.7,0.43-1.99,1.24
					c-0.06,0.03-0.11,0.05-0.17,0.08c-0.16,0.07-0.32,0.13-0.48,0.19c-0.26,0.1-0.53,0.19-0.8,0.29c-1.28-1.18-2.5-2.42-3.64-3.76
					c-0.66-0.78-1.83-0.96-2.65-0.32c-0.78,0.61-0.98,1.87-0.32,2.65c0.69,0.81,1.41,1.58,2.15,2.35c-0.48,0.05-0.96,0.11-1.44,0.13
					c-0.99,0.03-1.8,1.18-1.63,2.11c0.19,1.09,1.06,1.67,2.11,1.63c1.51-0.05,2.99-0.27,4.46-0.61c1.58,1.34,3.22,2.6,4.96,3.72
					c0.85,0.55,2,0.48,2.64-0.37c0.58-0.77,0.49-2.09-0.37-2.64c-1.05-0.68-2.05-1.39-3.02-2.14
					C166.69,304.31,167.44,303.56,167.57,302.41z"/>
				<path class="st20" d="M207.55,201.66c-1.2-1.34-2.49-2.59-3.83-3.79c0.23-0.4,0.46-0.8,0.69-1.2c0.26-0.44,0.43-0.85,0.36-1.38
					c-0.06-0.46-0.34-1-0.74-1.27c-0.4-0.27-0.89-0.45-1.38-0.36c-0.46,0.08-1.02,0.31-1.27,0.74c-0.2,0.35-0.41,0.7-0.61,1.06
					c-1.25-0.94-2.53-1.85-3.87-2.66c-0.84-0.51-2.03-0.53-2.64,0.37c-0.53,0.77-0.53,2.1,0.37,2.64c1.47,0.89,2.88,1.88,4.24,2.93
					c-0.57,0.99-1.14,1.99-1.72,2.98c-0.26,0.44-0.43,0.85-0.36,1.38c0.06,0.46,0.34,1,0.74,1.27c0.4,0.27,0.89,0.45,1.38,0.36
					c0.46-0.08,1.02-0.31,1.27-0.74c0.54-0.93,1.08-1.87,1.61-2.8c0.22,0.2,0.44,0.38,0.66,0.58c0.17,0.16,0.2,0.19,0.1,0.1
					c0.1,0.1,0.2,0.2,0.3,0.3c0.2,0.2,0.39,0.4,0.59,0.6c0.39,0.4,0.76,0.81,1.14,1.23c0.66,0.73,1.84,1.01,2.65,0.32
					C207.97,203.68,208.25,202.45,207.55,201.66z"/>
				<path class="st20" d="M221.48,209.36c-0.98-0.35-2.03,0.07-2.46,1.03c-0.15,0.33-0.31,0.66-0.47,0.98
					c-1.05-0.98-2.14-1.91-3.3-2.78c-1.94-1.46-4.21,1.55-2.27,3.02c1.3,0.98,2.53,2.05,3.7,3.19c-0.74,1.18-1.54,2.33-2.4,3.43
					c-0.61,0.78-0.45,2.08,0.37,2.64c0.86,0.59,1.99,0.46,2.64-0.37c0.72-0.91,1.38-1.87,2.02-2.84c1.29,1.55,2.46,3.21,3.47,4.96
					c0.51,0.88,1.45,1.44,2.47,1.01c0.85-0.36,1.52-1.58,1.01-2.47c-1.43-2.47-3.07-4.78-4.94-6.9c0.42-0.8,0.81-1.61,1.18-2.43
					C222.92,210.92,222.42,209.7,221.48,209.36z"/>
				<path class="st20" d="M238.59,239.37c-0.89-0.61-1.96-0.43-2.64,0.37c-0.13,0.16-0.28,0.31-0.42,0.46
					c-0.94-2.39-2.15-4.68-3.65-6.83c-1.39-1.99-4.36,0.34-2.97,2.33c1.52,2.18,2.71,4.58,3.58,7.1c-0.01,0.01-0.03,0.02-0.04,0.03
					c-0.15,0.1-0.3,0.2-0.45,0.29c-0.04,0.03-0.36,0.21-0.42,0.25c-0.33,0.19-0.67,0.37-1.01,0.53c-0.75,0.37-1.52,0.68-2.31,0.94
					c-0.94,0.32-1.43,1.59-1.01,2.47c0.46,0.98,1.47,1.35,2.47,1.01c1.33-0.45,2.6-1.04,3.8-1.74c0.4,2.03,0.6,4.1,0.54,6.17
					c-0.03,1.02,0.54,1.98,1.62,2.12c0.93,0.12,2.09-0.6,2.12-1.62c0.09-3.08-0.27-6.12-1-9.05c0.77-0.68,1.5-1.42,2.17-2.2
					C239.61,241.26,239.4,239.92,238.59,239.37z"/>
				<path class="st20" d="M243.67,270.51c-0.89,0.42-1.78,0.81-2.67,1.18c0.1-2.34,0-4.69-0.3-7.03c-0.31-2.41-4.06-1.93-3.75,0.48
					c0.34,2.62,0.39,5.27,0.19,7.9c-1.27,0.39-2.55,0.74-3.84,1.01c-0.96,0.2-1.82,1.06-1.63,2.11c0.16,0.94,1.08,1.85,2.11,1.63
					c0.94-0.2,1.88-0.42,2.8-0.67c-0.3,1.59-0.7,3.17-1.21,4.71c-0.32,0.97,0.04,2.06,1.03,2.46c0.89,0.37,2.14-0.06,2.46-1.03
					c0.8-2.42,1.37-4.9,1.73-7.41c1.54-0.55,3.05-1.16,4.53-1.86c0.89-0.43,1.46-1.52,1.01-2.47
					C245.72,270.64,244.62,270.06,243.67,270.51z"/>
				<path class="st20" d="M165.8,244.05c-1.33,0.32-2.68,0.52-4.03,0.65c-0.22-1.59-0.4-3.19-0.5-4.8
					c-0.07-1.02-1.15-1.76-2.11-1.63c-1.07,0.14-1.7,1.09-1.63,2.11c0.09,1.47,0.26,2.93,0.45,4.38c-0.71-0.05-1.43-0.11-2.14-0.21
					c-0.98-0.14-2.03,0.62-2.12,1.62c-0.09,1.03,0.58,1.97,1.62,2.12c1.08,0.16,2.17,0.23,3.26,0.27c0.37,1.93,0.81,3.85,1.34,5.75
					c0.27,0.98,1.61,1.37,2.47,1.01c1.04-0.44,1.29-1.48,1.01-2.47c-0.41-1.46-0.74-2.94-1.03-4.42c1.31-0.13,2.62-0.32,3.89-0.63
					c0.96-0.23,1.82-1.03,1.63-2.11C167.75,244.77,166.82,243.8,165.8,244.05z"/>
				<path class="st20" d="M189.67,232.58c-1.11,0.44-2.2,0.81-3.28,1.15c-0.83-1.8-1.71-3.59-2.63-5.35
					c-0.47-0.9-1.47-1.43-2.47-1.01c-0.88,0.37-1.49,1.56-1.01,2.47c0.85,1.61,1.65,3.25,2.42,4.9c-1.21,0.28-2.43,0.53-3.72,0.73
					c-0.97,0.15-1.81,1.09-1.63,2.11c0.17,0.99,1.07,1.79,2.11,1.63c1.62-0.25,3.22-0.59,4.8-0.99c0.55,1.29,1.09,2.58,1.59,3.89
					c0.37,0.95,1.55,1.4,2.47,1.01c0.97-0.41,1.38-1.52,1.01-2.47c-0.45-1.16-0.92-2.32-1.41-3.47c1.08-0.35,2.15-0.72,3.2-1.13
					c0.92-0.36,1.44-1.56,1.01-2.47C191.69,232.64,190.65,232.19,189.67,232.58z"/>
				<path class="st20" d="M211.3,221.37c-0.71-0.83-1.77-0.9-2.65-0.32c-0.39,0.25-0.77,0.5-1.17,0.74
					c-0.43,0.27-0.45,0.28-0.94,0.55c-0.03,0.02-0.06,0.03-0.08,0.04c-1.65-1.81-3.36-3.59-5.12-5.31
					c-0.73-0.71-2.09-0.37-2.64,0.37c-0.68,0.9-0.36,1.93,0.37,2.64c1.33,1.3,2.61,2.64,3.87,4.01c-1.25,0.54-2.51,1.05-3.81,1.47
					c-0.94,0.31-1.42,1.6-1.01,2.47c0.47,0.99,1.46,1.34,2.47,1.01c1.71-0.55,3.36-1.23,4.97-2c1.35,1.57,2.67,3.16,3.94,4.8
					c1.48,1.92,4.46-0.41,2.97-2.33c-1.13-1.46-2.3-2.88-3.5-4.28c0.68-0.4,1.35-0.8,2-1.23
					C211.81,223.48,211.92,222.1,211.3,221.37z"/>
				<path class="st20" d="M162.02,212.62c-1.58,0.68-3.19,1.28-4.84,1.78c-0.08,0.02-0.15,0.05-0.23,0.07
					c-0.27-1.29-0.55-2.58-0.8-3.88c-0.19-1-1.06-1.77-2.11-1.63c-0.97,0.13-1.82,1.11-1.63,2.11c0.27,1.43,0.58,2.85,0.88,4.27
					c-0.28,0.05-0.55,0.12-0.83,0.17c-0.97,0.17-1.81,1.08-1.63,2.11c0.17,0.97,1.07,1.81,2.11,1.63c0.39-0.07,0.77-0.16,1.15-0.24
					c0.4,1.75,0.81,3.5,1.26,5.23c0.26,0.99,1.01,1.77,2.11,1.63c0.91-0.12,1.89-1.12,1.63-2.11c-0.48-1.87-0.93-3.75-1.36-5.63
					c1.96-0.56,3.88-1.23,5.74-2.03c0.91-0.39,1.45-1.54,1.01-2.47C164.06,212.71,162.99,212.2,162.02,212.62z"/>
				<path class="st20" d="M177.2,204.46c-1.49,0.74-3.02,1.39-4.57,1.97c-0.88-1.84-1.78-3.67-2.74-5.47
					c-0.48-0.9-1.47-1.43-2.47-1.01c-0.88,0.37-1.49,1.57-1.01,2.47c0.91,1.71,1.77,3.45,2.61,5.2c-0.14,0.04-0.28,0.09-0.42,0.12
					c-0.96,0.26-1.41,1.63-1.01,2.47c0.48,1.02,1.45,1.29,2.47,1.01c0.18-0.05,0.36-0.11,0.55-0.16c0.92,2.06,1.79,4.13,2.61,6.23
					c0.88,2.27,4.36,0.8,3.48-1.46c-0.78-2.01-1.62-3.99-2.49-5.96c1.51-0.57,3-1.21,4.45-1.93c0.88-0.44,1.47-1.51,1.01-2.47
					C179.26,204.6,178.15,203.99,177.2,204.46z"/>
				<path class="st20" d="M190.73,202.62c0.18-0.43,0.19-1.02-0.01-1.44c-0.41-0.86-1.53-1.5-2.47-1.01
					c-0.37,0.19-0.75,0.36-1.12,0.54c-1.29-1.68-2.66-3.31-4.14-4.84c-0.71-0.73-1.79-0.99-2.65-0.32
					c-0.74,0.58-1.03,1.92-0.32,2.65c1.26,1.29,2.43,2.66,3.55,4.06c-0.31,0.12-0.62,0.26-0.93,0.37c-0.93,0.34-1.43,1.58-1.01,2.47
					c0.46,0.96,1.47,1.37,2.47,1.01c0.61-0.22,1.2-0.47,1.79-0.72c0.88,1.29,1.73,2.61,2.48,3.98c0.49,0.89,1.46,1.44,2.47,1.01
					c0.86-0.36,1.51-1.57,1.01-2.47c-0.77-1.41-1.62-2.76-2.5-4.1c0.12-0.06,0.24-0.11,0.36-0.17
					C190.17,203.41,190.54,203.11,190.73,202.62z"/>
				<path class="st21" d="M171.75,272.78c-1.05,0.5-2.13,0.95-3.22,1.36c-1.01-2.36-1.97-4.74-2.86-7.16
					c-0.84-2.28-4.32-0.82-3.48,1.46c0.85,2.31,1.77,4.59,2.73,6.85c-0.74,0.18-1.47,0.35-2.22,0.49c-0.97,0.18-1.81,1.07-1.63,2.11
					c0.17,0.96,1.08,1.83,2.11,1.63c1.1-0.21,2.19-0.48,3.26-0.77c0.83,1.82,1.68,3.63,2.58,5.42c0.46,0.91,1.48,1.42,2.47,1.01
					c0.89-0.37,1.47-1.56,1.01-2.47c-0.85-1.69-1.66-3.41-2.45-5.13c1.07-0.4,2.12-0.83,3.15-1.33c0.89-0.43,1.46-1.52,1.01-2.47
					C173.8,272.9,172.71,272.32,171.75,272.78z"/>
				<path class="st20" d="M198.16,260.24c-0.97,0.29-1.94,0.59-2.9,0.88c-1.23-2.68-2.64-5.27-4.22-7.77
					c-0.55-0.86-1.91-0.9-2.65-0.32c-0.87,0.68-0.87,1.79-0.32,2.65c1.33,2.1,2.51,4.29,3.56,6.54c-1.22,0.37-2.45,0.74-3.67,1.11
					c-0.95,0.29-1.42,1.61-1.01,2.47c0.47,1,1.46,1.32,2.47,1.01c1.23-0.37,2.46-0.75,3.69-1.12c0.62,1.58,1.18,3.18,1.66,4.8
					c0.29,0.98,1.6,1.38,2.47,1.01c1.02-0.43,1.3-1.49,1.01-2.47c-0.45-1.5-0.96-2.98-1.53-4.44c0.97-0.29,1.93-0.59,2.9-0.88
					c0.95-0.29,1.42-1.61,1.01-2.47C200.15,260.25,199.17,259.93,198.16,260.24z"/>
				<path class="st20" d="M221.36,252.43c-0.99,0.11-1.97,0.19-2.96,0.26c-0.44-2.74-1.14-5.43-2.12-8.05
					c-0.36-0.96-1.56-1.39-2.47-1.01c-0.98,0.41-1.37,1.51-1.01,2.47c0.81,2.18,1.41,4.43,1.81,6.72c-0.11,0-0.23,0-0.34,0
					c-0.22,0-0.44-0.01-0.66-0.01c-0.92-0.02-1.83-0.07-2.75-0.13c-0.98-0.07-2.03,0.57-2.12,1.62c-0.09,0.97,0.57,2.05,1.62,2.12
					c1.57,0.11,3.15,0.15,4.72,0.14c0.13,1.73,0.16,3.48,0.05,5.22c-0.06,1.02,0.56,1.98,1.62,2.12c0.96,0.13,2.06-0.6,2.12-1.62
					c0.12-1.95,0.1-3.89-0.05-5.83c1-0.06,2.01-0.15,3.01-0.26c0.98-0.11,1.8-1.12,1.63-2.11
					C223.3,253.04,222.41,252.31,221.36,252.43z"/>
				<path class="st21" d="M187.89,296.25c-0.88-0.32-2.16,0.02-2.46,1.03c-0.12,0.42-0.28,0.81-0.48,1.2
					c-0.01,0.03-0.02,0.04-0.03,0.06c-0.02,0.02-0.03,0.04-0.06,0.08c-0.12,0.18-0.24,0.36-0.37,0.53c-0.13,0.17-0.28,0.33-0.42,0.5
					c-0.03,0.03-0.04,0.05-0.05,0.07c-0.02,0.01-0.03,0.03-0.06,0.05c-0.22,0.2-0.45,0.39-0.68,0.58c-1.21-1.36-2.39-2.74-3.52-4.17
					c-1.5-1.91-4.47,0.42-2.97,2.33c1.01,1.28,2.06,2.53,3.13,3.75c-0.57,0.25-1.14,0.48-1.72,0.72c-0.92,0.37-1.44,1.56-1.01,2.47
					c0.44,0.94,1.49,1.41,2.47,1.01c0.96-0.39,1.95-0.81,2.92-1.29c2.06,2.15,4.23,4.2,6.49,6.14c0.77,0.66,2.06,0.4,2.64-0.37
					c0.65-0.86,0.4-1.98-0.37-2.64c-1.91-1.64-3.74-3.37-5.49-5.18c1.4-1.14,2.51-2.56,3.06-4.4
					C189.2,297.77,188.91,296.62,187.89,296.25z"/>
				<path class="st21" d="M210.52,288.71c-0.77-0.58-2.08-0.48-2.64,0.37c-0.82,1.25-1.87,2.22-3.06,3
					c-0.86-2.26-1.75-4.51-2.68-6.74c-0.93-2.24-4.42-0.79-3.48,1.46c0.96,2.3,1.86,4.61,2.75,6.93c-1.33,0.48-2.73,0.84-4.11,1.15
					c-0.99,0.22-1.77,1.04-1.63,2.11c0.12,0.94,1.11,1.86,2.11,1.63c1.64-0.37,3.32-0.8,4.94-1.38c1.01,2.77,1.97,5.55,2.88,8.35
					c0.31,0.97,1.59,1.38,2.47,1.01c1.01-0.42,1.33-1.5,1.01-2.47c-0.92-2.83-1.89-5.65-2.91-8.45c1.86-1.06,3.51-2.45,4.73-4.33
					C211.45,290.5,211.38,289.35,210.52,288.71z"/>
				<path class="st20" d="M227.71,282.11c-1.05,0.49-2.01,0.85-2.99,1.12c-0.27-2.27-0.66-4.53-1.2-6.77
					c-0.24-0.99-1.03-1.77-2.11-1.63c-0.93,0.12-1.87,1.12-1.63,2.11c0.55,2.29,0.95,4.62,1.22,6.96c-0.55,0.05-1.11,0.08-1.67,0.08
					c-0.14,0-0.14,0,0,0c-0.12,0-0.23-0.01-0.35-0.01c-0.2-0.01-0.41-0.03-0.61-0.06c-0.06-0.01-0.34-0.08-0.39-0.08
					c-0.18-0.08-0.51-0.24-0.26-0.08c-0.84-0.52-2.03-0.52-2.64,0.37c-0.53,0.78-0.52,2.09,0.37,2.64c1.74,1.07,3.85,1.1,5.85,0.9
					c0.08,1.6,0.12,3.2,0.06,4.8c-0.04,1.02,0.55,1.98,1.62,2.12c0.94,0.12,2.08-0.6,2.12-1.62c0.07-1.99,0.05-3.97-0.06-5.94
					c1.41-0.36,2.8-0.83,4.11-1.44c0.89-0.42,1.46-1.52,1.01-2.47C229.76,282.22,228.67,281.66,227.71,282.11z"/>
			</g>
			<g>
				<path class="st22" d="M297.84,226.7c-7.3-41.34-62.36-38.7-66.65,2.94c-1.85,12.01,1.38,22.81,11.46,30.12
					C268.99,278.53,302.83,259.17,297.84,226.7z"/>
				<path class="st23" d="M285.48,210.58c-2.8-3.3-7.65-5.68-11.63-2.87c-0.54,0.38-0.99,0.83-1.36,1.32
					c-5.63,5.37-1.17,17.27,5.94,19.35c4.2,1.23,8.92-0.69,10.4-4.95C290.38,218.99,288.38,213.98,285.48,210.58z"/>
				<path class="st24" d="M271.79,253.78c-14.23-3.49-23.33-15.82-25.41-29.86c-1.06-7.18-1.71-15.55,1.15-22
					c-8.47,5.19-14.97,14.48-16.34,27.73c-1.85,12.01,1.38,22.81,11.46,30.12c17.96,12.8,39.41,7.86,49.66-6.87
					C285.68,255.1,278.23,255.35,271.79,253.78z"/>
				<path class="st24" d="M267.21,203.16c-2.38-3.01-10.89-2.58-8.64,2.63C260.39,208.84,270.53,207.9,267.21,203.16z"/>
				<path class="st24" d="M260.04,225.46c-2.39-3.71-6.41,1.66-3.13,3.67C259.17,230.54,262.02,227.44,260.04,225.46z"/>
				<path class="st24" d="M276.89,219.42c-0.07-3.65-5.14-2.8-4.5,0.61C272.67,222.98,277.39,222.33,276.89,219.42z"/>
				<path class="st24" d="M279.72,234.07c-3.48,0-3.48,5.41,0,5.41C283.2,239.48,283.21,234.07,279.72,234.07z"/>
				<path class="st24" d="M270.26,242.97c-0.86-3.24-5.92-1.86-4.99,1.38C266.13,247.59,271.18,246.2,270.26,242.97z"/>
				<path class="st24" d="M289.6,221.3c-2.59,0-2.59,4.02,0,4.02C292.18,225.32,292.19,221.3,289.6,221.3z"/>
				<path class="st24" d="M289.65,245.34c-1.45-3.66-7.03-0.41-4.56,2.66C286.79,250.72,290.99,248.07,289.65,245.34z"/>
				<path class="st24" d="M255.14,212.11c-0.4-3.47-5.66-3.48-5.7,0.12C249.39,216.39,256.04,216.54,255.14,212.11z"/>
				<path class="st25" d="M241.08,227.23c-0.02-0.06-0.05-0.11-0.08-0.18c0.09-5.38-6.81-1.81-5.19,2
					C237.13,232.57,241.95,230.62,241.08,227.23z"/>
				<path class="st25" d="M242.28,240.49c-2.54-1.59-5.48,1.97-3.28,4.1C241.69,247.23,245.45,242.51,242.28,240.49z"/>
				<path class="st25" d="M253.73,253.48c-1.57-2.78-5.9-0.25-4.25,2.49C250.93,259.04,255.41,256.24,253.73,253.48z"/>
				<path class="st25" d="M268.48,261.27c-0.25-2.99-4.75-3.37-4.77-0.09C263.55,264.49,268.88,264.73,268.48,261.27z"/>
				<path class="st25" d="M266.21,203.18c-1.62-2.66-7.12-1.21-5.32,2.22C262.58,208.12,268,206.7,266.21,203.18z"/>
			</g>
			<g>
				<path class="st26" d="M293.29,237.57c-40.25,11.91-31.44,66.32,10.42,65.9c12.14,0.49,22.51-3.94,28.64-14.77
					C348.03,260.42,324.98,228.97,293.29,237.57z"/>
				<path class="st27" d="M278.65,251.67c-2.96,3.15-4.78,8.24-1.54,11.87c0.44,0.49,0.94,0.89,1.46,1.21
					c5.97,4.99,17.29-0.78,18.55-8.08c0.75-4.31-1.69-8.78-6.09-9.78C286.46,245.86,281.71,248.41,278.65,251.67z"/>
				<path class="st28" d="M323.12,260.42c-1.86,14.53-13.1,24.96-26.82,28.61c-7.01,1.86-15.26,3.45-21.99,1.34
					c6.11,7.83,16.08,13.25,29.39,13.11c12.14,0.49,22.51-3.94,28.64-14.77c10.7-19.29,3.38-40.05-12.41-48.57
					C322.87,246.46,323.96,253.84,323.12,260.42z"/>
				<path class="st28" d="M273.33,270.66c-2.73,2.7-1.34,11.11,3.58,8.29C279.75,276.8,277.68,266.83,273.33,270.66z"/>
				<path class="st28" d="M296.3,275.28c-3.42,2.79,2.37,6.19,4,2.69C301.45,275.57,298.04,273.09,296.3,275.28z"/>
				<path class="st28" d="M288.4,259.21c-3.61,0.48-2.2,5.42,1.11,4.41C292.42,263.01,291.24,258.38,288.4,259.21z"/>
				<path class="st28" d="M302.65,254.75c0.39,3.46,5.76,2.85,5.37-0.61C307.63,250.68,302.25,251.29,302.65,254.75z"/>
				<path class="st28" d="M312.55,263.16c-3.12,1.22-1.18,6.09,1.93,4.81C317.6,266.74,315.66,261.88,312.55,263.16z"/>
				<path class="st28" d="M288.85,246.37c0.29,2.57,4.29,2.12,3.99-0.45C292.55,243.35,288.56,243.8,288.85,246.37z"/>
				<path class="st28" d="M312.72,243.61c-3.48,1.85,0.38,7.03,3.15,4.23C318.39,245.86,315.29,241.98,312.72,243.61z"/>
				<path class="st28" d="M283.59,281.65c-3.4,0.79-2.82,6.01,0.76,5.65C288.48,286.88,287.89,280.26,283.59,281.65z"/>
				<path class="st29" d="M300.2,293.92c-0.06,0.03-0.11,0.07-0.17,0.1c-5.36,0.52-1.03,6.97,2.57,4.93
					C305.94,297.24,303.46,292.67,300.2,293.92z"/>
				<path class="st29" d="M313.23,291.23c-1.3,2.7,2.57,5.22,4.44,2.8C320,291.06,314.88,287.86,313.23,291.23z"/>
				<path class="st29" d="M324.86,278.39c-2.58,1.88,0.42,5.9,2.95,3.95C330.69,280.55,327.41,276.41,324.86,278.39z"/>
				<path class="st29" d="M330.94,262.86c-2.95,0.58-2.82,5.1,0.45,4.75C334.69,267.4,334.32,262.07,330.94,262.86z"/>
				<path class="st29" d="M273.47,271.65c-2.46,1.9-0.41,7.21,2.8,5.04C278.78,274.71,276.77,269.47,273.47,271.65z"/>
			</g>
			<g>
				<path class="st30" d="M400.12,223.42c-11.84-16.97-31.46-2.89-38.23,11.28c-5.98,9.06-14.2,16.52-23.13,22.99
					c-19.1,13.47-48.64,20.84-61.45,40.61c-2.99,6.32-2.99,13.54-1.4,20.24c5.61,34.5,45.96,36.96,72.54,25.79
					c15.28-6.01,26.53-16.75,35.15-30.56C401.1,287.8,415.8,253.65,400.12,223.42z"/>
				<path class="st31" d="M370.82,237.92c1.02,1.86,1.28,3.82,1.43,5.9c0,0,0,0.02,0,0.02c0.98-0.35,2.34-0.66,3.09-0.96
					c4.68-1.91,9.3-2.23,13.68,0.63c2.51,1.64,2.44,3.4,5.29,2.26c2.42-0.96,4.05-2.99,6.03-4.6c1.49-1.22,3.24-2.27,5.07-3.03
					c-1.07-4.97-2.79-9.89-5.29-14.71c-11.29-16.18-29.64-4.13-37.19,9.3C366.16,233.1,369.06,234.7,370.82,237.92z"/>
				<path class="st31" d="M399.17,279.84c-5.24,5.11-10.92,9.85-16.57,14.51c-12.03,9.93-24.96,19.03-40.01,23.71
					c-13.52,4.21-28.03,4.31-38.95-5.74c-5.01-4.61-8.76-10.97-10.59-17.5c-1-3.54-1.3-7.18-1.35-10.83
					c-5.74,4.05-10.75,8.67-14.4,14.3c-2.99,6.32-2.99,13.54-1.4,20.24c5.61,34.5,45.96,36.96,72.54,25.79
					c15.28-6.01,26.53-16.75,35.15-30.56c7.58-11.24,14.61-24.02,18.9-37.35C401.41,277.58,400.31,278.73,399.17,279.84z"/>
				<path class="st9" d="M408.94,231.79c-6.73-5.32-7.55-16.18-16.04-18.99c0.24-0.51,0.52-1.01,0.73-1.51
					c0.46-1.11,0.77-2.31,0.79-3.53c0.03-2.37-1.15-4.59-3.19-5.78c-1.41-0.82-3.53-0.18-3.93,1.52c-0.7,2.96-0.96,5.8-0.8,8.75
					c-5.79,0.66-11.78,4.09-15.38,8.57c-2.5,1.9-5.05,3.73-8.06,4.65c-2.05,0.63-1.62,3.31,0.38,3.59c3.86,0.54,7.54-0.03,10.9-1.42
					c-0.84,3.31-0.82,6.77-2.04,9.96c-0.6,1.57,1.09,3.05,2.57,2.7c6.4-1.49,11.7-7.18,13.97-13.37c0.18,4.08-0.36,8.2-1.51,11.72
					c-0.46,1.41,0.46,3.16,1.92,3.53c6.47,1.63,9.8-8.07,9.71-13.03c0-0.14-0.02-0.28-0.02-0.42c0.23,0.26,0.47,0.51,0.73,0.74
					c2.5,2.24,5.42,3.16,8.61,3.84C409.23,233.49,409.67,232.37,408.94,231.79z"/>
			</g>
			<g>
				<path class="st11" d="M288.83,346.86c-2.62-65.52-17.26-106.27-17.26-106.27l-80.1,69.42
					C178.69,351.9,264.74,384.95,288.83,346.86z"/>
				<path class="st9" d="M237.49,342c-18.5-6.54-33.72-21.17-35.98-40.69l-10.04,8.7c-12.78,41.89,73.27,74.94,97.36,36.85
					c-0.12-2.89-0.26-5.71-0.42-8.5C273.76,347.46,253.14,347.53,237.49,342z"/>
				<path class="st12" d="M251.01,345.91c-17.01-20.98-20.89-48.86-15-74.51l-44.54,38.6c-10.34,33.89,43.99,61.98,77.88,51.32
					C262.33,357.36,256.01,352.07,251.01,345.91z"/>
				<path class="st32" d="M251.01,345.91c-0.22-0.27-0.42-0.55-0.64-0.82c-4.5-0.62-8.86-1.67-12.88-3.09
					c-18.5-6.54-33.72-21.17-35.98-40.69l-10.04,8.7c-10.34,33.89,43.99,61.98,77.88,51.32
					C262.33,357.36,256.01,352.07,251.01,345.91z"/>
				<path class="st33" d="M223.02,306.48c-0.24-0.69-1.06-1.28-1.82-1.04c-1.3,0.41-2.56,0.91-3.75,1.58
					c-1.21,0.67-2.35,1.52-3.37,2.45c-0.96,0.88-0.98,2.39,0,3.26c0.46,0.4,0.98,0.58,1.59,0.53c0.28,0,0.55-0.07,0.81-0.2
					c0.31-0.16,0.56-0.38,0.76-0.65c0.75-0.83,1.58-1.59,2.45-2.3c0.21-0.17,0.43-0.34,0.65-0.5c0.12-0.09,0.23-0.17,0.35-0.25
					c0.04-0.03,0.07-0.05,0.11-0.08c0.45-0.31,0.95-0.59,1.43-0.85C222.94,308.04,223.28,307.23,223.02,306.48z"/>
				<path class="st33" d="M235.77,315.47c-0.51-0.45-1.47-0.57-1.98-0.01c-0.29,0.31-0.57,0.63-0.84,0.94
					c-0.02,0.03-0.19,0.22-0.25,0.29c-0.14,0.16-0.28,0.32-0.42,0.48c-0.46,0.53-0.9,1.08-1.33,1.64c-0.4,0.54-0.79,1.09-1.15,1.66
					c-0.18,0.28-0.36,0.57-0.53,0.86c-0.26,0.44-0.58,0.83-0.73,1.33c-0.31,1.05,0.12,2.15,1.12,2.64c0.93,0.46,2.21,0.21,2.78-0.72
					c0.42-0.69,0.59-1.54,0.9-2.29c0.13-0.31,0.26-0.62,0.39-0.92c0.06-0.13,0.12-0.26,0.18-0.39c0.01-0.03,0.11-0.23,0.15-0.32
					c0.05-0.1,0.13-0.25,0.14-0.28c0.07-0.13,0.14-0.26,0.2-0.39c0.16-0.3,0.33-0.6,0.5-0.89c0.34-0.58,0.72-1.14,1.13-1.68
					C236.48,316.82,236.31,315.94,235.77,315.47z"/>
				<path class="st33" d="M251.68,331.68c0-0.29-0.03-0.58-0.06-0.87c-0.01-0.11,0-0.28-0.03-0.4c0-0.02,0-0.03,0-0.05
					c-0.01-0.13-0.01-0.27-0.02-0.4c-0.02-0.59-0.01-1.19,0.02-1.78c0.02-0.57,0.07-1.13,0.15-1.69c0.01-0.08,0.07-0.55,0.03-0.17
					c0.01-0.13,0.06-0.26,0.08-0.39c0.07-0.3,0.15-0.6,0.23-0.9c0.19-0.68-0.07-1.38-0.71-1.69c-0.56-0.27-1.46-0.16-1.78,0.46
					c-0.6,1.19-1.13,2.43-1.5,3.71c-0.42,1.43-0.7,3-0.58,4.49c0.04,0.47,0.5,1.09,0.89,1.32c0.41,0.25,0.85,0.37,1.34,0.34
					C250.73,333.58,251.67,332.74,251.68,331.68z"/>
				<g>
					<path class="st33" d="M271.58,331.51c-0.14-1.86-0.34-3.72-0.65-5.55c-0.13-0.73-0.86-1.22-1.57-1.17
						c-0.68,0.05-1.4,0.65-1.38,1.39c0.03,0.99,0.06,1.98-0.01,2.97c-0.03,0.49-0.08,0.97-0.13,1.46c-0.09,0.88-0.34,1.85,0.4,2.56
						c0.36,0.34,0.8,0.64,1.31,0.64c0.5,0.01,0.95-0.14,1.34-0.46c0.27-0.22,0.53-0.57,0.62-0.9
						C271.61,332.12,271.6,331.83,271.58,331.51z"/>
					<path class="st33" d="M271.57,331.33c0.01,0.06,0,0.12,0.01,0.18c0.01,0.11,0.02,0.22,0.03,0.32
						C271.59,331.66,271.58,331.5,271.57,331.33z"/>
				</g>
				<path class="st33" d="M233.79,290.36c-0.21-0.6-0.93-1.13-1.6-0.92c-1.23,0.4-2.42,0.89-3.57,1.47
					c-0.52,0.26-1.02,0.54-1.51,0.85c-0.61,0.38-1.3,0.77-1.79,1.31c-0.36,0.4-0.63,0.79-0.66,1.35c-0.03,0.46,0.15,1.03,0.47,1.37
					c0.75,0.79,1.88,0.85,2.72,0.18c0.45-0.35,0.81-0.8,1.22-1.19c0.42-0.4,0.86-0.78,1.32-1.14c0.21-0.16,0.42-0.31,0.63-0.47
					c0.04-0.03,0.08-0.05,0.13-0.08c0.13-0.08,0.26-0.16,0.4-0.24c0.51-0.29,1.03-0.55,1.56-0.8
					C233.74,291.78,234.02,290.99,233.79,290.36z"/>
				<path class="st33" d="M246.28,292.62c-0.69-0.42-1.57-0.28-2.05,0.4c-0.87,1.24-1.7,2.5-2.52,3.77
					c-0.4,0.62-0.79,1.25-1.17,1.88c-0.44,0.74-1,1.52-1.28,2.33c-0.32,0.93,0.14,1.96,1.01,2.38c0.85,0.42,1.98,0.19,2.5-0.65
					c0.45-0.72,0.71-1.58,1.04-2.35c0.29-0.68,0.59-1.35,0.9-2.02c0.14-0.31,0.29-0.61,0.44-0.92c0.09-0.18,0.1-0.2,0.03-0.07
					c0.04-0.08,0.08-0.15,0.12-0.23c0.09-0.18,0.19-0.36,0.28-0.53c0.35-0.66,0.72-1.31,1.09-1.95
					C247.06,294.01,246.99,293.06,246.28,292.62z"/>
				<path class="st33" d="M259.31,307.41c0.09-0.65,0.17-1.3,0.25-1.95c0.16-1.3,0.32-2.6,0.53-3.89c0.12-0.74-0.56-1.42-1.22-1.55
					c-0.69-0.13-1.51,0.26-1.71,0.98c-0.33,1.27-0.71,2.52-1.09,3.78c-0.19,0.63-0.38,1.26-0.56,1.89c-0.22,0.75-0.49,1.51-0.55,2.3
					c-0.07,1.01,0.68,1.9,1.65,2.09c1,0.19,1.95-0.37,2.3-1.33C259.17,309,259.21,308.18,259.31,307.41z"/>
				<path class="st33" d="M274.89,309.36c-0.12-0.64-0.43-1.27-0.67-1.89c-0.25-0.73-0.48-1.47-0.67-2.22
					c-0.1-0.39-0.2-0.78-0.28-1.18c-0.05-0.22-0.09-0.43-0.11-0.65c-0.01-0.11-0.02-0.22-0.03-0.33c0,0,0,0,0-0.01
					c0-0.02,0-0.03,0-0.06c-0.03-0.4-0.09-0.73-0.36-1.04c-0.24-0.27-0.65-0.49-1.02-0.5c-0.73-0.01-1.57,0.56-1.54,1.38
					c0.05,1.29,0.06,2.59,0.17,3.88c0.05,0.59,0.14,1.17,0.24,1.75c0.12,0.71,0.23,1.49,0.55,2.14c0.44,0.89,1.51,1.3,2.43,0.98
					C274.53,311.3,275.07,310.35,274.89,309.36z"/>
				<g>
					<path class="st33" d="M250.16,271.11c-0.51-0.53-1.28-0.59-1.85-0.13c-1.11,0.9-2.2,1.82-3.33,2.7
						c-0.55,0.43-1.11,0.86-1.67,1.29l-0.81,0.62c-0.12,0.09-0.29,0.28-0.43,0.34c-0.07,0.04-0.16,0.1-0.27,0.18
						c-0.17,0.14-0.3,0.3-0.39,0.49c-0.38,0.7-0.46,1.63,0.14,2.26c0.59,0.62,1.43,0.78,2.22,0.44c0.37-0.16,0.58-0.4,0.82-0.67
						c-0.01,0.01,0.25-0.26,0.3-0.31c0.23-0.25,0.46-0.5,0.7-0.75c0.48-0.51,0.96-1.03,1.44-1.54c0.98-1.04,2-2.05,3.01-3.07
						C250.52,272.47,250.68,271.65,250.16,271.11z"/>
					<path class="st33" d="M242.04,275.94c0.01,0,0.02-0.01,0.03-0.01C242.28,275.79,242.27,275.8,242.04,275.94z"/>
				</g>
				<path class="st33" d="M257.62,281.84c-0.01-0.02-0.01-0.05-0.02-0.07c0.01-0.09,0.03-0.26,0.03-0.3
					c0.02-0.24,0.05-0.48,0.07-0.72c0.06-0.47,0.12-0.95,0.2-1.42c0.02-0.12,0.04-0.23,0.06-0.35c0.01-0.04,0.01-0.06,0.01-0.08
					c0-0.01,0.01-0.02,0.01-0.04c0.06-0.23,0.13-0.47,0.19-0.7c0.14-0.47,0.29-0.93,0.45-1.39c0.21-0.6-0.14-1.35-0.76-1.53
					c-0.69-0.2-1.24,0.15-1.53,0.76c-0.41,0.86-0.76,1.75-1.14,2.63c-0.35,0.82-0.65,1.65-0.92,2.49c-0.01,0.01-0.02,0.03-0.03,0.04
					c-0.73,1.11-0.1,2.6,1.2,2.85C256.7,284.27,257.92,283.14,257.62,281.84z"/>
				<path class="st33" d="M270.27,287.09c-0.01-0.84-0.21-1.68-0.31-2.52c-0.04-0.33-0.07-0.67-0.1-1
					c-0.01-0.08-0.02-0.31-0.02-0.35c-0.01-0.18-0.02-0.37-0.03-0.55c-0.06-1.47,0.04-2.94,0.22-4.4c0.09-0.69-0.5-1.32-1.14-1.44
					c-0.62-0.12-1.44,0.24-1.59,0.92c-0.34,1.57-0.58,3.15-0.76,4.74c-0.08,0.73-0.14,1.46-0.17,2.2c-0.04,0.88-0.11,1.83,0.05,2.7
					c0.18,0.95,1.11,1.6,2.05,1.53C269.38,288.84,270.29,288.06,270.27,287.09z"/>
				<path class="st33" d="M265.03,264.97c0.2-0.6,0.38-1.2,0.55-1.8c0.33-1.19,0.7-2.36,0.98-3.57c0.11-0.47,0.13-0.9-0.09-1.34
					c-0.19-0.38-0.59-0.76-1.01-0.88c-0.89-0.25-1.94,0.16-2.22,1.1c-0.46,1.54-1.01,3.04-1.7,4.49c-0.14,0.28-0.28,0.56-0.43,0.83
					c-0.16,0.28-0.34,0.57-0.43,0.88c-0.14,0.5-0.15,0.94-0.1,1.45c0.07,0.66,0.69,1.25,1.29,1.46c0.71,0.24,1.32,0.02,1.91-0.38
					C264.51,266.7,264.76,265.78,265.03,264.97z"/>
			</g>
			<g>
				<g>
					<path class="st34" d="M141.11,221.39c-0.82-2.15-3.99-1.19-3.42,1.06c1.29,5.06,2.82,10.66,1.89,15.89
						c-0.81,4.6-3.07,8.98-4.51,13.42c-0.1,0.32-0.21,0.65-0.32,0.98c-0.65-6.53-1.29-13.13-3.55-19.33
						c-2.62-7.19-6.72-13.05-10.92-19.36c-4.52-6.77-6.77-15.1-9.35-22.76c-0.69-2.06-4.29-1.69-3.96,0.66
						c1.09,7.68,2.56,14.92,4.77,22.36c2.29,7.72,6.31,14.75,8.47,22.49c0.81,2.88,1.33,5.78,1.73,8.7
						c-7.06-9.04-15.04-17.34-21.76-26.64c-0.96-1.33-3.31-0.43-2.73,1.27c3.68,10.7,9.08,20.38,15.07,29.94
						c2.97,4.74,5.88,9.53,8.7,14.36c1.53,2.63,3.59,4.91,5.01,7.59c1.36,2.58,2.02,4.97,4.01,7.14c1,1.09,2.69,1.1,3.96,0.42
						c3.03,1.3,7.34-0.5,8.07-3.96c0.83-3.93,0.79-7.98,1.65-11.97c1.06-4.91,2-10.04,2.25-15.06
						C146.65,239,144.5,230.25,141.11,221.39z"/>
					<path class="st35" d="M134.43,254.15c-2.86,0.55-5.9,0.48-8.83-0.22c-1.49-0.36-2.91-0.93-4.24-1.66
						c-0.22,0.45-0.46,0.9-0.72,1.35c-0.89,1.5-2.06,2.9-3.4,4.09c1.35,2.22,2.68,4.46,3.99,6.7c1.53,2.63,3.59,4.91,5.01,7.59
						c1.36,2.58,2.02,4.97,4.01,7.14c1,1.09,2.69,1.1,3.96,0.42c3.03,1.3,7.34-0.5,8.07-3.96c0.83-3.93,0.79-7.98,1.65-11.97
						c0.14-0.64,0.27-1.27,0.4-1.92C140.29,260.3,136.67,257.62,134.43,254.15z"/>
					<path class="st36" d="M178.76,282.94c-8.1-6.97-26.45-9.35-37.79-13.87c-4.2-1.67-8.94-0.3-11.75,3.24
						c-2.34,2.95-5.08,5.67-7.81,8.26c-5.97,5.68-10.97,11.31-14.48,18.88c-0.76,1.64-1.44,3.32-2.04,5.03
						c-6.09,24.75,12.43,50.77,39.17,50.84C185.82,357.24,212.44,313.67,178.76,282.94z"/>
				</g>
				<path class="st37" d="M141.08,346.91c-1.25-0.44-2.56-0.63-3.81-1.08c-1.28-0.46-2.52-1.06-3.66-1.8
					c-2.4-1.55-4.11-3.72-5.59-6.13c-1.39-2.27-2.9-4.42-4.05-6.83c-1.1-2.31-2.06-4.74-2.96-7.13c-3.73-10.02-4.68-21.4,0.13-31.23
					c1.32-2.69,2.96-5.2,4.77-7.58c1.88-2.47,3.78-5.02,5.82-7.36c0.46-0.53-0.26-1.27-0.78-0.78c-2.16,2.04-4.46,3.87-6.51,6.04
					c-2.01,2.13-3.92,4.39-5.58,6.8c-3.53,5.15-5.2,11.08-5.63,17.27c-0.4,5.78,0.5,11.68,2.47,17.13c1.03,2.85,2.26,5.53,3.97,8.03
					c1.59,2.32,3.19,4.91,5.17,6.91c2.27,2.29,4.67,4.71,7.37,6.49c2.47,1.63,5.86,3.04,8.87,2.55
					C141.8,348.11,141.65,347.11,141.08,346.91z"/>
				<path class="st37" d="M156.39,341.39c-0.84-0.91-1.85-1.47-2.86-2.18c-1.04-0.73-2.05-1.52-3.02-2.35
					c-1.71-1.46-3.36-3.01-4.88-4.67c-3.07-3.39-5.53-7.3-7.54-11.4c-4.34-8.83-6.84-19.35-5.03-29.14c0.55-2.94,1.35-5.81,2-8.72
					c0.32-1.42,0.54-2.86,0.7-4.3c0.17-1.49-0.07-2.92-0.04-4.4c0.02-0.75-1.12-0.74-1.16,0c-0.08,1.38-0.66,2.76-1.02,4.1
					c-0.38,1.43-0.86,2.84-1.31,4.25c-0.83,2.58-1.8,5.12-2.6,7.72c-0.82,2.67-1.45,5.45-1.62,8.24c-0.18,3.03,0.17,6.18,0.72,9.16
					c1.82,9.82,6.39,19.41,13.03,26.87c1.86,2.09,3.9,4,6.16,5.66c2.22,1.63,5.08,3.65,7.96,3.09
					C156.78,343.13,156.93,341.98,156.39,341.39z"/>
				<path class="st37" d="M167.54,314.21c-3.4-9.37-10.37-16.76-16.89-24.07c-1.78-2-3.63-3.94-5.33-6.01
					c-0.85-1.04-1.66-2.1-2.43-3.2c-0.83-1.18-1.79-2.29-2.45-3.59c-0.27-0.53-1.22-0.15-0.98,0.41c0.89,2.14,1.57,4.27,2.68,6.33
					c1.1,2.07,2.34,4.06,3.63,6.02c2.6,3.94,5.74,7.48,8.62,11.21c2.82,3.66,5.49,7.53,7.45,11.73c2.02,4.33,3.02,9.23,3.02,14
					c0,2.8-0.49,5.59-1.23,8.28c-0.76,2.79-2.06,5.34-3.05,8.04c-0.35,0.96,0.94,1.5,1.58,0.92c1.99-1.76,3.32-4.15,4.38-6.56
					c1.1-2.5,1.89-5.06,2.3-7.77C169.65,324.59,169.41,319.35,167.54,314.21z"/>
				<path class="st37" d="M183.51,313.33c-0.75-5.06-2.6-10.13-5.61-14.29c-3.08-4.27-6.88-8.16-11.01-11.41
					c-2.47-1.94-5.07-3.71-7.81-5.26c-2.74-1.54-5.55-3.16-8.61-3.96c-0.59-0.15-1.12,0.63-0.62,1.06c1.97,1.73,4.27,2.99,6.48,4.4
					c2.2,1.4,4.39,2.86,6.48,4.43c3.99,2.98,7.5,6.44,10.06,10.73c4.68,7.84,7.42,16.98,6.06,26.15c-0.37,2.52-1.11,5.01-2.19,7.32
					c-1.09,2.31-2.53,4.79-4.34,6.6c-0.66,0.66,0.34,1.65,1.02,1.02c0.9-0.83,1.85-1.57,2.67-2.49c0.79-0.89,1.53-1.84,2.21-2.82
					c1.4-2.03,2.48-4.23,3.37-6.52C183.53,323.53,184.27,318.41,183.51,313.33z"/>
				<g>
					<path class="st38" d="M161.62,335.23c-12.92-0.6-23.39-7.37-33.07-15.46c-9.04-7.56-14.61-19.41-14.65-31.24
						c-2.7,3.28-5.06,6.81-6.97,10.93c-0.76,1.64-1.44,3.32-2.04,5.03c-6.09,24.75,12.43,50.77,39.17,50.84
						c24.62,1.13,43.97-13.56,48.8-32.11C185.15,331.65,172.88,335.75,161.62,335.23z"/>
				</g>
				<path class="st39" d="M141.08,346.91c-1.25-0.44-2.56-0.63-3.81-1.08c-1.28-0.46-2.52-1.06-3.66-1.8
					c-2.4-1.55-4.11-3.72-5.59-6.13c-1.39-2.27-2.9-4.42-4.05-6.83c-1.1-2.31-2.06-4.74-2.96-7.13c-2.14-5.76-3.36-11.96-3.1-18.06
					c-1.24-2.62-2.21-5.37-2.89-8.18c-0.99,3.01-1.56,6.17-1.79,9.4c-0.4,5.78,0.5,11.68,2.47,17.13c1.03,2.85,2.26,5.53,3.97,8.03
					c1.59,2.32,3.19,4.91,5.17,6.91c2.27,2.29,4.67,4.71,7.37,6.49c2.47,1.63,5.86,3.04,8.87,2.55
					C141.8,348.11,141.65,347.11,141.08,346.91z"/>
				<path class="st39" d="M153.53,339.21c-1.04-0.73-2.05-1.52-3.02-2.35c-1.71-1.46-3.36-3.01-4.88-4.67
					c-0.51-0.56-1-1.15-1.48-1.74c-3.24-1.63-6.33-3.6-9.32-5.77c1.95,3.55,4.27,6.88,6.93,9.87c1.86,2.09,3.9,4,6.16,5.66
					c2.22,1.63,5.08,3.65,7.96,3.09c0.89-0.17,1.04-1.33,0.51-1.92C155.55,340.48,154.54,339.92,153.53,339.21z"/>
				<path class="st39" d="M163.63,335.27c0,0.01-0.01,0.03-0.01,0.04c-0.76,2.79-2.06,5.34-3.05,8.04c-0.35,0.96,0.94,1.5,1.58,0.92
					c1.99-1.76,3.32-4.15,4.38-6.56c0.38-0.87,0.72-1.76,1.02-2.65C166.24,335.2,164.93,335.27,163.63,335.27z"/>
				<path class="st39" d="M176.33,333.34c-1.03,2.06-2.33,4.17-3.93,5.76c-0.66,0.66,0.34,1.65,1.02,1.02
					c0.9-0.83,1.85-1.57,2.67-2.49c0.79-0.89,1.53-1.84,2.21-2.82c0.62-0.89,1.16-1.82,1.66-2.77
					C178.77,332.52,177.56,332.96,176.33,333.34z"/>
			</g>
		</g>
		<g>
			<path class="st40" d="M398.35,306.06c-20.05,25.57-84.75,39.2-148.35,38.94c-63.6,0.26-128.29-13.37-148.35-38.94
				C81.94,413,166.75,475.12,250.01,475.69C333.26,475.12,418.07,413,398.35,306.06z"/>
			<path class="st41" d="M357.53,409.99c-42.79,13.94-89.43,9.25-131.53-4.56c-24.4-8-48.91-17.76-70.01-32.64
				c-23.03-16.25-39.63-37.75-55.3-60.81C85.1,415.28,168.3,475.13,250.01,475.69c55.91-0.39,112.52-28.53,137.71-79.36
				C378.24,402.01,368.05,406.56,357.53,409.99z"/>
			<path class="st42" d="M326.1,455.93c-23.08,5.12-46.06,9.37-69.82,8.06c-25.69-1.42-49.7-8.15-72.92-19.07
				c-19.97-9.39-39.02-22.81-52.94-40.09c-12.91-16.03-21.06-34.63-30.79-52.5c8.48,78.38,79.98,122.88,150.38,123.37
				c27.91-0.19,55.99-7.31,80.26-20.7C328.88,455.31,327.49,455.63,326.1,455.93z"/>
		</g>
	</g>
</g>
</svg>
